<svg width="24.000000" height="24.000000" viewBox="0 0 24 24" fill="none" xmlns="http://www.w3.org/2000/svg" xmlns:xlink="http://www.w3.org/1999/xlink">
	<desc>
			Created with Pixso.
	</desc>
	<defs/>
	<rect id="Rectangle" width="24.000000" height="24.000000" fill="#D8D8D8" fill-opacity="0"/>
	<rect id="Rectangle" width="24.000000" height="24.000000" stroke="#FFFFFF" stroke-opacity="1.000000" stroke-width="0.000000"/>
	<mask id="mask_502_694" fill="white">
		<path id="GooglePlus" d="M11.8077 13.5862C10.9135 13.5862 8.71704 13.5891 8.71704 13.5891L8.71704 11.4109L14.2075 11.4109C14.59 14.0466 13.4364 18 8.71704 18C5.55957 18 3 15.5376 3 12.5C3 9.4624 5.55957 7 8.71704 7C10.1985 7 11.5485 7.54224 12.5641 8.43164C11.3677 9.51855 11.4069 9.58301 10.9366 10.0354C10.3491 9.56812 9.70874 9.23267 8.71704 9.23267C6.84131 9.23267 5.37732 10.6956 5.37732 12.5C5.37732 14.3044 6.84131 15.7673 8.71704 15.7673C10.5704 15.7673 11.3235 14.9983 11.8077 13.5862ZM19.0189 11.5198L19.0189 9.61377L17.6038 9.61377L17.6038 11.5198L15.566 11.5198L15.566 12.8811L17.6038 12.8811L17.6038 14.8416L19.0189 14.8416L19.0189 12.8811L21 12.8811L21 11.5198L19.0189 11.5198Z" clip-rule="evenodd" fill="" fill-opacity="1.000000" fill-rule="evenodd"/>
	</mask>
	<path id="GooglePlus" d="M11.8077 13.5862C10.9135 13.5862 8.71704 13.5891 8.71704 13.5891L8.71704 11.4109L14.2075 11.4109C14.59 14.0466 13.4364 18 8.71704 18C5.55957 18 3 15.5376 3 12.5C3 9.4624 5.55957 7 8.71704 7C10.1985 7 11.5485 7.54224 12.5641 8.43164C11.3677 9.51855 11.4069 9.58301 10.9366 10.0354C10.3491 9.56812 9.70874 9.23267 8.71704 9.23267C6.84131 9.23267 5.37732 10.6956 5.37732 12.5C5.37732 14.3044 6.84131 15.7673 8.71704 15.7673C10.5704 15.7673 11.3235 14.9983 11.8077 13.5862ZM19.0189 11.5198L19.0189 9.61377L17.6038 9.61377L17.6038 11.5198L15.566 11.5198L15.566 12.8811L17.6038 12.8811L17.6038 14.8416L19.0189 14.8416L19.0189 12.8811L21 12.8811L21 11.5198L19.0189 11.5198Z" clip-rule="evenodd" fill="#FFFFFF" fill-opacity="1.000000" fill-rule="evenodd" mask="url(#mask_502_694)"/>
	<path id="GooglePlus" d="" fill="#FFFFFF" fill-opacity="1.000000" fill-rule="nonzero"/>
</svg>
