<svg width="24.000000" height="24.000000" viewBox="0 0 24 24" fill="none" xmlns="http://www.w3.org/2000/svg" xmlns:xlink="http://www.w3.org/1999/xlink">
	<desc>
			Created with Pixso.
	</desc>
	<defs/>
	<rect id="Rectangle" width="24.000000" height="24.000000" fill="#D8D8D8" fill-opacity="0"/>
	<rect id="Rectangle" width="24.000000" height="24.000000" stroke="#FFFFFF" stroke-opacity="1.000000" stroke-width="0.000000"/>
	<mask id="mask_502_686" fill="white">
		<path id="Instagram" d="M8.28931 3.0542C9.24927 3.01025 9.55579 3 12 3C14.4442 3 14.7507 3.01025 15.7107 3.0542C16.6686 3.0979 17.3229 3.25 17.8954 3.47241C18.4872 3.70239 18.9891 4.01025 19.4895 4.5105C19.9897 5.01099 20.2975 5.51294 20.5276 6.10474C20.75 6.67725 20.9021 7.3313 20.9458 8.28931C20.9896 9.24927 21 9.55566 21 12C21 14.4443 20.9896 14.7507 20.9458 15.7107C20.9021 16.6687 20.75 17.3228 20.5276 17.8953C20.2975 18.4871 19.9897 18.989 19.4895 19.4895C18.9891 19.9897 18.4872 20.2976 17.8954 20.5276C17.3229 20.75 16.6686 20.9021 15.7107 20.9458C14.7507 20.9897 14.4442 21 12 21C9.55579 21 9.24927 20.9897 8.28931 20.9458C7.33142 20.9021 6.67712 20.75 6.10461 20.5276C5.51282 20.2976 5.01086 19.9897 4.5105 19.4895C4.01025 18.989 3.70251 18.4871 3.47253 17.8953C3.25 17.3228 3.0979 16.6687 3.0542 15.7107C3.01038 14.7507 3 14.4443 3 12C3 9.55566 3.01038 9.24927 3.0542 8.28931C3.0979 7.3313 3.25 6.67725 3.47253 6.10474C3.70251 5.51294 4.01025 5.01099 4.5105 4.5105C5.01086 4.01025 5.51282 3.70239 6.10461 3.47241C6.67712 3.25 7.33142 3.0979 8.28931 3.0542ZM12 4.62158C14.4031 4.62158 14.6877 4.63086 15.6367 4.67407C16.5143 4.71411 16.9908 4.86084 17.308 4.98389C17.728 5.14722 18.0278 5.34229 18.3428 5.65723C18.6577 5.97217 18.8528 6.27197 19.016 6.69214C19.1393 7.00928 19.2859 7.48584 19.3259 8.36328C19.3691 9.31226 19.3784 9.59692 19.3784 12C19.3784 14.4031 19.3691 14.6877 19.3259 15.6367C19.2859 16.5142 19.1393 16.9907 19.016 17.3079C18.8528 17.728 18.6577 18.0278 18.3428 18.3428C18.0278 18.6577 17.728 18.8528 17.308 19.0161C16.9908 19.1392 16.5143 19.2859 15.6367 19.3259C14.6879 19.3691 14.4033 19.3784 12 19.3784C9.59668 19.3784 9.31213 19.3691 8.36328 19.3259C7.48572 19.2859 7.00916 19.1392 6.69202 19.0161C6.27197 18.8528 5.97217 18.6577 5.65723 18.3428C5.34229 18.0278 5.14722 17.728 4.98401 17.3079C4.86072 16.9907 4.71411 16.5142 4.67407 15.6367C4.63086 14.6877 4.62158 14.4031 4.62158 12C4.62158 9.59692 4.63086 9.31226 4.67407 8.36328C4.71411 7.48584 4.86072 7.00928 4.98401 6.69214C5.14722 6.27197 5.34229 5.97217 5.65723 5.65723C5.97217 5.34229 6.27197 5.14722 6.69202 4.98389C7.00916 4.86084 7.48572 4.71411 8.36328 4.67407C9.31226 4.63086 9.59692 4.62158 12 4.62158ZM16.8042 8.27588C17.4006 8.27588 17.8843 7.79224 17.8843 7.1958C17.8843 6.59937 17.4006 6.11572 16.8042 6.11572C16.2078 6.11572 15.7242 6.59937 15.7242 7.1958C15.7242 7.79224 16.2078 8.27588 16.8042 8.27588ZM7.37842 12C7.37842 9.44751 9.44751 7.37842 12 7.37842C14.5525 7.37842 16.6216 9.44751 16.6216 12C16.6216 14.5525 14.5525 16.6216 12 16.6216C9.44751 16.6216 7.37842 14.5525 7.37842 12ZM12 15C10.3431 15 9 13.657 9 12C9 10.343 10.3431 9 12 9C13.6569 9 15 10.343 15 12C15 13.657 13.6569 15 12 15Z" clip-rule="evenodd" fill="" fill-opacity="1.000000" fill-rule="evenodd"/>
	</mask>
	<path id="Instagram" d="M8.28931 3.0542C9.24927 3.01025 9.55579 3 12 3C14.4442 3 14.7507 3.01025 15.7107 3.0542C16.6686 3.0979 17.3229 3.25 17.8954 3.47241C18.4872 3.70239 18.9891 4.01025 19.4895 4.5105C19.9897 5.01099 20.2975 5.51294 20.5276 6.10474C20.75 6.67725 20.9021 7.3313 20.9458 8.28931C20.9896 9.24927 21 9.55566 21 12C21 14.4443 20.9896 14.7507 20.9458 15.7107C20.9021 16.6687 20.75 17.3228 20.5276 17.8953C20.2975 18.4871 19.9897 18.989 19.4895 19.4895C18.9891 19.9897 18.4872 20.2976 17.8954 20.5276C17.3229 20.75 16.6686 20.9021 15.7107 20.9458C14.7507 20.9897 14.4442 21 12 21C9.55579 21 9.24927 20.9897 8.28931 20.9458C7.33142 20.9021 6.67712 20.75 6.10461 20.5276C5.51282 20.2976 5.01086 19.9897 4.5105 19.4895C4.01025 18.989 3.70251 18.4871 3.47253 17.8953C3.25 17.3228 3.0979 16.6687 3.0542 15.7107C3.01038 14.7507 3 14.4443 3 12C3 9.55566 3.01038 9.24927 3.0542 8.28931C3.0979 7.3313 3.25 6.67725 3.47253 6.10474C3.70251 5.51294 4.01025 5.01099 4.5105 4.5105C5.01086 4.01025 5.51282 3.70239 6.10461 3.47241C6.67712 3.25 7.33142 3.0979 8.28931 3.0542ZM12 4.62158C14.4031 4.62158 14.6877 4.63086 15.6367 4.67407C16.5143 4.71411 16.9908 4.86084 17.308 4.98389C17.728 5.14722 18.0278 5.34229 18.3428 5.65723C18.6577 5.97217 18.8528 6.27197 19.016 6.69214C19.1393 7.00928 19.2859 7.48584 19.3259 8.36328C19.3691 9.31226 19.3784 9.59692 19.3784 12C19.3784 14.4031 19.3691 14.6877 19.3259 15.6367C19.2859 16.5142 19.1393 16.9907 19.016 17.3079C18.8528 17.728 18.6577 18.0278 18.3428 18.3428C18.0278 18.6577 17.728 18.8528 17.308 19.0161C16.9908 19.1392 16.5143 19.2859 15.6367 19.3259C14.6879 19.3691 14.4033 19.3784 12 19.3784C9.59668 19.3784 9.31213 19.3691 8.36328 19.3259C7.48572 19.2859 7.00916 19.1392 6.69202 19.0161C6.27197 18.8528 5.97217 18.6577 5.65723 18.3428C5.34229 18.0278 5.14722 17.728 4.98401 17.3079C4.86072 16.9907 4.71411 16.5142 4.67407 15.6367C4.63086 14.6877 4.62158 14.4031 4.62158 12C4.62158 9.59692 4.63086 9.31226 4.67407 8.36328C4.71411 7.48584 4.86072 7.00928 4.98401 6.69214C5.14722 6.27197 5.34229 5.97217 5.65723 5.65723C5.97217 5.34229 6.27197 5.14722 6.69202 4.98389C7.00916 4.86084 7.48572 4.71411 8.36328 4.67407C9.31226 4.63086 9.59692 4.62158 12 4.62158ZM16.8042 8.27588C17.4006 8.27588 17.8843 7.79224 17.8843 7.1958C17.8843 6.59937 17.4006 6.11572 16.8042 6.11572C16.2078 6.11572 15.7242 6.59937 15.7242 7.1958C15.7242 7.79224 16.2078 8.27588 16.8042 8.27588ZM7.37842 12C7.37842 9.44751 9.44751 7.37842 12 7.37842C14.5525 7.37842 16.6216 9.44751 16.6216 12C16.6216 14.5525 14.5525 16.6216 12 16.6216C9.44751 16.6216 7.37842 14.5525 7.37842 12ZM12 15C10.3431 15 9 13.657 9 12C9 10.343 10.3431 9 12 9C13.6569 9 15 10.343 15 12C15 13.657 13.6569 15 12 15Z" clip-rule="evenodd" fill="#FFFFFF" fill-opacity="1.000000" fill-rule="evenodd" mask="url(#mask_502_686)"/>
	<path id="Instagram" d="" fill="#FFFFFF" fill-opacity="1.000000" fill-rule="nonzero"/>
</svg>
