<svg width="24.000000" height="24.000000" viewBox="0 0 24 24" fill="none" xmlns="http://www.w3.org/2000/svg" xmlns:xlink="http://www.w3.org/1999/xlink">
	<desc>
			Created with Pixso.
	</desc>
	<defs/>
	<rect id="Rectangle" width="24.000000" height="24.000000" fill="#D8D8D8" fill-opacity="0"/>
	<rect id="Rectangle" width="24.000000" height="24.000000" stroke="#FFFFFF" stroke-opacity="1.000000" stroke-width="0.000000"/>
	<mask id="mask_502_675" fill="white">
		<path id="LinkedIn" d="M5.11877 7.77124L5.09338 7.77124C3.82336 7.77124 3 6.94043 3 5.88721C3 4.81348 3.84778 4 5.14307 4C6.4375 4 7.23328 4.81152 7.25867 5.88403C7.25867 6.93726 6.4375 7.77124 5.11877 7.77124ZM17.0217 20L21 20L21 13.9563C21 10.5898 19.041 9.02637 16.5476 9.02637C14.5378 9.02637 13.2784 10.0908 13.0457 10.8367L13.0457 9.13086L9.10437 9.13086C9.15527 10.0366 9.10437 20 9.10437 20L13.0457 20L13.0457 14.1182C13.0457 14.0791 13.0454 14.04 13.0452 14.0012C13.0435 13.7146 13.0419 13.4365 13.1313 13.23C13.4022 12.5764 13.9844 11.8979 15.031 11.8979C16.3994 11.8979 17.0217 12.9031 17.0217 14.3752L17.0217 20ZM6.9624 9.13086L3.45398 9.13086L3.45398 20L6.9624 20L6.9624 9.13086Z" clip-rule="evenodd" fill="" fill-opacity="1.000000" fill-rule="evenodd"/>
	</mask>
	<path id="LinkedIn" d="M5.11877 7.77124L5.09338 7.77124C3.82336 7.77124 3 6.94043 3 5.88721C3 4.81348 3.84778 4 5.14307 4C6.4375 4 7.23328 4.81152 7.25867 5.88403C7.25867 6.93726 6.4375 7.77124 5.11877 7.77124ZM17.0217 20L21 20L21 13.9563C21 10.5898 19.041 9.02637 16.5476 9.02637C14.5378 9.02637 13.2784 10.0908 13.0457 10.8367L13.0457 9.13086L9.10437 9.13086C9.15527 10.0366 9.10437 20 9.10437 20L13.0457 20L13.0457 14.1182C13.0457 14.0791 13.0454 14.04 13.0452 14.0012C13.0435 13.7146 13.0419 13.4365 13.1313 13.23C13.4022 12.5764 13.9844 11.8979 15.031 11.8979C16.3994 11.8979 17.0217 12.9031 17.0217 14.3752L17.0217 20ZM6.9624 9.13086L3.45398 9.13086L3.45398 20L6.9624 20L6.9624 9.13086Z" clip-rule="evenodd" fill="#FFFFFF" fill-opacity="1.000000" fill-rule="evenodd" mask="url(#mask_502_675)"/>
	<path id="LinkedIn" d="" fill="#FFFFFF" fill-opacity="1.000000" fill-rule="nonzero"/>
</svg>
