<svg width="24.000000" height="24.000000" viewBox="0 0 24 24" fill="none" xmlns="http://www.w3.org/2000/svg" xmlns:xlink="http://www.w3.org/1999/xlink">
	<desc>
			Created with Pixso.
	</desc>
	<defs/>
	<rect id="Rectangle" width="24.000000" height="24.000000" fill="#D8D8D8" fill-opacity="0"/>
	<rect id="Rectangle" width="24.000000" height="24.000000" stroke="#FFFFFF" stroke-opacity="1.000000" stroke-width="0.000000"/>
	<path id="Pinterest" d="M12 3C7.03 3 3 7.02 3 12C3 15.68 5.21 18.85 8.38 20.24C8.36 19.61 8.38 18.85 8.54 18.17C8.71 17.44 9.7 13.27 9.7 13.27C9.7 13.27 9.41 12.69 9.41 11.84C9.41 10.51 10.18 9.51 11.15 9.51C11.96 9.51 12.36 10.13 12.36 10.87C12.36 11.69 11.83 12.92 11.56 14.06C11.34 15.01 12.04 15.79 12.99 15.79C14.69 15.79 15.84 13.6 15.84 11.01C15.84 9.04 14.51 7.56 12.09 7.56C9.36 7.56 7.66 9.59 7.66 11.87C7.66 12.65 7.89 13.21 8.26 13.63C8.42 13.83 8.45 13.91 8.39 14.14C8.34 14.3 8.24 14.7 8.2 14.86C8.14 15.08 7.96 15.17 7.75 15.08C6.49 14.57 5.91 13.19 5.91 11.64C5.91 9.09 8.06 6.02 12.34 6.02C15.78 6.02 18.04 8.51 18.04 11.18C18.04 14.71 16.08 17.35 13.18 17.35C12.21 17.35 11.3 16.82 10.98 16.22C10.98 16.22 10.46 18.3 10.35 18.7C10.16 19.39 9.79 20.09 9.44 20.63C10.25 20.86 11.11 21 12 21C16.97 21 21 16.97 21 12C21 7.02 16.97 3 12 3Z" fill="#FFFFFF" fill-opacity="1.000000" fill-rule="nonzero"/>
	<path id="Pinterest" d="M3 12C3 15.68 5.21 18.85 8.38 20.24C8.36 19.61 8.38 18.85 8.54 18.17C8.71 17.44 9.7 13.27 9.7 13.27C9.7 13.27 9.41 12.69 9.41 11.84C9.41 10.51 10.18 9.51 11.15 9.51C11.96 9.51 12.36 10.13 12.36 10.87C12.36 11.69 11.83 12.92 11.56 14.06C11.34 15.01 12.04 15.79 12.99 15.79C14.69 15.79 15.84 13.6 15.84 11.01C15.84 9.04 14.51 7.56 12.09 7.56C9.36 7.56 7.66 9.59 7.66 11.87C7.66 12.65 7.89 13.21 8.26 13.63C8.42 13.83 8.45 13.91 8.39 14.14C8.34 14.3 8.24 14.7 8.2 14.86C8.14 15.08 7.96 15.17 7.75 15.08C6.49 14.57 5.91 13.19 5.91 11.64C5.91 9.09 8.06 6.02 12.34 6.02C15.78 6.02 18.04 8.51 18.04 11.18C18.04 14.71 16.08 17.35 13.18 17.35C12.21 17.35 11.3 16.82 10.98 16.22C10.98 16.22 10.46 18.3 10.35 18.7C10.16 19.39 9.79 20.09 9.44 20.63C10.25 20.86 11.11 21 12 21C16.97 21 21 16.97 21 12C21 7.02 16.97 3 12 3C7.03 3 3 7.02 3 12Z" stroke="#FFFFFF" stroke-opacity="1.000000" stroke-width="0.000000"/>
</svg>
