<svg width="18.000000" height="15.000000" viewBox="0 0 18 15" fill="none" xmlns="http://www.w3.org/2000/svg" xmlns:xlink="http://www.w3.org/1999/xlink">
	<desc>
			Created with Pixso.
	</desc>
	<defs/>
	<path id="Twitter" d="M18 1.77C17.33 2.07 16.62 2.28 15.87 2.37C16.64 1.9 17.22 1.16 17.5 0.27C16.78 0.71 16 1.02 15.15 1.19C14.48 0.45 13.52 0 12.46 0C10.42 0 8.77 1.69 8.77 3.78C8.77 4.08 8.8 4.37 8.86 4.64C5.79 4.49 3.07 2.98 1.25 0.69C0.93 1.25 0.75 1.9 0.75 2.59C0.75 3.91 1.4 5.06 2.39 5.74C1.79 5.73 1.22 5.55 0.72 5.27L0.72 5.32C0.72 7.15 1.99 8.68 3.68 9.03C3.37 9.12 3.05 9.16 2.71 9.16C2.47 9.16 2.24 9.14 2.01 9.1C2.48 10.6 3.85 11.7 5.46 11.73C4.2 12.74 2.61 13.35 0.88 13.35C0.58 13.35 0.28 13.33 0 13.3C1.63 14.37 3.57 15 5.66 15C12.45 15 16.16 9.23 16.16 4.22C16.16 4.06 16.16 3.89 16.15 3.73C16.88 3.2 17.5 2.53 18 1.77Z" fill="#FFFFFF" fill-opacity="1.000000" fill-rule="nonzero"/>
	<path id="Twitter" d="M15.87 2.37C16.64 1.9 17.22 1.16 17.5 0.27C16.78 0.71 16 1.02 15.15 1.19C14.48 0.45 13.52 0 12.46 0C10.42 0 8.77 1.69 8.77 3.78C8.77 4.08 8.8 4.37 8.86 4.64C5.79 4.49 3.07 2.98 1.25 0.69C0.93 1.25 0.75 1.9 0.75 2.59C0.75 3.91 1.4 5.06 2.39 5.74C1.79 5.73 1.22 5.55 0.72 5.27L0.72 5.32C0.72 7.15 1.99 8.68 3.68 9.03C3.37 9.12 3.05 9.16 2.71 9.16C2.47 9.16 2.24 9.14 2.01 9.1C2.48 10.6 3.85 11.7 5.46 11.73C4.2 12.74 2.61 13.35 0.88 13.35C0.58 13.35 0.28 13.33 0 13.3C1.63 14.37 3.57 15 5.66 15C12.45 15 16.16 9.23 16.16 4.22C16.16 4.06 16.16 3.89 16.15 3.73C16.88 3.2 17.5 2.53 18 1.77C17.33 2.07 16.62 2.28 15.87 2.37Z" stroke="#FFFFFF" stroke-opacity="1.000000" stroke-width="0.000000"/>
</svg>
