<svg width="499" height="522" viewBox="0 0 499 522" fill="none" xmlns="http://www.w3.org/2000/svg">
<path d="M5.73668 261.538C6.10068 261.538 6.37601 261.482 6.56268 261.37C6.75868 261.249 6.90335 261.104 6.99668 260.936C7.09001 260.759 7.15535 260.567 7.19268 260.362C7.23001 260.157 7.28135 259.97 7.34668 259.802C7.41201 259.625 7.50535 259.48 7.62668 259.368C7.75735 259.247 7.96268 259.186 8.24268 259.186C8.32668 259.186 8.41068 259.2 8.49468 259.228C8.57868 259.247 8.65335 259.293 8.71868 259.368C8.78401 259.433 8.83535 259.527 8.87268 259.648C8.91001 259.769 8.92868 259.933 8.92868 260.138C8.92868 260.409 8.84935 260.67 8.69068 260.922C8.54135 261.165 8.32668 261.384 8.04668 261.58C7.76668 261.767 7.42601 261.916 7.02468 262.028C6.63268 262.14 6.19868 262.196 5.72268 262.196C5.11601 262.196 4.54668 262.065 4.01468 261.804C3.48268 261.533 3.02068 261.174 2.62868 260.726C2.23668 260.269 1.92401 259.737 1.69068 259.13C1.46668 258.523 1.35468 257.87 1.35468 257.17C1.35468 256.47 1.46668 255.817 1.69068 255.21C1.92401 254.603 2.23668 254.071 2.62868 253.614C3.02068 253.157 3.48268 252.797 4.01468 252.536C4.54668 252.275 5.11601 252.144 5.72268 252.144C6.20801 252.144 6.64668 252.2 7.03868 252.312C7.43068 252.424 7.76668 252.578 8.04668 252.774C8.32668 252.961 8.54135 253.18 8.69068 253.432C8.84001 253.675 8.91468 253.931 8.91468 254.202C8.91468 254.407 8.89601 254.571 8.85868 254.692C8.82135 254.813 8.77001 254.911 8.70468 254.986C8.63935 255.051 8.56468 255.098 8.48068 255.126C8.39668 255.145 8.31268 255.154 8.22868 255.154C7.94868 255.154 7.74335 255.098 7.61268 254.986C7.49135 254.865 7.39801 254.72 7.33268 254.552C7.26735 254.375 7.21601 254.183 7.17868 253.978C7.14135 253.773 7.07601 253.586 6.98268 253.418C6.88935 253.241 6.74468 253.096 6.54868 252.984C6.36201 252.863 6.08668 252.802 5.72268 252.802C5.31201 252.802 4.96668 252.919 4.68668 253.152C4.41601 253.376 4.19201 253.689 4.01468 254.09C3.84668 254.482 3.72535 254.944 3.65068 255.476C3.57601 256.008 3.53868 256.573 3.53868 257.17C3.53868 257.767 3.57601 258.332 3.65068 258.864C3.72535 259.396 3.84668 259.863 4.01468 260.264C4.19201 260.656 4.42068 260.969 4.70068 261.202C4.98068 261.426 5.32601 261.538 5.73668 261.538ZM12.6887 258.92V261.3C12.6887 261.552 12.6467 261.753 12.5627 261.902C12.488 262.051 12.3667 262.126 12.1987 262.126C12.0587 262.126 11.9187 262.121 11.7787 262.112C11.648 262.103 11.5313 262.07 11.4287 262.014C11.326 261.967 11.242 261.888 11.1767 261.776C11.1113 261.664 11.0787 261.501 11.0787 261.286V255.812C11.0787 255.551 11.116 255.345 11.1907 255.196C11.2653 255.047 11.3913 254.972 11.5687 254.972C11.7087 254.972 11.844 254.977 11.9747 254.986C12.1147 254.995 12.236 255.028 12.3387 255.084C12.4413 255.131 12.5253 255.215 12.5907 255.336C12.656 255.448 12.6887 255.611 12.6887 255.826V258.43H15.3207V255.812C15.3207 255.551 15.358 255.345 15.4327 255.196C15.5073 255.047 15.638 254.972 15.8247 254.972C15.9647 254.972 16.1 254.977 16.2307 254.986C16.3613 254.995 16.478 255.028 16.5807 255.084C16.6833 255.131 16.7673 255.215 16.8327 255.336C16.898 255.448 16.9307 255.611 16.9307 255.826V261.3C16.9307 261.552 16.8933 261.753 16.8187 261.902C16.744 262.051 16.618 262.126 16.4407 262.126C16.3007 262.126 16.1653 262.121 16.0347 262.112C15.904 262.103 15.7827 262.07 15.6707 262.014C15.568 261.967 15.484 261.888 15.4187 261.776C15.3533 261.664 15.3207 261.501 15.3207 261.286V258.92H12.6887ZM24.0991 255.812C24.0991 255.551 24.1364 255.345 24.2111 255.196C24.2951 255.047 24.4258 254.972 24.6031 254.972C24.7431 254.972 24.8784 254.977 25.0091 254.986C25.1491 254.995 25.2704 255.028 25.3731 255.084C25.4758 255.131 25.5598 255.215 25.6251 255.336C25.6904 255.448 25.7231 255.611 25.7231 255.826V259.214C25.7231 259.849 25.6204 260.362 25.4151 260.754C25.2191 261.137 24.9578 261.431 24.6311 261.636C24.3138 261.841 23.9544 261.977 23.5531 262.042C23.1611 262.107 22.7691 262.14 22.3771 262.14C22.0691 262.14 21.7238 262.117 21.3411 262.07C20.9678 262.023 20.6131 261.916 20.2771 261.748C19.9504 261.58 19.6751 261.333 19.4511 261.006C19.2271 260.67 19.1151 260.217 19.1151 259.648V255.812C19.1151 255.551 19.1524 255.345 19.2271 255.196C19.3018 255.047 19.4278 254.972 19.6051 254.972C19.7451 254.972 19.8804 254.977 20.0111 254.986C20.1511 254.995 20.2724 255.028 20.3751 255.084C20.4778 255.131 20.5618 255.215 20.6271 255.336C20.6924 255.448 20.7251 255.611 20.7251 255.826V259.746C20.7251 260.325 20.8744 260.796 21.1731 261.16C21.4811 261.515 21.8824 261.692 22.3771 261.692C22.7131 261.692 22.9884 261.613 23.2031 261.454C23.4271 261.295 23.6044 261.095 23.7351 260.852C23.8658 260.6 23.9591 260.329 24.0151 260.04C24.0711 259.741 24.0991 259.457 24.0991 259.186V255.812ZM34.8827 261.3C34.8827 261.561 34.8454 261.767 34.7707 261.916C34.696 262.065 34.57 262.14 34.3927 262.14C34.2527 262.14 34.1174 262.135 33.9867 262.126C33.856 262.117 33.7347 262.084 33.6227 262.028C33.52 261.981 33.436 261.902 33.3707 261.79C33.3054 261.669 33.2727 261.501 33.2727 261.286V256.582L31.3687 259.466L29.4367 257.058V261.3C29.4367 261.561 29.3947 261.767 29.3107 261.916C29.236 262.065 29.1147 262.14 28.9467 262.14C28.8067 262.14 28.6667 262.135 28.5267 262.126C28.396 262.117 28.2794 262.084 28.1767 262.028C28.074 261.981 27.99 261.902 27.9247 261.79C27.8594 261.669 27.8267 261.501 27.8267 261.286V255.798C27.8267 255.537 27.878 255.331 27.9807 255.182C28.0834 255.033 28.2234 254.958 28.4007 254.958C28.5687 254.958 28.7134 254.963 28.8347 254.972C28.9654 254.972 29.0867 254.995 29.1987 255.042C29.3107 255.089 29.4227 255.168 29.5347 255.28C29.656 255.383 29.796 255.532 29.9547 255.728L31.7047 257.884L33.2167 255.658C33.2074 255.425 33.2587 255.252 33.3707 255.14C33.4827 255.019 33.632 254.958 33.8187 254.958C33.9587 254.958 34.0894 254.963 34.2107 254.972C34.3414 254.981 34.4534 255.014 34.5467 255.07C34.6494 255.117 34.7287 255.201 34.7847 255.322C34.85 255.434 34.8827 255.597 34.8827 255.812V261.3ZM40.2023 257.198C40.2023 256.769 40.1696 256.433 40.1043 256.19C40.0389 255.947 39.9503 255.77 39.8383 255.658C39.7356 255.546 39.6189 255.495 39.4883 255.504C39.3669 255.504 39.2456 255.532 39.1243 255.588C39.0029 255.644 38.8909 255.719 38.7883 255.812C38.6949 255.896 38.6249 255.971 38.5783 256.036V259.55C39.1663 259.382 39.5816 259.102 39.8243 258.71C40.0763 258.318 40.2023 257.814 40.2023 257.198ZM36.9683 255.756C36.9683 255.504 37.0056 255.303 37.0803 255.154C37.1643 254.995 37.2903 254.916 37.4583 254.916C37.7383 254.916 37.9856 254.949 38.2003 255.014C38.4149 255.079 38.5363 255.252 38.5643 255.532C38.6763 255.401 38.8489 255.266 39.0823 255.126C39.3156 254.977 39.6003 254.902 39.9363 254.902C40.4963 254.902 40.9489 255.051 41.2943 255.35C41.6396 255.649 41.8123 256.134 41.8123 256.806C41.8123 256.974 41.7796 257.198 41.7143 257.478C41.6583 257.749 41.5229 258.038 41.3083 258.346C41.0936 258.645 40.7669 258.939 40.3283 259.228C39.8989 259.508 39.3156 259.741 38.5783 259.928V264.072C38.5783 264.315 38.5549 264.515 38.5083 264.674C38.4616 264.833 38.3543 264.912 38.1863 264.912C38.0743 264.912 37.9436 264.884 37.7943 264.828C37.6543 264.772 37.5236 264.688 37.4023 264.576C37.2809 264.464 37.1783 264.329 37.0943 264.17C37.0103 264.021 36.9683 263.848 36.9683 263.652V255.756ZM45.5148 258.92V261.3C45.5148 261.552 45.4728 261.753 45.3888 261.902C45.3142 262.051 45.1928 262.126 45.0248 262.126C44.8848 262.126 44.7448 262.121 44.6048 262.112C44.4742 262.103 44.3575 262.07 44.2548 262.014C44.1522 261.967 44.0682 261.888 44.0028 261.776C43.9375 261.664 43.9048 261.501 43.9048 261.286V255.812C43.9048 255.551 43.9422 255.345 44.0168 255.196C44.0915 255.047 44.2175 254.972 44.3948 254.972C44.5348 254.972 44.6702 254.977 44.8008 254.986C44.9408 254.995 45.0622 255.028 45.1648 255.084C45.2675 255.131 45.3515 255.215 45.4168 255.336C45.4822 255.448 45.5148 255.611 45.5148 255.826V258.43H48.1468V255.812C48.1468 255.551 48.1842 255.345 48.2588 255.196C48.3335 255.047 48.4642 254.972 48.6508 254.972C48.7908 254.972 48.9262 254.977 49.0568 254.986C49.1875 254.995 49.3042 255.028 49.4068 255.084C49.5095 255.131 49.5935 255.215 49.6588 255.336C49.7242 255.448 49.7568 255.611 49.7568 255.826V261.3C49.7568 261.552 49.7195 261.753 49.6448 261.902C49.5702 262.051 49.4442 262.126 49.2668 262.126C49.1268 262.126 48.9915 262.121 48.8608 262.112C48.7302 262.103 48.6088 262.07 48.4968 262.014C48.3942 261.967 48.3102 261.888 48.2448 261.776C48.1795 261.664 48.1468 261.501 48.1468 261.286V258.92H45.5148ZM58.7033 258.528C58.7033 259.032 58.6099 259.503 58.4233 259.942C58.2459 260.381 57.9986 260.763 57.6813 261.09C57.3639 261.417 56.9906 261.673 56.5613 261.86C56.1413 262.047 55.6886 262.14 55.2033 262.14C54.7179 262.14 54.2606 262.047 53.8313 261.86C53.4113 261.673 53.0426 261.417 52.7253 261.09C52.4173 260.763 52.1699 260.381 51.9833 259.942C51.8059 259.503 51.7173 259.032 51.7173 258.528C51.7173 258.024 51.8059 257.553 51.9833 257.114C52.1699 256.675 52.4173 256.293 52.7253 255.966C53.0426 255.63 53.4113 255.369 53.8313 255.182C54.2606 254.995 54.7179 254.902 55.2033 254.902C55.6886 254.902 56.1413 254.995 56.5613 255.182C56.9906 255.369 57.3639 255.63 57.6813 255.966C57.9986 256.293 58.2459 256.675 58.4233 257.114C58.6099 257.553 58.7033 258.024 58.7033 258.528ZM56.9533 258.528C56.9533 258.099 56.9206 257.693 56.8553 257.31C56.7993 256.918 56.7013 256.582 56.5613 256.302C56.4306 256.013 56.2533 255.784 56.0293 255.616C55.8053 255.448 55.5299 255.364 55.2033 255.364C54.8766 255.364 54.6013 255.448 54.3773 255.616C54.1533 255.784 53.9713 256.013 53.8313 256.302C53.7006 256.582 53.6026 256.918 53.5373 257.31C53.4813 257.693 53.4533 258.099 53.4533 258.528C53.4533 258.957 53.4813 259.363 53.5373 259.746C53.6026 260.129 53.7006 260.465 53.8313 260.754C53.9713 261.043 54.1533 261.272 54.3773 261.44C54.6013 261.608 54.8766 261.692 55.2033 261.692C55.5673 261.692 55.8613 261.608 56.0853 261.44C56.3093 261.272 56.4866 261.043 56.6173 260.754C56.7479 260.465 56.8366 260.129 56.8833 259.746C56.9299 259.363 56.9533 258.957 56.9533 258.528ZM64.8949 255.812C64.8949 255.551 64.9322 255.345 65.0069 255.196C65.0815 255.037 65.2122 254.958 65.3989 254.958C65.5389 254.958 65.6742 254.963 65.8049 254.972C65.9355 254.981 66.0522 255.014 66.1549 255.07C66.2575 255.117 66.3415 255.201 66.4069 255.322C66.4722 255.434 66.5049 255.597 66.5049 255.812V261.3C66.5049 261.561 66.4675 261.767 66.3929 261.916C66.3182 262.065 66.1922 262.14 66.0149 262.14C65.8749 262.14 65.7442 262.14 65.6229 262.14C65.5015 262.149 65.3849 262.131 65.2729 262.084C65.1609 262.047 65.0535 261.972 64.9509 261.86C64.8482 261.748 64.7409 261.58 64.6289 261.356L62.2629 256.372V261.3C62.2629 261.561 62.2209 261.767 62.1369 261.916C62.0622 262.065 61.9409 262.14 61.7729 262.14C61.6329 262.14 61.4929 262.135 61.3529 262.126C61.2222 262.117 61.1055 262.084 61.0029 262.028C60.9002 261.981 60.8162 261.902 60.7509 261.79C60.6855 261.669 60.6529 261.501 60.6529 261.286V255.798C60.6529 255.537 60.6902 255.331 60.7649 255.182C60.8395 255.033 60.9655 254.958 61.1429 254.958C61.2829 254.958 61.4135 254.953 61.5349 254.944C61.6562 254.935 61.7729 254.949 61.8849 254.986C61.9969 255.023 62.1042 255.093 62.2069 255.196C62.3189 255.299 62.4262 255.462 62.5289 255.686L64.8949 260.684V255.812Z" fill="black"/>
<g clip-path="url(#clip0_662_41)" filter="url(#filter0_i_662_41)">
<path fill-rule="evenodd" clip-rule="evenodd" d="M72.875 250.971C72.875 245.553 77.1788 241.171 82.5 241.171C87.8212 241.171 92.125 245.553 92.125 250.971C92.125 256.809 86.0475 264.859 83.5588 267.925C83.0088 268.597 82.005 268.597 81.455 267.925C78.9525 264.859 72.875 256.809 72.875 250.971ZM79.0625 250.971C79.0625 252.903 80.6025 254.471 82.5 254.471C84.3975 254.471 85.9375 252.903 85.9375 250.971C85.9375 249.039 84.3975 247.471 82.5 247.471C80.6025 247.471 79.0625 249.039 79.0625 250.971Z" fill="#767A5C"/>
</g>
<path d="M151.905 344.17C151.905 344.562 151.9 344.945 151.891 345.318C151.882 345.691 151.947 346.023 152.087 346.312C152.208 346.555 152.414 346.741 152.703 346.872C152.992 346.993 153.314 347.101 153.669 347.194C154.033 347.278 154.411 347.371 154.803 347.474C155.195 347.577 155.55 347.731 155.867 347.936C156.194 348.132 156.46 348.403 156.665 348.748C156.87 349.093 156.973 349.555 156.973 350.134C156.973 350.545 156.912 350.918 156.791 351.254C156.67 351.599 156.502 351.893 156.287 352.136C156.072 352.388 155.816 352.584 155.517 352.724C155.218 352.864 154.892 352.934 154.537 352.934C154.369 352.934 154.243 352.873 154.159 352.752C154.075 352.64 154.033 352.491 154.033 352.304C154.033 352.089 154.08 351.94 154.173 351.856C154.266 351.781 154.383 351.73 154.523 351.702C154.672 351.683 154.826 351.669 154.985 351.66C155.153 351.651 155.307 351.604 155.447 351.52C155.596 351.445 155.718 351.31 155.811 351.114C155.904 350.927 155.951 350.643 155.951 350.26C155.951 349.999 155.9 349.798 155.797 349.658C155.704 349.527 155.573 349.429 155.405 349.364C155.246 349.299 155.06 349.257 154.845 349.238C154.64 349.229 154.42 349.215 154.187 349.196H154.089C153.482 349.196 152.913 349.065 152.381 348.804C151.849 348.543 151.387 348.183 150.995 347.726C150.603 347.269 150.29 346.737 150.057 346.13C149.833 345.523 149.721 344.87 149.721 344.17C149.721 343.47 149.833 342.817 150.057 342.21C150.29 341.603 150.603 341.071 150.995 340.614C151.387 340.157 151.849 339.797 152.381 339.536C152.913 339.275 153.482 339.144 154.089 339.144C154.574 339.144 155.013 339.2 155.405 339.312C155.797 339.424 156.133 339.578 156.413 339.774C156.693 339.961 156.908 340.18 157.057 340.432C157.206 340.675 157.281 340.931 157.281 341.202C157.281 341.407 157.262 341.571 157.225 341.692C157.188 341.813 157.136 341.911 157.071 341.986C157.006 342.051 156.931 342.098 156.847 342.126C156.763 342.145 156.679 342.154 156.595 342.154C156.315 342.154 156.11 342.098 155.979 341.986C155.858 341.865 155.764 341.72 155.699 341.552C155.634 341.375 155.582 341.183 155.545 340.978C155.508 340.773 155.442 340.586 155.349 340.418C155.256 340.241 155.111 340.096 154.915 339.984C154.728 339.863 154.453 339.802 154.089 339.802C153.678 339.802 153.333 339.919 153.053 340.152C152.782 340.376 152.558 340.689 152.381 341.09C152.213 341.482 152.092 341.944 152.017 342.476C151.942 343.008 151.905 343.573 151.905 344.17ZM164.317 342.812C164.317 342.551 164.354 342.345 164.429 342.196C164.513 342.047 164.644 341.972 164.821 341.972C164.961 341.972 165.096 341.977 165.227 341.986C165.367 341.995 165.488 342.028 165.591 342.084C165.694 342.131 165.778 342.215 165.843 342.336C165.908 342.448 165.941 342.611 165.941 342.826V346.214C165.941 346.849 165.838 347.362 165.633 347.754C165.437 348.137 165.176 348.431 164.849 348.636C164.532 348.841 164.172 348.977 163.771 349.042C163.379 349.107 162.987 349.14 162.595 349.14C162.287 349.14 161.942 349.117 161.559 349.07C161.186 349.023 160.831 348.916 160.495 348.748C160.168 348.58 159.893 348.333 159.669 348.006C159.445 347.67 159.333 347.217 159.333 346.648V342.812C159.333 342.551 159.37 342.345 159.445 342.196C159.52 342.047 159.646 341.972 159.823 341.972C159.963 341.972 160.098 341.977 160.229 341.986C160.369 341.995 160.49 342.028 160.593 342.084C160.696 342.131 160.78 342.215 160.845 342.336C160.91 342.448 160.943 342.611 160.943 342.826V346.746C160.943 347.325 161.092 347.796 161.391 348.16C161.699 348.515 162.1 348.692 162.595 348.692C162.931 348.692 163.206 348.613 163.421 348.454C163.645 348.295 163.822 348.095 163.953 347.852C164.084 347.6 164.177 347.329 164.233 347.04C164.289 346.741 164.317 346.457 164.317 346.186V342.812ZM171.53 343.876C171.53 343.559 171.488 343.307 171.404 343.12C171.33 342.933 171.227 342.793 171.096 342.7C170.975 342.607 170.84 342.56 170.69 342.56C170.55 342.551 170.41 342.565 170.27 342.602C170.13 342.639 170.004 342.695 169.892 342.77C169.78 342.835 169.701 342.901 169.654 342.966V345.29C169.944 345.29 170.2 345.276 170.424 345.248C170.658 345.211 170.854 345.141 171.012 345.038C171.18 344.935 171.306 344.795 171.39 344.618C171.484 344.431 171.53 344.184 171.53 343.876ZM169.654 348.328C169.626 348.515 169.575 348.659 169.5 348.762C169.435 348.865 169.351 348.944 169.248 349C169.155 349.047 169.048 349.075 168.926 349.084C168.805 349.093 168.674 349.098 168.534 349.098C168.357 349.098 168.231 349.028 168.156 348.888C168.082 348.739 168.044 348.529 168.044 348.258V342.812C168.044 342.597 168.077 342.434 168.142 342.322C168.208 342.201 168.292 342.117 168.394 342.07C168.497 342.014 168.614 341.981 168.744 341.972C168.884 341.963 169.024 341.958 169.164 341.958C169.332 341.958 169.444 342.019 169.5 342.14C169.566 342.261 169.608 342.397 169.626 342.546C169.738 342.406 169.92 342.285 170.172 342.182C170.434 342.07 170.732 342.014 171.068 342.014C171.33 342.014 171.586 342.042 171.838 342.098C172.09 342.145 172.31 342.229 172.496 342.35C172.692 342.471 172.846 342.639 172.958 342.854C173.08 343.059 173.14 343.321 173.14 343.638C173.14 343.806 173.103 343.983 173.028 344.17C172.954 344.347 172.842 344.525 172.692 344.702C172.543 344.87 172.361 345.029 172.146 345.178C171.932 345.318 171.684 345.43 171.404 345.514L173.308 348.048C173.598 348.44 173.71 348.711 173.644 348.86C173.579 349.009 173.355 349.084 172.972 349.084C172.888 349.084 172.814 349.084 172.748 349.084C172.683 349.084 172.618 349.075 172.552 349.056C172.487 349.037 172.417 349.005 172.342 348.958C172.277 348.911 172.198 348.837 172.104 348.734L170.158 345.668C170 345.668 169.832 345.654 169.654 345.626V348.328ZM179.296 347.166C179.249 347.101 179.207 347.035 179.17 346.97C179.133 346.914 179.086 346.849 179.03 346.774C178.983 346.699 178.937 346.625 178.89 346.55C178.769 346.373 178.633 346.163 178.484 345.92C178.204 346.461 177.896 346.905 177.56 347.25C177.233 347.595 176.813 347.847 176.3 348.006C176.505 348.109 176.734 348.174 176.986 348.202C177.238 348.221 177.495 348.197 177.756 348.132C178.017 348.067 178.279 347.959 178.54 347.81C178.801 347.651 179.053 347.437 179.296 347.166ZM176.594 343.092C176.37 342.747 176.286 342.485 176.342 342.308C176.407 342.121 176.603 342.028 176.93 342.028C177.145 342.028 177.317 342.042 177.448 342.07C177.588 342.089 177.719 342.187 177.84 342.364L181.564 347.964C181.797 348.319 181.9 348.589 181.872 348.776C181.844 348.963 181.615 349.056 181.186 349.056C180.971 349.056 180.794 349.037 180.654 349C180.523 348.953 180.402 348.841 180.29 348.664L179.45 347.404C179.03 347.889 178.54 348.281 177.98 348.58C177.429 348.869 176.888 349.014 176.356 349.014C175.964 349.014 175.661 348.972 175.446 348.888C175.241 348.795 175.138 348.669 175.138 348.51C175.138 348.295 175.199 348.146 175.32 348.062C175.451 347.978 175.595 347.894 175.754 347.81C176.053 347.651 176.305 347.469 176.51 347.264C176.725 347.059 176.902 346.83 177.042 346.578C177.191 346.317 177.313 346.037 177.406 345.738C177.499 345.43 177.583 345.094 177.658 344.73L176.594 343.092ZM187.344 348.02C187.344 348.216 187.302 348.393 187.218 348.552C187.134 348.701 187.031 348.832 186.91 348.944C186.788 349.056 186.653 349.14 186.504 349.196C186.364 349.252 186.238 349.28 186.126 349.28C185.958 349.28 185.85 349.201 185.804 349.042C185.757 348.883 185.734 348.683 185.734 348.44V342.532H184.404C184.348 342.803 184.254 343.022 184.124 343.19C183.993 343.358 183.797 343.442 183.536 343.442C183.256 343.442 183.064 343.377 182.962 343.246C182.868 343.106 182.822 342.957 182.822 342.798C182.822 342.583 182.878 342.406 182.99 342.266C183.102 342.117 183.307 342.042 183.606 342.042H189.486C189.775 342.042 189.976 342.117 190.088 342.266C190.209 342.406 190.27 342.583 190.27 342.798C190.27 342.957 190.218 343.106 190.116 343.246C190.013 343.377 189.822 343.442 189.542 343.442C189.28 343.442 189.084 343.358 188.954 343.19C188.823 343.022 188.73 342.803 188.674 342.532H187.344V348.02ZM201.168 347.642C201.168 347.913 201.116 348.155 201.014 348.37C200.911 348.585 200.78 348.771 200.622 348.93C200.472 349.079 200.309 349.191 200.132 349.266C199.954 349.35 199.796 349.392 199.656 349.392C199.441 349.392 199.301 349.28 199.236 349.056C199.18 348.841 199.152 348.566 199.152 348.23V340.012H197.5C197.425 340.385 197.304 340.693 197.136 340.936C196.977 341.169 196.734 341.286 196.408 341.286C196.23 341.286 196.086 341.263 195.974 341.216C195.862 341.16 195.768 341.09 195.694 341.006C195.628 340.922 195.582 340.829 195.554 340.726C195.526 340.614 195.512 340.502 195.512 340.39C195.512 340.091 195.582 339.844 195.722 339.648C195.871 339.443 196.128 339.34 196.492 339.34H203.842C204.206 339.34 204.458 339.443 204.598 339.648C204.747 339.844 204.822 340.091 204.822 340.39C204.822 340.605 204.756 340.81 204.626 341.006C204.504 341.193 204.271 341.286 203.926 341.286C203.599 341.286 203.352 341.169 203.184 340.936C203.025 340.693 202.908 340.385 202.834 340.012H201.168V347.642ZM208.168 345.92V348.3C208.168 348.552 208.126 348.753 208.042 348.902C207.967 349.051 207.846 349.126 207.678 349.126C207.538 349.126 207.398 349.121 207.258 349.112C207.127 349.103 207.011 349.07 206.908 349.014C206.805 348.967 206.721 348.888 206.656 348.776C206.591 348.664 206.558 348.501 206.558 348.286V342.812C206.558 342.551 206.595 342.345 206.67 342.196C206.745 342.047 206.871 341.972 207.048 341.972C207.188 341.972 207.323 341.977 207.454 341.986C207.594 341.995 207.715 342.028 207.818 342.084C207.921 342.131 208.005 342.215 208.07 342.336C208.135 342.448 208.168 342.611 208.168 342.826V345.43H210.8V342.812C210.8 342.551 210.837 342.345 210.912 342.196C210.987 342.047 211.117 341.972 211.304 341.972C211.444 341.972 211.579 341.977 211.71 341.986C211.841 341.995 211.957 342.028 212.06 342.084C212.163 342.131 212.247 342.215 212.312 342.336C212.377 342.448 212.41 342.611 212.41 342.826V348.3C212.41 348.552 212.373 348.753 212.298 348.902C212.223 349.051 212.097 349.126 211.92 349.126C211.78 349.126 211.645 349.121 211.514 349.112C211.383 349.103 211.262 349.07 211.15 349.014C211.047 348.967 210.963 348.888 210.898 348.776C210.833 348.664 210.8 348.501 210.8 348.286V345.92H208.168ZM218.193 347.166C218.146 347.101 218.104 347.035 218.067 346.97C218.029 346.914 217.983 346.849 217.927 346.774C217.88 346.699 217.833 346.625 217.787 346.55C217.665 346.373 217.53 346.163 217.381 345.92C217.101 346.461 216.793 346.905 216.457 347.25C216.13 347.595 215.71 347.847 215.197 348.006C215.402 348.109 215.631 348.174 215.883 348.202C216.135 348.221 216.391 348.197 216.653 348.132C216.914 348.067 217.175 347.959 217.437 347.81C217.698 347.651 217.95 347.437 218.193 347.166ZM215.491 343.092C215.267 342.747 215.183 342.485 215.239 342.308C215.304 342.121 215.5 342.028 215.827 342.028C216.041 342.028 216.214 342.042 216.345 342.07C216.485 342.089 216.615 342.187 216.737 342.364L220.461 347.964C220.694 348.319 220.797 348.589 220.769 348.776C220.741 348.963 220.512 349.056 220.083 349.056C219.868 349.056 219.691 349.037 219.551 349C219.42 348.953 219.299 348.841 219.187 348.664L218.347 347.404C217.927 347.889 217.437 348.281 216.877 348.58C216.326 348.869 215.785 349.014 215.253 349.014C214.861 349.014 214.557 348.972 214.343 348.888C214.137 348.795 214.035 348.669 214.035 348.51C214.035 348.295 214.095 348.146 214.217 348.062C214.347 347.978 214.492 347.894 214.651 347.81C214.949 347.651 215.201 347.469 215.407 347.264C215.621 347.059 215.799 346.83 215.939 346.578C216.088 346.317 216.209 346.037 216.303 345.738C216.396 345.43 216.48 345.094 216.555 344.73L215.491 343.092ZM226.632 342.812C226.632 342.551 226.67 342.345 226.744 342.196C226.819 342.037 226.95 341.958 227.136 341.958C227.276 341.958 227.412 341.963 227.542 341.972C227.673 341.981 227.79 342.014 227.892 342.07C227.995 342.117 228.079 342.201 228.144 342.322C228.21 342.434 228.242 342.597 228.242 342.812V348.3C228.242 348.561 228.205 348.767 228.13 348.916C228.056 349.065 227.93 349.14 227.752 349.14C227.612 349.14 227.482 349.14 227.36 349.14C227.239 349.149 227.122 349.131 227.01 349.084C226.898 349.047 226.791 348.972 226.688 348.86C226.586 348.748 226.478 348.58 226.366 348.356L224 343.372V348.3C224 348.561 223.958 348.767 223.874 348.916C223.8 349.065 223.678 349.14 223.51 349.14C223.37 349.14 223.23 349.135 223.09 349.126C222.96 349.117 222.843 349.084 222.74 349.028C222.638 348.981 222.554 348.902 222.488 348.79C222.423 348.669 222.39 348.501 222.39 348.286V342.798C222.39 342.537 222.428 342.331 222.502 342.182C222.577 342.033 222.703 341.958 222.88 341.958C223.02 341.958 223.151 341.953 223.272 341.944C223.394 341.935 223.51 341.949 223.622 341.986C223.734 342.023 223.842 342.093 223.944 342.196C224.056 342.299 224.164 342.462 224.266 342.686L226.632 347.684V342.812ZM230.539 342.812C230.539 342.551 230.576 342.345 230.651 342.196C230.725 342.047 230.851 341.972 231.029 341.972C231.169 341.972 231.304 341.977 231.435 341.986C231.575 341.995 231.696 342.028 231.799 342.084C231.901 342.131 231.985 342.215 232.051 342.336C232.116 342.448 232.149 342.611 232.149 342.826V348.3C232.149 348.552 232.107 348.753 232.023 348.902C231.948 349.051 231.827 349.126 231.659 349.126C231.519 349.126 231.379 349.121 231.239 349.112C231.108 349.103 230.991 349.07 230.889 349.014C230.786 348.967 230.702 348.888 230.637 348.776C230.571 348.664 230.539 348.501 230.539 348.286V342.812Z" fill="black"/>
<g filter="url(#filter1_i_662_41)">
<path fill-rule="evenodd" clip-rule="evenodd" d="M244.375 335.971C244.375 330.553 248.679 326.171 254 326.171C259.321 326.171 263.625 330.553 263.625 335.971C263.625 341.809 257.547 349.859 255.059 352.925C254.509 353.597 253.505 353.597 252.955 352.925C250.452 349.859 244.375 341.809 244.375 335.971ZM250.562 335.971C250.562 337.903 252.102 339.471 254 339.471C255.898 339.471 257.438 337.903 257.438 335.971C257.438 334.039 255.898 332.471 254 332.471C252.102 332.471 250.562 334.039 250.562 335.971Z" fill="#767A5C"/>
</g>
<path d="M280.866 393.322C280.866 392.725 280.824 392.258 280.74 391.922C280.656 391.577 280.549 391.334 280.418 391.194C280.288 391.045 280.143 390.97 279.984 390.97C279.826 390.97 279.672 391.012 279.522 391.096C279.373 391.171 279.238 391.273 279.116 391.404C278.995 391.525 278.906 391.628 278.85 391.712V396.598C279.578 396.365 280.096 395.973 280.404 395.422C280.712 394.871 280.866 394.171 280.866 393.322ZM276.834 391.32C276.834 390.965 276.881 390.685 276.974 390.48C277.077 390.265 277.236 390.158 277.45 390.158C277.628 390.158 277.796 390.167 277.954 390.186C278.113 390.205 278.253 390.242 278.374 390.298C278.496 390.354 278.594 390.443 278.668 390.564C278.752 390.676 278.804 390.83 278.822 391.026C278.888 390.933 278.976 390.835 279.088 390.732C279.2 390.629 279.326 390.536 279.466 390.452C279.616 390.359 279.779 390.284 279.956 390.228C280.134 390.172 280.33 390.144 280.544 390.144C280.89 390.144 281.207 390.195 281.496 390.298C281.786 390.391 282.033 390.545 282.238 390.76C282.444 390.975 282.602 391.25 282.714 391.586C282.826 391.922 282.882 392.323 282.882 392.79C282.882 393.033 282.845 393.345 282.77 393.728C282.705 394.101 282.532 394.498 282.252 394.918C281.982 395.338 281.576 395.749 281.034 396.15C280.502 396.542 279.774 396.869 278.85 397.13V402.884C278.85 403.22 278.818 403.495 278.752 403.71C278.696 403.934 278.561 404.046 278.346 404.046C278.206 404.046 278.048 404.004 277.87 403.92C277.693 403.845 277.525 403.729 277.366 403.57C277.217 403.421 277.091 403.239 276.988 403.024C276.886 402.809 276.834 402.567 276.834 402.296V391.32ZM288.236 398.166C288.189 398.101 288.147 398.035 288.11 397.97C288.072 397.914 288.026 397.849 287.97 397.774C287.923 397.699 287.876 397.625 287.83 397.55C287.708 397.373 287.573 397.163 287.424 396.92C287.144 397.461 286.836 397.905 286.5 398.25C286.173 398.595 285.753 398.847 285.24 399.006C285.445 399.109 285.674 399.174 285.926 399.202C286.178 399.221 286.434 399.197 286.696 399.132C286.957 399.067 287.218 398.959 287.48 398.81C287.741 398.651 287.993 398.437 288.236 398.166ZM285.534 394.092C285.31 393.747 285.226 393.485 285.282 393.308C285.347 393.121 285.543 393.028 285.87 393.028C286.084 393.028 286.257 393.042 286.388 393.07C286.528 393.089 286.658 393.187 286.78 393.364L290.504 398.964C290.737 399.319 290.84 399.589 290.812 399.776C290.784 399.963 290.555 400.056 290.126 400.056C289.911 400.056 289.734 400.037 289.594 400C289.463 399.953 289.342 399.841 289.23 399.664L288.39 398.404C287.97 398.889 287.48 399.281 286.92 399.58C286.369 399.869 285.828 400.014 285.296 400.014C284.904 400.014 284.6 399.972 284.386 399.888C284.18 399.795 284.078 399.669 284.078 399.51C284.078 399.295 284.138 399.146 284.26 399.062C284.39 398.978 284.535 398.894 284.694 398.81C284.992 398.651 285.244 398.469 285.45 398.264C285.664 398.059 285.842 397.83 285.982 397.578C286.131 397.317 286.252 397.037 286.346 396.738C286.439 396.43 286.523 396.094 286.598 395.73L285.534 394.092ZM296.283 399.02C296.283 399.216 296.241 399.393 296.157 399.552C296.073 399.701 295.97 399.832 295.849 399.944C295.728 400.056 295.592 400.14 295.443 400.196C295.303 400.252 295.177 400.28 295.065 400.28C294.897 400.28 294.79 400.201 294.743 400.042C294.696 399.883 294.673 399.683 294.673 399.44V393.532H293.343C293.287 393.803 293.194 394.022 293.063 394.19C292.932 394.358 292.736 394.442 292.475 394.442C292.195 394.442 292.004 394.377 291.901 394.246C291.808 394.106 291.761 393.957 291.761 393.798C291.761 393.583 291.817 393.406 291.929 393.266C292.041 393.117 292.246 393.042 292.545 393.042H298.425C298.714 393.042 298.915 393.117 299.027 393.266C299.148 393.406 299.209 393.583 299.209 393.798C299.209 393.957 299.158 394.106 299.055 394.246C298.952 394.377 298.761 394.442 298.481 394.442C298.22 394.442 298.024 394.358 297.893 394.19C297.762 394.022 297.669 393.803 297.613 393.532H296.283V399.02ZM304.664 399.02C304.664 399.216 304.622 399.393 304.538 399.552C304.454 399.701 304.351 399.832 304.23 399.944C304.109 400.056 303.973 400.14 303.824 400.196C303.684 400.252 303.558 400.28 303.446 400.28C303.278 400.28 303.171 400.201 303.124 400.042C303.077 399.883 303.054 399.683 303.054 399.44V393.532H301.724C301.668 393.803 301.575 394.022 301.444 394.19C301.313 394.358 301.117 394.442 300.856 394.442C300.576 394.442 300.385 394.377 300.282 394.246C300.189 394.106 300.142 393.957 300.142 393.798C300.142 393.583 300.198 393.406 300.31 393.266C300.422 393.117 300.627 393.042 300.926 393.042H306.806C307.095 393.042 307.296 393.117 307.408 393.266C307.529 393.406 307.59 393.583 307.59 393.798C307.59 393.957 307.539 394.106 307.436 394.246C307.333 394.377 307.142 394.442 306.862 394.442C306.601 394.442 306.405 394.358 306.274 394.19C306.143 394.022 306.05 393.803 305.994 393.532H304.664V399.02ZM312.681 398.166C312.634 398.101 312.592 398.035 312.555 397.97C312.518 397.914 312.471 397.849 312.415 397.774C312.368 397.699 312.322 397.625 312.275 397.55C312.154 397.373 312.018 397.163 311.869 396.92C311.589 397.461 311.281 397.905 310.945 398.25C310.618 398.595 310.198 398.847 309.685 399.006C309.89 399.109 310.119 399.174 310.371 399.202C310.623 399.221 310.88 399.197 311.141 399.132C311.402 399.067 311.664 398.959 311.925 398.81C312.186 398.651 312.438 398.437 312.681 398.166ZM309.979 394.092C309.755 393.747 309.671 393.485 309.727 393.308C309.792 393.121 309.988 393.028 310.315 393.028C310.53 393.028 310.702 393.042 310.833 393.07C310.973 393.089 311.104 393.187 311.225 393.364L314.949 398.964C315.182 399.319 315.285 399.589 315.257 399.776C315.229 399.963 315 400.056 314.571 400.056C314.356 400.056 314.179 400.037 314.039 400C313.908 399.953 313.787 399.841 313.675 399.664L312.835 398.404C312.415 398.889 311.925 399.281 311.365 399.58C310.814 399.869 310.273 400.014 309.741 400.014C309.349 400.014 309.046 399.972 308.831 399.888C308.626 399.795 308.523 399.669 308.523 399.51C308.523 399.295 308.584 399.146 308.705 399.062C308.836 398.978 308.98 398.894 309.139 398.81C309.438 398.651 309.69 398.469 309.895 398.264C310.11 398.059 310.287 397.83 310.427 397.578C310.576 397.317 310.698 397.037 310.791 396.738C310.884 396.43 310.968 396.094 311.043 395.73L309.979 394.092ZM316.878 392.986C316.934 392.986 316.99 392.986 317.046 392.986C317.102 392.977 317.158 392.986 317.214 393.014C317.28 393.033 317.345 393.075 317.41 393.14C317.485 393.196 317.574 393.289 317.676 393.42L320.504 397.214L322.646 394.624C322.646 394.279 322.66 394.003 322.688 393.798C322.726 393.583 322.777 393.42 322.842 393.308C322.917 393.196 323.006 393.121 323.108 393.084C323.22 393.047 323.351 393.028 323.5 393.028C323.743 393.028 323.92 393.107 324.032 393.266C324.144 393.415 324.2 393.667 324.2 394.022C324.2 394.358 324.102 394.629 323.906 394.834C323.72 395.03 323.43 395.128 323.038 395.128L320.924 397.648V401.652C320.924 401.848 320.882 402.021 320.798 402.17C320.714 402.329 320.612 402.464 320.49 402.576C320.369 402.688 320.238 402.772 320.098 402.828C319.958 402.884 319.832 402.912 319.72 402.912C319.552 402.912 319.44 402.833 319.384 402.674C319.338 402.515 319.314 402.315 319.314 402.072V397.998L316.864 394.582C316.687 394.554 316.533 394.479 316.402 394.358C316.272 394.227 316.206 394.045 316.206 393.812C316.206 393.513 316.258 393.303 316.36 393.182C316.463 393.051 316.636 392.986 316.878 392.986ZM329.292 398.166C329.246 398.101 329.204 398.035 329.166 397.97C329.129 397.914 329.082 397.849 329.026 397.774C328.98 397.699 328.933 397.625 328.886 397.55C328.765 397.373 328.63 397.163 328.48 396.92C328.2 397.461 327.892 397.905 327.556 398.25C327.23 398.595 326.81 398.847 326.296 399.006C326.502 399.109 326.73 399.174 326.982 399.202C327.234 399.221 327.491 399.197 327.752 399.132C328.014 399.067 328.275 398.959 328.536 398.81C328.798 398.651 329.05 398.437 329.292 398.166ZM326.59 394.092C326.366 393.747 326.282 393.485 326.338 393.308C326.404 393.121 326.6 393.028 326.926 393.028C327.141 393.028 327.314 393.042 327.444 393.07C327.584 393.089 327.715 393.187 327.836 393.364L331.56 398.964C331.794 399.319 331.896 399.589 331.868 399.776C331.84 399.963 331.612 400.056 331.182 400.056C330.968 400.056 330.79 400.037 330.65 400C330.52 399.953 330.398 399.841 330.286 399.664L329.446 398.404C329.026 398.889 328.536 399.281 327.976 399.58C327.426 399.869 326.884 400.014 326.352 400.014C325.96 400.014 325.657 399.972 325.442 399.888C325.237 399.795 325.134 399.669 325.134 399.51C325.134 399.295 325.195 399.146 325.316 399.062C325.447 398.978 325.592 398.894 325.75 398.81C326.049 398.651 326.301 398.469 326.506 398.264C326.721 398.059 326.898 397.83 327.038 397.578C327.188 397.317 327.309 397.037 327.402 396.738C327.496 396.43 327.58 396.094 327.654 395.73L326.59 394.092Z" fill="black"/>
<g clip-path="url(#clip1_662_41)" filter="url(#filter2_i_662_41)">
<path fill-rule="evenodd" clip-rule="evenodd" d="M348.875 390.971C348.875 385.553 353.179 381.171 358.5 381.171C363.821 381.171 368.125 385.553 368.125 390.971C368.125 396.809 362.047 404.859 359.559 407.925C359.009 408.597 358.005 408.597 357.455 407.925C354.952 404.859 348.875 396.809 348.875 390.971ZM355.062 390.971C355.062 392.903 356.602 394.471 358.5 394.471C360.398 394.471 361.938 392.903 361.938 390.971C361.938 389.039 360.398 387.471 358.5 387.471C356.602 387.471 355.062 389.039 355.062 390.971Z" fill="#767A5C"/>
</g>
<path d="M383.178 339.034C383.178 339.799 382.973 340.182 382.562 340.182C382.385 340.182 382.212 340.173 382.044 340.154C381.876 340.145 381.727 340.103 381.596 340.028C381.466 339.963 381.358 339.851 381.274 339.692C381.2 339.533 381.162 339.305 381.162 339.006V331.404C381.162 331.049 381.209 330.769 381.302 330.564C381.405 330.349 381.564 330.242 381.778 330.242C381.956 330.242 382.128 330.251 382.296 330.27C382.464 330.279 382.614 330.321 382.744 330.396C382.875 330.471 382.978 330.587 383.052 330.746C383.136 330.905 383.178 331.133 383.178 331.432V335.688L385.67 332.832C385.67 332.337 385.684 331.922 385.712 331.586C385.75 331.25 385.806 330.984 385.88 330.788C385.964 330.583 386.072 330.438 386.202 330.354C386.342 330.27 386.515 330.228 386.72 330.228C387 330.228 387.215 330.298 387.364 330.438C387.523 330.569 387.602 330.751 387.602 330.984C387.602 331.152 387.57 331.306 387.504 331.446C387.439 331.586 387.341 331.731 387.21 331.88C387.089 332.02 386.935 332.183 386.748 332.37C386.571 332.547 386.37 332.767 386.146 333.028L384.704 334.708L388.288 338.684C388.708 339.151 388.858 339.505 388.736 339.748C388.624 339.991 388.33 340.112 387.854 340.112C387.752 340.112 387.658 340.112 387.574 340.112C387.49 340.112 387.406 340.098 387.322 340.07C387.248 340.042 387.164 339.995 387.07 339.93C386.986 339.865 386.888 339.767 386.776 339.636L383.598 335.954L383.178 336.458V339.034ZM397.751 336.528C397.751 337.032 397.658 337.503 397.471 337.942C397.294 338.381 397.046 338.763 396.729 339.09C396.412 339.417 396.038 339.673 395.609 339.86C395.189 340.047 394.736 340.14 394.251 340.14C393.766 340.14 393.308 340.047 392.879 339.86C392.459 339.673 392.09 339.417 391.773 339.09C391.465 338.763 391.218 338.381 391.031 337.942C390.854 337.503 390.765 337.032 390.765 336.528C390.765 336.024 390.854 335.553 391.031 335.114C391.218 334.675 391.465 334.293 391.773 333.966C392.09 333.63 392.459 333.369 392.879 333.182C393.308 332.995 393.766 332.902 394.251 332.902C394.736 332.902 395.189 332.995 395.609 333.182C396.038 333.369 396.412 333.63 396.729 333.966C397.046 334.293 397.294 334.675 397.471 335.114C397.658 335.553 397.751 336.024 397.751 336.528ZM396.001 336.528C396.001 336.099 395.968 335.693 395.903 335.31C395.847 334.918 395.749 334.582 395.609 334.302C395.478 334.013 395.301 333.784 395.077 333.616C394.853 333.448 394.578 333.364 394.251 333.364C393.924 333.364 393.649 333.448 393.425 333.616C393.201 333.784 393.019 334.013 392.879 334.302C392.748 334.582 392.65 334.918 392.585 335.31C392.529 335.693 392.501 336.099 392.501 336.528C392.501 336.957 392.529 337.363 392.585 337.746C392.65 338.129 392.748 338.465 392.879 338.754C393.019 339.043 393.201 339.272 393.425 339.44C393.649 339.608 393.924 339.692 394.251 339.692C394.615 339.692 394.909 339.608 395.133 339.44C395.357 339.272 395.534 339.043 395.665 338.754C395.796 338.465 395.884 338.129 395.931 337.746C395.978 337.363 396.001 336.957 396.001 336.528ZM401.311 336.92V339.3C401.311 339.552 401.269 339.753 401.185 339.902C401.11 340.051 400.989 340.126 400.821 340.126C400.681 340.126 400.541 340.121 400.401 340.112C400.27 340.103 400.153 340.07 400.051 340.014C399.948 339.967 399.864 339.888 399.799 339.776C399.733 339.664 399.701 339.501 399.701 339.286V333.812C399.701 333.551 399.738 333.345 399.813 333.196C399.887 333.047 400.013 332.972 400.191 332.972C400.331 332.972 400.466 332.977 400.597 332.986C400.737 332.995 400.858 333.028 400.961 333.084C401.063 333.131 401.147 333.215 401.213 333.336C401.278 333.448 401.311 333.611 401.311 333.826V336.43H403.943V333.812C403.943 333.551 403.98 333.345 404.055 333.196C404.129 333.047 404.26 332.972 404.447 332.972C404.587 332.972 404.722 332.977 404.853 332.986C404.983 332.995 405.1 333.028 405.203 333.084C405.305 333.131 405.389 333.215 405.455 333.336C405.52 333.448 405.553 333.611 405.553 333.826V339.3C405.553 339.552 405.515 339.753 405.441 339.902C405.366 340.051 405.24 340.126 405.063 340.126C404.923 340.126 404.787 340.121 404.657 340.112C404.526 340.103 404.405 340.07 404.293 340.014C404.19 339.967 404.106 339.888 404.041 339.776C403.975 339.664 403.943 339.501 403.943 339.286V336.92H401.311ZM414.09 335.17C414.09 335.562 414.086 335.945 414.076 336.318C414.067 336.691 414.132 337.023 414.272 337.312C414.394 337.555 414.599 337.741 414.888 337.872C415.178 337.993 415.5 338.101 415.854 338.194C416.218 338.278 416.596 338.371 416.988 338.474C417.38 338.577 417.735 338.731 418.052 338.936C418.379 339.132 418.645 339.403 418.85 339.748C419.056 340.093 419.158 340.555 419.158 341.134C419.158 341.545 419.098 341.918 418.976 342.254C418.855 342.599 418.687 342.893 418.472 343.136C418.258 343.388 418.001 343.584 417.702 343.724C417.404 343.864 417.077 343.934 416.722 343.934C416.554 343.934 416.428 343.873 416.344 343.752C416.26 343.64 416.218 343.491 416.218 343.304C416.218 343.089 416.265 342.94 416.358 342.856C416.452 342.781 416.568 342.73 416.708 342.702C416.858 342.683 417.012 342.669 417.17 342.66C417.338 342.651 417.492 342.604 417.632 342.52C417.782 342.445 417.903 342.31 417.996 342.114C418.09 341.927 418.136 341.643 418.136 341.26C418.136 340.999 418.085 340.798 417.982 340.658C417.889 340.527 417.758 340.429 417.59 340.364C417.432 340.299 417.245 340.257 417.03 340.238C416.825 340.229 416.606 340.215 416.372 340.196H416.274C415.668 340.196 415.098 340.065 414.566 339.804C414.034 339.543 413.572 339.183 413.18 338.726C412.788 338.269 412.476 337.737 412.242 337.13C412.018 336.523 411.906 335.87 411.906 335.17C411.906 334.47 412.018 333.817 412.242 333.21C412.476 332.603 412.788 332.071 413.18 331.614C413.572 331.157 414.034 330.797 414.566 330.536C415.098 330.275 415.668 330.144 416.274 330.144C416.76 330.144 417.198 330.2 417.59 330.312C417.982 330.424 418.318 330.578 418.598 330.774C418.878 330.961 419.093 331.18 419.242 331.432C419.392 331.675 419.466 331.931 419.466 332.202C419.466 332.407 419.448 332.571 419.41 332.692C419.373 332.813 419.322 332.911 419.256 332.986C419.191 333.051 419.116 333.098 419.032 333.126C418.948 333.145 418.864 333.154 418.78 333.154C418.5 333.154 418.295 333.098 418.164 332.986C418.043 332.865 417.95 332.72 417.884 332.552C417.819 332.375 417.768 332.183 417.73 331.978C417.693 331.773 417.628 331.586 417.534 331.418C417.441 331.241 417.296 331.096 417.1 330.984C416.914 330.863 416.638 330.802 416.274 330.802C415.864 330.802 415.518 330.919 415.238 331.152C414.968 331.376 414.744 331.689 414.566 332.09C414.398 332.482 414.277 332.944 414.202 333.476C414.128 334.008 414.09 334.573 414.09 335.17ZM425.116 338.166C425.07 338.101 425.028 338.035 424.99 337.97C424.953 337.914 424.906 337.849 424.85 337.774C424.804 337.699 424.757 337.625 424.71 337.55C424.589 337.373 424.454 337.163 424.304 336.92C424.024 337.461 423.716 337.905 423.38 338.25C423.054 338.595 422.634 338.847 422.12 339.006C422.326 339.109 422.554 339.174 422.806 339.202C423.058 339.221 423.315 339.197 423.576 339.132C423.838 339.067 424.099 338.959 424.36 338.81C424.622 338.651 424.874 338.437 425.116 338.166ZM422.414 334.092C422.19 333.747 422.106 333.485 422.162 333.308C422.228 333.121 422.424 333.028 422.75 333.028C422.965 333.028 423.138 333.042 423.268 333.07C423.408 333.089 423.539 333.187 423.66 333.364L427.384 338.964C427.618 339.319 427.72 339.589 427.692 339.776C427.664 339.963 427.436 340.056 427.006 340.056C426.792 340.056 426.614 340.037 426.474 340C426.344 339.953 426.222 339.841 426.11 339.664L425.27 338.404C424.85 338.889 424.36 339.281 423.8 339.58C423.25 339.869 422.708 340.014 422.176 340.014C421.784 340.014 421.481 339.972 421.266 339.888C421.061 339.795 420.958 339.669 420.958 339.51C420.958 339.295 421.019 339.146 421.14 339.062C421.271 338.978 421.416 338.894 421.574 338.81C421.873 338.651 422.125 338.469 422.33 338.264C422.545 338.059 422.722 337.83 422.862 337.578C423.012 337.317 423.133 337.037 423.226 336.738C423.32 336.43 423.404 336.094 423.478 335.73L422.414 334.092ZM436.37 339.3C436.37 339.561 436.333 339.767 436.258 339.916C436.183 340.065 436.057 340.14 435.88 340.14C435.74 340.14 435.605 340.135 435.474 340.126C435.343 340.117 435.222 340.084 435.11 340.028C435.007 339.981 434.923 339.902 434.858 339.79C434.793 339.669 434.76 339.501 434.76 339.286V334.582L432.856 337.466L430.924 335.058V339.3C430.924 339.561 430.882 339.767 430.798 339.916C430.723 340.065 430.602 340.14 430.434 340.14C430.294 340.14 430.154 340.135 430.014 340.126C429.883 340.117 429.767 340.084 429.664 340.028C429.561 339.981 429.477 339.902 429.412 339.79C429.347 339.669 429.314 339.501 429.314 339.286V333.798C429.314 333.537 429.365 333.331 429.468 333.182C429.571 333.033 429.711 332.958 429.888 332.958C430.056 332.958 430.201 332.963 430.322 332.972C430.453 332.972 430.574 332.995 430.686 333.042C430.798 333.089 430.91 333.168 431.022 333.28C431.143 333.383 431.283 333.532 431.442 333.728L433.192 335.884L434.704 333.658C434.695 333.425 434.746 333.252 434.858 333.14C434.97 333.019 435.119 332.958 435.306 332.958C435.446 332.958 435.577 332.963 435.698 332.972C435.829 332.981 435.941 333.014 436.034 333.07C436.137 333.117 436.216 333.201 436.272 333.322C436.337 333.434 436.37 333.597 436.37 333.812V339.3ZM443.538 333.812C443.538 333.551 443.575 333.345 443.65 333.196C443.734 333.047 443.864 332.972 444.042 332.972C444.182 332.972 444.317 332.977 444.448 332.986C444.588 332.995 444.709 333.028 444.812 333.084C444.914 333.131 444.998 333.215 445.064 333.336C445.129 333.448 445.162 333.611 445.162 333.826V337.214C445.162 337.849 445.059 338.362 444.854 338.754C444.658 339.137 444.396 339.431 444.07 339.636C443.752 339.841 443.393 339.977 442.992 340.042C442.6 340.107 442.208 340.14 441.816 340.14C441.508 340.14 441.162 340.117 440.78 340.07C440.406 340.023 440.052 339.916 439.716 339.748C439.389 339.58 439.114 339.333 438.89 339.006C438.666 338.67 438.554 338.217 438.554 337.648V333.812C438.554 333.551 438.591 333.345 438.666 333.196C438.74 333.047 438.866 332.972 439.044 332.972C439.184 332.972 439.319 332.977 439.45 332.986C439.59 332.995 439.711 333.028 439.814 333.084C439.916 333.131 440 333.215 440.066 333.336C440.131 333.448 440.164 333.611 440.164 333.826V337.746C440.164 338.325 440.313 338.796 440.612 339.16C440.92 339.515 441.321 339.692 441.816 339.692C442.152 339.692 442.427 339.613 442.642 339.454C442.866 339.295 443.043 339.095 443.174 338.852C443.304 338.6 443.398 338.329 443.454 338.04C443.51 337.741 443.538 337.457 443.538 337.186V333.812ZM447.265 333.812C447.265 333.551 447.303 333.345 447.377 333.196C447.452 333.047 447.578 332.972 447.755 332.972C447.895 332.972 448.031 332.977 448.161 332.986C448.301 332.995 448.423 333.028 448.525 333.084C448.628 333.131 448.712 333.215 448.777 333.336C448.843 333.448 448.875 333.611 448.875 333.826V339.3C448.875 339.552 448.833 339.753 448.749 339.902C448.675 340.051 448.553 340.126 448.385 340.126C448.245 340.126 448.105 340.121 447.965 340.112C447.835 340.103 447.718 340.07 447.615 340.014C447.513 339.967 447.429 339.888 447.363 339.776C447.298 339.664 447.265 339.501 447.265 339.286V333.812Z" fill="black"/>
<g filter="url(#filter3_i_662_41)">
<path fill-rule="evenodd" clip-rule="evenodd" d="M462.375 326.971C462.375 321.553 466.679 317.171 472 317.171C477.321 317.171 481.625 321.553 481.625 326.971C481.625 332.809 475.547 340.859 473.059 343.925C472.509 344.597 471.505 344.597 470.955 343.925C468.452 340.859 462.375 332.809 462.375 326.971ZM468.562 326.971C468.562 328.903 470.102 330.471 472 330.471C473.898 330.471 475.438 328.903 475.438 326.971C475.438 325.039 473.898 323.471 472 323.471C470.102 323.471 468.562 325.039 468.562 326.971Z" fill="#767A5C"/>
</g>
<g clip-path="url(#clip2_662_41)" filter="url(#filter4_i_662_41)">
<path fill-rule="evenodd" clip-rule="evenodd" d="M283.875 9.9709C283.875 4.5529 288.179 0.170898 293.5 0.170898C298.821 0.170898 303.125 4.5529 303.125 9.9709C303.125 15.8089 297.047 23.8589 294.559 26.9249C294.009 27.5969 293.005 27.5969 292.455 26.9249C289.952 23.8589 283.875 15.8089 283.875 9.9709ZM290.062 9.9709C290.062 11.9029 291.602 13.4709 293.5 13.4709C295.398 13.4709 296.938 11.9029 296.938 9.9709C296.938 8.0389 295.398 6.4709 293.5 6.4709C291.602 6.4709 290.062 8.0389 290.062 9.9709Z" fill="#767A5C"/>
</g>
<path d="M317.641 16.606C317.641 15.7567 317.431 15.108 317.011 14.66C316.591 14.212 316.017 13.988 315.289 13.988V17.726C315.345 17.81 315.443 17.908 315.583 18.02C315.723 18.1227 315.877 18.2067 316.045 18.272C316.222 18.3373 316.404 18.37 316.591 18.37C316.777 18.37 316.95 18.314 317.109 18.202C317.267 18.09 317.393 17.908 317.487 17.656C317.589 17.404 317.641 17.054 317.641 16.606ZM315.289 13.414C315.727 13.3113 316.091 13.092 316.381 12.756C316.679 12.4107 316.829 11.9533 316.829 11.384C316.829 10.9173 316.777 10.5767 316.675 10.362C316.572 10.138 316.441 10.0027 316.283 9.956C316.133 9.9 315.965 9.90933 315.779 9.984C315.601 10.0587 315.438 10.1567 315.289 10.278V13.414ZM314.673 19.112C314.495 19.112 314.323 19.1027 314.155 19.084C313.987 19.0747 313.837 19.0373 313.707 18.972C313.576 18.8973 313.469 18.7807 313.385 18.622C313.31 18.4633 313.273 18.2347 313.273 17.936V10.376C313.273 10.012 313.319 9.72733 313.413 9.522C313.515 9.31667 313.674 9.214 313.889 9.214C314.066 9.214 314.229 9.21867 314.379 9.228C314.537 9.23733 314.673 9.26533 314.785 9.312C314.906 9.35867 315.004 9.42867 315.079 9.522C315.163 9.606 315.214 9.732 315.233 9.9C315.531 9.62933 315.797 9.438 316.031 9.326C316.273 9.20467 316.558 9.144 316.885 9.144C317.09 9.144 317.295 9.16733 317.501 9.214C317.715 9.26067 317.907 9.34933 318.075 9.48C318.252 9.60133 318.397 9.77867 318.509 10.012C318.621 10.2453 318.677 10.5487 318.677 10.922C318.677 11.1833 318.621 11.454 318.509 11.734C318.406 12.014 318.247 12.28 318.033 12.532C317.827 12.784 317.566 13.008 317.249 13.204C316.941 13.3907 316.586 13.526 316.185 13.61C316.885 13.6567 317.459 13.806 317.907 14.058C318.355 14.31 318.705 14.6087 318.957 14.954C319.218 15.29 319.4 15.64 319.503 16.004C319.605 16.368 319.657 16.6807 319.657 16.942C319.657 17.3807 319.582 17.7447 319.433 18.034C319.293 18.3233 319.101 18.5567 318.859 18.734C318.616 18.902 318.336 19.0187 318.019 19.084C317.711 19.1587 317.393 19.196 317.067 19.196C316.852 19.196 316.651 19.168 316.465 19.112C316.278 19.056 316.105 18.986 315.947 18.902C315.797 18.8087 315.662 18.7107 315.541 18.608C315.419 18.5053 315.326 18.4073 315.261 18.314C315.242 18.51 315.191 18.692 315.107 18.86C315.032 19.028 314.887 19.112 314.673 19.112ZM325.467 17.166C325.42 17.1007 325.378 17.0353 325.341 16.97C325.304 16.914 325.257 16.8487 325.201 16.774C325.154 16.6993 325.108 16.6247 325.061 16.55C324.94 16.3727 324.804 16.1627 324.655 15.92C324.375 16.4613 324.067 16.9047 323.731 17.25C323.404 17.5953 322.984 17.8473 322.471 18.006C322.676 18.1087 322.905 18.174 323.157 18.202C323.409 18.2207 323.666 18.1973 323.927 18.132C324.188 18.0667 324.45 17.9593 324.711 17.81C324.972 17.6513 325.224 17.4367 325.467 17.166ZM322.765 13.092C322.541 12.7467 322.457 12.4853 322.513 12.308C322.578 12.1213 322.774 12.028 323.101 12.028C323.316 12.028 323.488 12.042 323.619 12.07C323.759 12.0887 323.89 12.1867 324.011 12.364L327.735 17.964C327.968 18.3187 328.071 18.5893 328.043 18.776C328.015 18.9627 327.786 19.056 327.357 19.056C327.142 19.056 326.965 19.0373 326.825 19C326.694 18.9533 326.573 18.8413 326.461 18.664L325.621 17.404C325.201 17.8893 324.711 18.2813 324.151 18.58C323.6 18.8693 323.059 19.014 322.527 19.014C322.135 19.014 321.832 18.972 321.617 18.888C321.412 18.7947 321.309 18.6687 321.309 18.51C321.309 18.2953 321.37 18.146 321.491 18.062C321.622 17.978 321.766 17.894 321.925 17.81C322.224 17.6513 322.476 17.4693 322.681 17.264C322.896 17.0587 323.073 16.83 323.213 16.578C323.362 16.3167 323.484 16.0367 323.577 15.738C323.67 15.43 323.754 15.094 323.829 14.73L322.765 13.092ZM333.907 12.812C333.907 12.5507 333.944 12.3453 334.019 12.196C334.093 12.0373 334.224 11.958 334.411 11.958C334.551 11.958 334.686 11.9627 334.817 11.972C334.947 11.9813 335.064 12.014 335.167 12.07C335.269 12.1167 335.353 12.2007 335.419 12.322C335.484 12.434 335.517 12.5973 335.517 12.812V18.3C335.517 18.5613 335.479 18.7667 335.405 18.916C335.33 19.0653 335.204 19.14 335.027 19.14C334.887 19.14 334.756 19.14 334.635 19.14C334.513 19.1493 334.397 19.1307 334.285 19.084C334.173 19.0467 334.065 18.972 333.963 18.86C333.86 18.748 333.753 18.58 333.641 18.356L331.275 13.372V18.3C331.275 18.5613 331.233 18.7667 331.149 18.916C331.074 19.0653 330.953 19.14 330.785 19.14C330.645 19.14 330.505 19.1353 330.365 19.126C330.234 19.1167 330.117 19.084 330.015 19.028C329.912 18.9813 329.828 18.902 329.763 18.79C329.697 18.6687 329.665 18.5007 329.665 18.286V12.798C329.665 12.5367 329.702 12.3313 329.777 12.182C329.851 12.0327 329.977 11.958 330.155 11.958C330.295 11.958 330.425 11.9533 330.547 11.944C330.668 11.9347 330.785 11.9487 330.897 11.986C331.009 12.0233 331.116 12.0933 331.219 12.196C331.331 12.2987 331.438 12.462 331.541 12.686L333.907 17.684V12.812ZM342.517 15.276C342.536 15.276 342.568 15.276 342.615 15.276C342.671 15.2667 342.727 15.262 342.783 15.262C342.839 15.2527 342.89 15.248 342.937 15.248C342.993 15.2387 343.035 15.234 343.063 15.234C343.175 15.234 343.296 15.262 343.427 15.318C343.558 15.374 343.628 15.4673 343.637 15.598C343.665 15.6727 343.679 15.8407 343.679 16.102C343.688 16.354 343.684 16.6153 343.665 16.886L343.693 18.664C343.693 18.7947 343.642 18.8973 343.539 18.972C343.446 19.0373 343.338 19.07 343.217 19.07C343.114 19.07 343.04 19.0093 342.993 18.888C342.956 18.7667 342.928 18.6547 342.909 18.552C342.825 18.664 342.708 18.762 342.559 18.846C342.419 18.9207 342.256 18.9767 342.069 19.014C341.892 19.0607 341.705 19.0933 341.509 19.112C341.322 19.1307 341.14 19.14 340.963 19.14C340.478 19.14 340.02 19.0467 339.591 18.86C339.171 18.664 338.802 18.4027 338.485 18.076C338.177 17.7493 337.93 17.3713 337.743 16.942C337.566 16.5033 337.477 16.032 337.477 15.528C337.477 15.024 337.566 14.5527 337.743 14.114C337.93 13.6753 338.177 13.2927 338.485 12.966C338.802 12.63 339.171 12.3687 339.591 12.182C340.02 11.9953 340.478 11.902 340.963 11.902C341.355 11.902 341.705 11.944 342.013 12.028C342.33 12.112 342.601 12.224 342.825 12.364C343.049 12.4947 343.222 12.6487 343.343 12.826C343.464 13.0033 343.525 13.19 343.525 13.386C343.525 13.6847 343.464 13.876 343.343 13.96C343.231 14.0347 343.105 14.072 342.965 14.072C342.741 14.072 342.578 14.03 342.475 13.946C342.382 13.862 342.307 13.7593 342.251 13.638C342.204 13.5073 342.162 13.372 342.125 13.232C342.097 13.0827 342.046 12.9473 341.971 12.826C341.896 12.6953 341.78 12.588 341.621 12.504C341.472 12.42 341.252 12.378 340.963 12.378C340.636 12.378 340.361 12.462 340.137 12.63C339.913 12.7887 339.731 13.0127 339.591 13.302C339.46 13.5913 339.362 13.9273 339.297 14.31C339.241 14.6927 339.213 15.0987 339.213 15.528C339.213 15.9573 339.241 16.3633 339.297 16.746C339.362 17.1287 339.465 17.4647 339.605 17.754C339.745 18.034 339.927 18.258 340.151 18.426C340.375 18.5847 340.65 18.664 340.977 18.664C341.36 18.664 341.658 18.6127 341.873 18.51C342.097 18.4073 342.26 18.2767 342.363 18.118C342.466 17.9593 342.526 17.7867 342.545 17.6C342.573 17.4133 342.582 17.2313 342.573 17.054V16.144H340.837C340.678 16.144 340.562 16.0973 340.487 16.004C340.412 15.9107 340.375 15.8127 340.375 15.71C340.375 15.6073 340.412 15.5093 340.487 15.416C340.562 15.3227 340.678 15.276 340.837 15.276H342.517ZM346.883 18.3C346.883 18.8507 346.72 19.126 346.393 19.126C346.253 19.126 346.113 19.1213 345.973 19.112C345.842 19.1027 345.726 19.07 345.623 19.014C345.52 18.9673 345.436 18.888 345.371 18.776C345.306 18.664 345.273 18.5007 345.273 18.286V12.812C345.273 12.5507 345.31 12.3453 345.385 12.196C345.469 12.0467 345.595 11.972 345.763 11.972C345.903 11.972 346.038 11.9767 346.169 11.986C346.309 11.9953 346.43 12.028 346.533 12.084C346.636 12.1307 346.72 12.2147 346.785 12.336C346.85 12.448 346.883 12.6113 346.883 12.826V15.892L348.885 13.834C348.885 13.1247 348.941 12.6347 349.053 12.364C349.174 12.0933 349.398 11.958 349.725 11.958C349.949 11.958 350.122 12.0093 350.243 12.112C350.364 12.2147 350.425 12.3453 350.425 12.504C350.425 12.6347 350.397 12.7513 350.341 12.854C350.294 12.9473 350.22 13.0453 350.117 13.148C350.014 13.2507 349.888 13.3673 349.739 13.498C349.599 13.6287 349.44 13.7873 349.263 13.974L348.115 15.192L350.971 18.048C351.307 18.384 351.428 18.6407 351.335 18.818C351.251 18.9953 351.018 19.084 350.635 19.084C350.551 19.084 350.476 19.084 350.411 19.084C350.346 19.084 350.28 19.0747 350.215 19.056C350.15 19.0373 350.08 19.0047 350.005 18.958C349.94 18.9113 349.86 18.8367 349.767 18.734L347.219 16.088L346.883 16.452V18.3ZM360.117 15.528C360.117 16.032 360.024 16.5033 359.837 16.942C359.66 17.3807 359.413 17.7633 359.095 18.09C358.778 18.4167 358.405 18.6733 357.975 18.86C357.555 19.0467 357.103 19.14 356.617 19.14C356.132 19.14 355.675 19.0467 355.245 18.86C354.825 18.6733 354.457 18.4167 354.139 18.09C353.831 17.7633 353.584 17.3807 353.397 16.942C353.22 16.5033 353.131 16.032 353.131 15.528C353.131 15.024 353.22 14.5527 353.397 14.114C353.584 13.6753 353.831 13.2927 354.139 12.966C354.457 12.63 354.825 12.3687 355.245 12.182C355.675 11.9953 356.132 11.902 356.617 11.902C357.103 11.902 357.555 11.9953 357.975 12.182C358.405 12.3687 358.778 12.63 359.095 12.966C359.413 13.2927 359.66 13.6753 359.837 14.114C360.024 14.5527 360.117 15.024 360.117 15.528ZM358.367 15.528C358.367 15.0987 358.335 14.6927 358.269 14.31C358.213 13.918 358.115 13.582 357.975 13.302C357.845 13.0127 357.667 12.784 357.443 12.616C357.219 12.448 356.944 12.364 356.617 12.364C356.291 12.364 356.015 12.448 355.791 12.616C355.567 12.784 355.385 13.0127 355.245 13.302C355.115 13.582 355.017 13.918 354.951 14.31C354.895 14.6927 354.867 15.0987 354.867 15.528C354.867 15.9573 354.895 16.3633 354.951 16.746C355.017 17.1287 355.115 17.4647 355.245 17.754C355.385 18.0433 355.567 18.272 355.791 18.44C356.015 18.608 356.291 18.692 356.617 18.692C356.981 18.692 357.275 18.608 357.499 18.44C357.723 18.272 357.901 18.0433 358.031 17.754C358.162 17.4647 358.251 17.1287 358.297 16.746C358.344 16.3633 358.367 15.9573 358.367 15.528ZM363.467 18.3C363.467 18.8507 363.304 19.126 362.977 19.126C362.837 19.126 362.697 19.1213 362.557 19.112C362.426 19.1027 362.31 19.07 362.207 19.014C362.104 18.9673 362.02 18.888 361.955 18.776C361.89 18.664 361.857 18.5007 361.857 18.286V12.812C361.857 12.5507 361.894 12.3453 361.969 12.196C362.053 12.0467 362.179 11.972 362.347 11.972C362.487 11.972 362.622 11.9767 362.753 11.986C362.893 11.9953 363.014 12.028 363.117 12.084C363.22 12.1307 363.304 12.2147 363.369 12.336C363.434 12.448 363.467 12.6113 363.467 12.826V15.892L365.469 13.834C365.469 13.1247 365.525 12.6347 365.637 12.364C365.758 12.0933 365.982 11.958 366.309 11.958C366.533 11.958 366.706 12.0093 366.827 12.112C366.948 12.2147 367.009 12.3453 367.009 12.504C367.009 12.6347 366.981 12.7513 366.925 12.854C366.878 12.9473 366.804 13.0453 366.701 13.148C366.598 13.2507 366.472 13.3673 366.323 13.498C366.183 13.6287 366.024 13.7873 365.847 13.974L364.699 15.192L367.555 18.048C367.891 18.384 368.012 18.6407 367.919 18.818C367.835 18.9953 367.602 19.084 367.219 19.084C367.135 19.084 367.06 19.084 366.995 19.084C366.93 19.084 366.864 19.0747 366.799 19.056C366.734 19.0373 366.664 19.0047 366.589 18.958C366.524 18.9113 366.444 18.8367 366.351 18.734L363.803 16.088L363.467 16.452V18.3Z" fill="black"/>
<g clip-path="url(#clip3_662_41)" filter="url(#filter5_i_662_41)">
<path fill-rule="evenodd" clip-rule="evenodd" d="M311.875 79.9709C311.875 74.5529 316.179 70.1709 321.5 70.1709C326.821 70.1709 331.125 74.5529 331.125 79.9709C331.125 85.8089 325.047 93.8589 322.559 96.9249C322.009 97.5969 321.005 97.5969 320.455 96.9249C317.952 93.8589 311.875 85.8089 311.875 79.9709ZM318.062 79.9709C318.062 81.9029 319.602 83.4709 321.5 83.4709C323.398 83.4709 324.938 81.9029 324.938 79.9709C324.938 78.0389 323.398 76.4709 321.5 76.4709C319.602 76.4709 318.062 78.0389 318.062 79.9709Z" fill="#767A5C"/>
</g>
<path d="M343.823 80.404C343.823 80.0493 343.87 79.7647 343.963 79.55C344.066 79.3353 344.229 79.228 344.453 79.228C344.621 79.228 344.789 79.2373 344.957 79.256C345.125 79.2653 345.274 79.3073 345.405 79.382C345.536 79.4473 345.638 79.564 345.713 79.732C345.797 79.8907 345.839 80.1147 345.839 80.404V88.034C345.839 88.3887 345.788 88.6733 345.685 88.888C345.592 89.0933 345.438 89.196 345.223 89.196C345.055 89.196 344.892 89.196 344.733 89.196C344.584 89.2053 344.439 89.1773 344.299 89.112C344.159 89.056 344.024 88.9533 343.893 88.804C343.762 88.6453 343.627 88.412 343.487 88.104L340.533 81.174V88.034C340.533 88.3887 340.482 88.6733 340.379 88.888C340.286 89.0933 340.132 89.196 339.917 89.196C339.74 89.196 339.567 89.1867 339.399 89.168C339.231 89.1587 339.082 89.1167 338.951 89.042C338.82 88.9673 338.713 88.8507 338.629 88.692C338.554 88.5333 338.517 88.3047 338.517 88.006V80.39C338.517 80.026 338.564 79.7413 338.657 79.536C338.76 79.3307 338.918 79.228 339.133 79.228C339.31 79.228 339.474 79.2233 339.623 79.214C339.772 79.1953 339.917 79.214 340.057 79.27C340.197 79.3167 340.332 79.4147 340.463 79.564C340.603 79.704 340.738 79.928 340.869 80.236L343.823 87.166V80.404ZM351.895 87.166C351.848 87.1007 351.806 87.0353 351.769 86.97C351.731 86.914 351.685 86.8487 351.629 86.774C351.582 86.6993 351.535 86.6247 351.489 86.55C351.367 86.3727 351.232 86.1627 351.083 85.92C350.803 86.4613 350.495 86.9047 350.159 87.25C349.832 87.5953 349.412 87.8473 348.899 88.006C349.104 88.1087 349.333 88.174 349.585 88.202C349.837 88.2207 350.093 88.1973 350.355 88.132C350.616 88.0667 350.877 87.9593 351.139 87.81C351.4 87.6513 351.652 87.4367 351.895 87.166ZM349.193 83.092C348.969 82.7467 348.885 82.4853 348.941 82.308C349.006 82.1213 349.202 82.028 349.529 82.028C349.743 82.028 349.916 82.042 350.047 82.07C350.187 82.0887 350.317 82.1867 350.439 82.364L354.163 87.964C354.396 88.3187 354.499 88.5893 354.471 88.776C354.443 88.9627 354.214 89.056 353.785 89.056C353.57 89.056 353.393 89.0373 353.253 89C353.122 88.9533 353.001 88.8413 352.889 88.664L352.049 87.404C351.629 87.8893 351.139 88.2813 350.579 88.58C350.028 88.8693 349.487 89.014 348.955 89.014C348.563 89.014 348.259 88.972 348.045 88.888C347.839 88.7947 347.737 88.6687 347.737 88.51C347.737 88.2953 347.797 88.146 347.919 88.062C348.049 87.978 348.194 87.894 348.353 87.81C348.651 87.6513 348.903 87.4693 349.109 87.264C349.323 87.0587 349.501 86.83 349.641 86.578C349.79 86.3167 349.911 86.0367 350.005 85.738C350.098 85.43 350.182 85.094 350.257 84.73L349.193 83.092ZM357.492 88.3C357.492 88.8507 357.329 89.126 357.002 89.126C356.862 89.126 356.722 89.1213 356.582 89.112C356.452 89.1027 356.335 89.07 356.232 89.014C356.13 88.9673 356.046 88.888 355.98 88.776C355.915 88.664 355.882 88.5007 355.882 88.286V82.812C355.882 82.5507 355.92 82.3453 355.994 82.196C356.078 82.0467 356.204 81.972 356.372 81.972C356.512 81.972 356.648 81.9767 356.778 81.986C356.918 81.9953 357.04 82.028 357.142 82.084C357.245 82.1307 357.329 82.2147 357.394 82.336C357.46 82.448 357.492 82.6113 357.492 82.826V85.892L359.494 83.834C359.494 83.1247 359.55 82.6347 359.662 82.364C359.784 82.0933 360.008 81.958 360.334 81.958C360.558 81.958 360.731 82.0093 360.852 82.112C360.974 82.2147 361.034 82.3453 361.034 82.504C361.034 82.6347 361.006 82.7513 360.95 82.854C360.904 82.9473 360.829 83.0453 360.726 83.148C360.624 83.2507 360.498 83.3673 360.348 83.498C360.208 83.6287 360.05 83.7873 359.872 83.974L358.724 85.192L361.58 88.048C361.916 88.384 362.038 88.6407 361.944 88.818C361.86 88.9953 361.627 89.084 361.244 89.084C361.16 89.084 361.086 89.084 361.02 89.084C360.955 89.084 360.89 89.0747 360.824 89.056C360.759 89.0373 360.689 89.0047 360.614 88.958C360.549 88.9113 360.47 88.8367 360.376 88.734L357.828 86.088L357.492 86.452V88.3ZM365.687 85.92V88.3C365.687 88.552 365.645 88.7527 365.561 88.902C365.486 89.0513 365.365 89.126 365.197 89.126C365.057 89.126 364.917 89.1213 364.777 89.112C364.646 89.1027 364.529 89.07 364.427 89.014C364.324 88.9673 364.24 88.888 364.175 88.776C364.109 88.664 364.077 88.5007 364.077 88.286V82.812C364.077 82.5507 364.114 82.3453 364.189 82.196C364.263 82.0467 364.389 81.972 364.567 81.972C364.707 81.972 364.842 81.9767 364.973 81.986C365.113 81.9953 365.234 82.028 365.337 82.084C365.439 82.1307 365.523 82.2147 365.589 82.336C365.654 82.448 365.687 82.6113 365.687 82.826V85.43H368.319V82.812C368.319 82.5507 368.356 82.3453 368.431 82.196C368.505 82.0467 368.636 81.972 368.823 81.972C368.963 81.972 369.098 81.9767 369.229 81.986C369.359 81.9953 369.476 82.028 369.579 82.084C369.681 82.1307 369.765 82.2147 369.831 82.336C369.896 82.448 369.929 82.6113 369.929 82.826V88.3C369.929 88.552 369.891 88.7527 369.817 88.902C369.742 89.0513 369.616 89.126 369.439 89.126C369.299 89.126 369.163 89.1213 369.033 89.112C368.902 89.1027 368.781 89.07 368.669 89.014C368.566 88.9673 368.482 88.888 368.417 88.776C368.351 88.664 368.319 88.5007 368.319 88.286V85.92H365.687ZM378.875 85.528C378.875 86.032 378.782 86.5033 378.595 86.942C378.418 87.3807 378.17 87.7633 377.853 88.09C377.536 88.4167 377.162 88.6733 376.733 88.86C376.313 89.0467 375.86 89.14 375.375 89.14C374.89 89.14 374.432 89.0467 374.003 88.86C373.583 88.6733 373.214 88.4167 372.897 88.09C372.589 87.7633 372.342 87.3807 372.155 86.942C371.978 86.5033 371.889 86.032 371.889 85.528C371.889 85.024 371.978 84.5527 372.155 84.114C372.342 83.6753 372.589 83.2927 372.897 82.966C373.214 82.63 373.583 82.3687 374.003 82.182C374.432 81.9953 374.89 81.902 375.375 81.902C375.86 81.902 376.313 81.9953 376.733 82.182C377.162 82.3687 377.536 82.63 377.853 82.966C378.17 83.2927 378.418 83.6753 378.595 84.114C378.782 84.5527 378.875 85.024 378.875 85.528ZM377.125 85.528C377.125 85.0987 377.092 84.6927 377.027 84.31C376.971 83.918 376.873 83.582 376.733 83.302C376.602 83.0127 376.425 82.784 376.201 82.616C375.977 82.448 375.702 82.364 375.375 82.364C375.048 82.364 374.773 82.448 374.549 82.616C374.325 82.784 374.143 83.0127 374.003 83.302C373.872 83.582 373.774 83.918 373.709 84.31C373.653 84.6927 373.625 85.0987 373.625 85.528C373.625 85.9573 373.653 86.3633 373.709 86.746C373.774 87.1287 373.872 87.4647 374.003 87.754C374.143 88.0433 374.325 88.272 374.549 88.44C374.773 88.608 375.048 88.692 375.375 88.692C375.739 88.692 376.033 88.608 376.257 88.44C376.481 88.272 376.658 88.0433 376.789 87.754C376.92 87.4647 377.008 87.1287 377.055 86.746C377.102 86.3633 377.125 85.9573 377.125 85.528ZM385.067 82.812C385.067 82.5507 385.104 82.3453 385.179 82.196C385.253 82.0373 385.384 81.958 385.571 81.958C385.711 81.958 385.846 81.9627 385.977 81.972C386.107 81.9813 386.224 82.014 386.327 82.07C386.429 82.1167 386.513 82.2007 386.579 82.322C386.644 82.434 386.677 82.5973 386.677 82.812V88.3C386.677 88.5613 386.639 88.7667 386.565 88.916C386.49 89.0653 386.364 89.14 386.187 89.14C386.047 89.14 385.916 89.14 385.795 89.14C385.673 89.1493 385.557 89.1307 385.445 89.084C385.333 89.0467 385.225 88.972 385.123 88.86C385.02 88.748 384.913 88.58 384.801 88.356L382.435 83.372V88.3C382.435 88.5613 382.393 88.7667 382.309 88.916C382.234 89.0653 382.113 89.14 381.945 89.14C381.805 89.14 381.665 89.1353 381.525 89.126C381.394 89.1167 381.277 89.084 381.175 89.028C381.072 88.9813 380.988 88.902 380.923 88.79C380.857 88.6687 380.825 88.5007 380.825 88.286V82.798C380.825 82.5367 380.862 82.3313 380.937 82.182C381.011 82.0327 381.137 81.958 381.315 81.958C381.455 81.958 381.585 81.9533 381.707 81.944C381.828 81.9347 381.945 81.9487 382.057 81.986C382.169 82.0233 382.276 82.0933 382.379 82.196C382.491 82.2987 382.598 82.462 382.701 82.686L385.067 87.684V82.812ZM397.818 81.888C397.818 81.44 397.767 81.0853 397.664 80.824C397.571 80.5627 397.445 80.3713 397.286 80.25C397.128 80.1287 396.955 80.0633 396.768 80.054C396.582 80.0353 396.4 80.054 396.222 80.11C396.054 80.166 395.9 80.2453 395.76 80.348C395.62 80.4413 395.522 80.53 395.466 80.614V83.848C395.83 83.848 396.157 83.8247 396.446 83.778C396.736 83.7313 396.978 83.638 397.174 83.498C397.38 83.358 397.538 83.162 397.65 82.91C397.762 82.6487 397.818 82.308 397.818 81.888ZM395.466 88.076C395.429 88.328 395.368 88.5287 395.284 88.678C395.2 88.818 395.098 88.9253 394.976 89C394.855 89.0653 394.715 89.1027 394.556 89.112C394.407 89.1307 394.244 89.14 394.066 89.14C393.852 89.14 393.693 89.0373 393.59 88.832C393.497 88.6267 393.45 88.342 393.45 87.978V80.404C393.45 80.1147 393.488 79.8907 393.562 79.732C393.646 79.564 393.754 79.4473 393.884 79.382C394.015 79.3073 394.164 79.2653 394.332 79.256C394.5 79.2373 394.673 79.228 394.85 79.228C395.065 79.228 395.21 79.312 395.284 79.48C395.368 79.648 395.42 79.8347 395.438 80.04C395.578 79.844 395.807 79.6713 396.124 79.522C396.451 79.3727 396.824 79.298 397.244 79.298C397.571 79.298 397.888 79.3353 398.196 79.41C398.514 79.4753 398.794 79.592 399.036 79.76C399.279 79.928 399.47 80.1567 399.61 80.446C399.76 80.7353 399.834 81.104 399.834 81.552C399.834 81.7853 399.783 82.0327 399.68 82.294C399.587 82.546 399.447 82.7887 399.26 83.022C399.083 83.2553 398.854 83.4747 398.574 83.68C398.304 83.876 397.996 84.0347 397.65 84.156L400.044 87.684C400.399 88.216 400.534 88.5893 400.45 88.804C400.366 89.0093 400.086 89.112 399.61 89.112C399.508 89.112 399.414 89.112 399.33 89.112C399.246 89.112 399.162 89.098 399.078 89.07C399.004 89.042 398.92 88.9953 398.826 88.93C398.742 88.8647 398.644 88.7667 398.532 88.636L396.096 84.38C395.994 84.3707 395.891 84.3613 395.788 84.352C395.686 84.3427 395.578 84.3287 395.466 84.31V88.076ZM406.377 87.166C406.33 87.1007 406.288 87.0353 406.251 86.97C406.214 86.914 406.167 86.8487 406.111 86.774C406.064 86.6993 406.018 86.6247 405.971 86.55C405.85 86.3727 405.714 86.1627 405.565 85.92C405.285 86.4613 404.977 86.9047 404.641 87.25C404.314 87.5953 403.894 87.8473 403.381 88.006C403.586 88.1087 403.815 88.174 404.067 88.202C404.319 88.2207 404.576 88.1973 404.837 88.132C405.098 88.0667 405.36 87.9593 405.621 87.81C405.882 87.6513 406.134 87.4367 406.377 87.166ZM403.675 83.092C403.451 82.7467 403.367 82.4853 403.423 82.308C403.488 82.1213 403.684 82.028 404.011 82.028C404.226 82.028 404.398 82.042 404.529 82.07C404.669 82.0887 404.8 82.1867 404.921 82.364L408.645 87.964C408.878 88.3187 408.981 88.5893 408.953 88.776C408.925 88.9627 408.696 89.056 408.267 89.056C408.052 89.056 407.875 89.0373 407.735 89C407.604 88.9533 407.483 88.8413 407.371 88.664L406.531 87.404C406.111 87.8893 405.621 88.2813 405.061 88.58C404.51 88.8693 403.969 89.014 403.437 89.014C403.045 89.014 402.742 88.972 402.527 88.888C402.322 88.7947 402.219 88.6687 402.219 88.51C402.219 88.2953 402.28 88.146 402.401 88.062C402.532 87.978 402.676 87.894 402.835 87.81C403.134 87.6513 403.386 87.4693 403.591 87.264C403.806 87.0587 403.983 86.83 404.123 86.578C404.272 86.3167 404.394 86.0367 404.487 85.738C404.58 85.43 404.664 85.094 404.739 84.73L403.675 83.092ZM414.425 88.02C414.425 88.216 414.383 88.3933 414.299 88.552C414.215 88.7013 414.112 88.832 413.991 88.944C413.869 89.056 413.734 89.14 413.585 89.196C413.445 89.252 413.319 89.28 413.207 89.28C413.039 89.28 412.931 89.2007 412.885 89.042C412.838 88.8833 412.815 88.6827 412.815 88.44V82.532H411.485C411.429 82.8027 411.335 83.022 411.205 83.19C411.074 83.358 410.878 83.442 410.617 83.442C410.337 83.442 410.145 83.3767 410.043 83.246C409.949 83.106 409.903 82.9567 409.903 82.798C409.903 82.5833 409.959 82.406 410.071 82.266C410.183 82.1167 410.388 82.042 410.687 82.042H416.567C416.856 82.042 417.057 82.1167 417.169 82.266C417.29 82.406 417.351 82.5833 417.351 82.798C417.351 82.9567 417.299 83.106 417.197 83.246C417.094 83.3767 416.903 83.442 416.623 83.442C416.361 83.442 416.165 83.358 416.035 83.19C415.904 83.022 415.811 82.8027 415.755 82.532H414.425V88.02ZM422.12 88.664C422.418 88.664 422.642 88.622 422.792 88.538C422.941 88.454 423.053 88.3513 423.128 88.23C423.202 88.0993 423.254 87.964 423.282 87.824C423.319 87.6747 423.361 87.5393 423.408 87.418C423.464 87.2873 423.538 87.18 423.632 87.096C423.734 87.012 423.898 86.97 424.122 86.97C424.262 86.97 424.388 87.012 424.5 87.096C424.612 87.1707 424.668 87.3573 424.668 87.656C424.668 87.852 424.607 88.0387 424.486 88.216C424.364 88.3933 424.192 88.552 423.968 88.692C423.744 88.832 423.473 88.9393 423.156 89.014C422.838 89.098 422.488 89.14 422.106 89.14C421.62 89.14 421.163 89.0467 420.734 88.86C420.314 88.664 419.945 88.4027 419.628 88.076C419.32 87.7493 419.072 87.3713 418.886 86.942C418.708 86.5033 418.62 86.032 418.62 85.528C418.62 85.024 418.708 84.5527 418.886 84.114C419.072 83.6753 419.32 83.2927 419.628 82.966C419.945 82.63 420.314 82.3687 420.734 82.182C421.163 81.9953 421.62 81.902 422.106 81.902C422.498 81.902 422.848 81.944 423.156 82.028C423.473 82.112 423.744 82.224 423.968 82.364C424.192 82.4947 424.364 82.6487 424.486 82.826C424.607 83.0033 424.668 83.19 424.668 83.386C424.668 83.6847 424.607 83.876 424.486 83.96C424.374 84.0347 424.248 84.072 424.108 84.072C423.884 84.072 423.72 84.03 423.618 83.946C423.524 83.862 423.45 83.7593 423.394 83.638C423.347 83.5073 423.305 83.372 423.268 83.232C423.24 83.0827 423.188 82.9473 423.114 82.826C423.039 82.6953 422.922 82.588 422.764 82.504C422.614 82.42 422.395 82.378 422.106 82.378C421.779 82.378 421.504 82.462 421.28 82.63C421.056 82.7887 420.874 83.0127 420.734 83.302C420.603 83.5913 420.505 83.9273 420.44 84.31C420.384 84.6927 420.356 85.0987 420.356 85.528C420.356 85.9573 420.384 86.3633 420.44 86.746C420.505 87.1287 420.608 87.4647 420.748 87.754C420.888 88.034 421.07 88.258 421.294 88.426C421.518 88.5847 421.793 88.664 422.12 88.664ZM428.236 85.92V88.3C428.236 88.552 428.194 88.7527 428.11 88.902C428.035 89.0513 427.914 89.126 427.746 89.126C427.606 89.126 427.466 89.1213 427.326 89.112C427.195 89.1027 427.078 89.07 426.976 89.014C426.873 88.9673 426.789 88.888 426.724 88.776C426.658 88.664 426.626 88.5007 426.626 88.286V82.812C426.626 82.5507 426.663 82.3453 426.738 82.196C426.812 82.0467 426.938 81.972 427.116 81.972C427.256 81.972 427.391 81.9767 427.522 81.986C427.662 81.9953 427.783 82.028 427.886 82.084C427.988 82.1307 428.072 82.2147 428.138 82.336C428.203 82.448 428.236 82.6113 428.236 82.826V85.43H430.868V82.812C430.868 82.5507 430.905 82.3453 430.98 82.196C431.054 82.0467 431.185 81.972 431.372 81.972C431.512 81.972 431.647 81.9767 431.778 81.986C431.908 81.9953 432.025 82.028 432.128 82.084C432.23 82.1307 432.314 82.2147 432.38 82.336C432.445 82.448 432.478 82.6113 432.478 82.826V88.3C432.478 88.552 432.44 88.7527 432.366 88.902C432.291 89.0513 432.165 89.126 431.988 89.126C431.848 89.126 431.712 89.1213 431.582 89.112C431.451 89.1027 431.33 89.07 431.218 89.014C431.115 88.9673 431.031 88.888 430.966 88.776C430.9 88.664 430.868 88.5007 430.868 88.286V85.92H428.236ZM438.26 87.166C438.213 87.1007 438.171 87.0353 438.134 86.97C438.097 86.914 438.05 86.8487 437.994 86.774C437.947 86.6993 437.901 86.6247 437.854 86.55C437.733 86.3727 437.597 86.1627 437.448 85.92C437.168 86.4613 436.86 86.9047 436.524 87.25C436.197 87.5953 435.777 87.8473 435.264 88.006C435.469 88.1087 435.698 88.174 435.95 88.202C436.202 88.2207 436.459 88.1973 436.72 88.132C436.981 88.0667 437.243 87.9593 437.504 87.81C437.765 87.6513 438.017 87.4367 438.26 87.166ZM435.558 83.092C435.334 82.7467 435.25 82.4853 435.306 82.308C435.371 82.1213 435.567 82.028 435.894 82.028C436.109 82.028 436.281 82.042 436.412 82.07C436.552 82.0887 436.683 82.1867 436.804 82.364L440.528 87.964C440.761 88.3187 440.864 88.5893 440.836 88.776C440.808 88.9627 440.579 89.056 440.15 89.056C439.935 89.056 439.758 89.0373 439.618 89C439.487 88.9533 439.366 88.8413 439.254 88.664L438.414 87.404C437.994 87.8893 437.504 88.2813 436.944 88.58C436.393 88.8693 435.852 89.014 435.32 89.014C434.928 89.014 434.625 88.972 434.41 88.888C434.205 88.7947 434.102 88.6687 434.102 88.51C434.102 88.2953 434.163 88.146 434.284 88.062C434.415 87.978 434.559 87.894 434.718 87.81C435.017 87.6513 435.269 87.4693 435.474 87.264C435.689 87.0587 435.866 86.83 436.006 86.578C436.155 86.3167 436.277 86.0367 436.37 85.738C436.463 85.43 436.547 85.094 436.622 84.73L435.558 83.092ZM443.858 85.528C443.858 85.808 443.853 86.0833 443.844 86.354C443.844 86.6153 443.9 86.8533 444.012 87.068C444.105 87.2453 444.268 87.3807 444.502 87.474C444.735 87.558 444.996 87.6327 445.286 87.698C445.575 87.7633 445.874 87.8333 446.182 87.908C446.49 87.9733 446.77 88.0807 447.022 88.23C447.283 88.37 447.498 88.566 447.666 88.818C447.834 89.07 447.918 89.4013 447.918 89.812C447.918 90.1107 447.866 90.3813 447.764 90.624C447.67 90.876 447.535 91.0907 447.358 91.268C447.19 91.4453 446.984 91.5807 446.742 91.674C446.508 91.7767 446.252 91.828 445.972 91.828C445.841 91.828 445.738 91.786 445.664 91.702C445.598 91.618 445.566 91.5107 445.566 91.38C445.566 91.2213 445.603 91.114 445.678 91.058C445.752 91.0113 445.846 90.9787 445.958 90.96C446.079 90.9413 446.205 90.9273 446.336 90.918C446.466 90.918 446.588 90.8853 446.7 90.82C446.821 90.764 446.919 90.666 446.994 90.526C447.068 90.3953 447.106 90.19 447.106 89.91C447.106 89.7233 447.064 89.5787 446.98 89.476C446.905 89.3827 446.802 89.3127 446.672 89.266C446.541 89.2193 446.392 89.1867 446.224 89.168C446.056 89.1587 445.878 89.1493 445.692 89.14H445.608C445.122 89.14 444.665 89.0467 444.236 88.86C443.816 88.6733 443.447 88.4167 443.13 88.09C442.822 87.7633 442.574 87.3807 442.388 86.942C442.21 86.5033 442.122 86.032 442.122 85.528C442.122 85.024 442.21 84.5527 442.388 84.114C442.574 83.6753 442.822 83.2927 443.13 82.966C443.447 82.63 443.816 82.3687 444.236 82.182C444.665 81.9953 445.122 81.902 445.608 81.902C446 81.902 446.35 81.944 446.658 82.028C446.975 82.112 447.246 82.224 447.47 82.364C447.694 82.4947 447.866 82.6487 447.988 82.826C448.109 83.0033 448.17 83.19 448.17 83.386C448.17 83.6847 448.109 83.876 447.988 83.96C447.876 84.0347 447.75 84.072 447.61 84.072C447.386 84.072 447.222 84.03 447.12 83.946C447.026 83.862 446.952 83.7593 446.896 83.638C446.849 83.5073 446.807 83.372 446.77 83.232C446.742 83.0827 446.69 82.9473 446.616 82.826C446.541 82.6953 446.424 82.588 446.266 82.504C446.116 82.42 445.897 82.378 445.608 82.378C445.281 82.378 445.006 82.462 444.782 82.63C444.558 82.7887 444.376 83.0127 444.236 83.302C444.105 83.5913 444.007 83.9273 443.942 84.31C443.886 84.6927 443.858 85.0987 443.858 85.528ZM450.127 82.812C450.127 82.5507 450.165 82.3453 450.239 82.196C450.314 82.0467 450.44 81.972 450.617 81.972C450.757 81.972 450.893 81.9767 451.023 81.986C451.163 81.9953 451.285 82.028 451.387 82.084C451.49 82.1307 451.574 82.2147 451.639 82.336C451.705 82.448 451.737 82.6113 451.737 82.826V88.3C451.737 88.552 451.695 88.7527 451.611 88.902C451.537 89.0513 451.415 89.126 451.247 89.126C451.107 89.126 450.967 89.1213 450.827 89.112C450.697 89.1027 450.58 89.07 450.477 89.014C450.375 88.9673 450.291 88.888 450.225 88.776C450.16 88.664 450.127 88.5007 450.127 88.286V82.812ZM461.08 88.3C461.08 88.5613 461.043 88.7667 460.968 88.916C460.893 89.0653 460.767 89.14 460.59 89.14C460.45 89.14 460.315 89.1353 460.184 89.126C460.053 89.1167 459.932 89.084 459.82 89.028C459.717 88.9813 459.633 88.902 459.568 88.79C459.503 88.6687 459.47 88.5007 459.47 88.286V83.582L457.566 86.466L455.634 84.058V88.3C455.634 88.5613 455.592 88.7667 455.508 88.916C455.433 89.0653 455.312 89.14 455.144 89.14C455.004 89.14 454.864 89.1353 454.724 89.126C454.593 89.1167 454.477 89.084 454.374 89.028C454.271 88.9813 454.187 88.902 454.122 88.79C454.057 88.6687 454.024 88.5007 454.024 88.286V82.798C454.024 82.5367 454.075 82.3313 454.178 82.182C454.281 82.0327 454.421 81.958 454.598 81.958C454.766 81.958 454.911 81.9627 455.032 81.972C455.163 81.972 455.284 81.9953 455.396 82.042C455.508 82.0887 455.62 82.168 455.732 82.28C455.853 82.3827 455.993 82.532 456.152 82.728L457.902 84.884L459.414 82.658C459.405 82.4247 459.456 82.252 459.568 82.14C459.68 82.0187 459.829 81.958 460.016 81.958C460.156 81.958 460.287 81.9627 460.408 81.972C460.539 81.9813 460.651 82.014 460.744 82.07C460.847 82.1167 460.926 82.2007 460.982 82.322C461.047 82.434 461.08 82.5973 461.08 82.812V88.3ZM466.862 87.166C466.815 87.1007 466.773 87.0353 466.736 86.97C466.698 86.914 466.652 86.8487 466.596 86.774C466.549 86.6993 466.502 86.6247 466.456 86.55C466.334 86.3727 466.199 86.1627 466.05 85.92C465.77 86.4613 465.462 86.9047 465.126 87.25C464.799 87.5953 464.379 87.8473 463.866 88.006C464.071 88.1087 464.3 88.174 464.552 88.202C464.804 88.2207 465.06 88.1973 465.322 88.132C465.583 88.0667 465.844 87.9593 466.106 87.81C466.367 87.6513 466.619 87.4367 466.862 87.166ZM464.16 83.092C463.936 82.7467 463.852 82.4853 463.908 82.308C463.973 82.1213 464.169 82.028 464.496 82.028C464.71 82.028 464.883 82.042 465.014 82.07C465.154 82.0887 465.284 82.1867 465.406 82.364L469.13 87.964C469.363 88.3187 469.466 88.5893 469.438 88.776C469.41 88.9627 469.181 89.056 468.752 89.056C468.537 89.056 468.36 89.0373 468.22 89C468.089 88.9533 467.968 88.8413 467.856 88.664L467.016 87.404C466.596 87.8893 466.106 88.2813 465.546 88.58C464.995 88.8693 464.454 89.014 463.922 89.014C463.53 89.014 463.226 88.972 463.012 88.888C462.806 88.7947 462.704 88.6687 462.704 88.51C462.704 88.2953 462.764 88.146 462.886 88.062C463.016 87.978 463.161 87.894 463.32 87.81C463.618 87.6513 463.87 87.4693 464.076 87.264C464.29 87.0587 464.468 86.83 464.608 86.578C464.757 86.3167 464.878 86.0367 464.972 85.738C465.065 85.43 465.149 85.094 465.224 84.73L464.16 83.092Z" fill="black"/>
<path d="M281 35.5C325 26.9999 503.329 27.8722 496.914 134.386C489.414 258.919 114.334 99.4516 101.374 258.919C88.4143 418.386 415.914 520.886 496.914 316.886" stroke="#181A20" stroke-width="3" stroke-dasharray="12 12"/>
<defs>
<filter id="filter0_i_662_41" x="72" y="241" width="21" height="30" filterUnits="userSpaceOnUse" color-interpolation-filters="sRGB">
<feFlood flood-opacity="0" result="BackgroundImageFix"/>
<feBlend mode="normal" in="SourceGraphic" in2="BackgroundImageFix" result="shape"/>
<feColorMatrix in="SourceAlpha" type="matrix" values="0 0 0 0 0 0 0 0 0 0 0 0 0 0 0 0 0 0 127 0" result="hardAlpha"/>
<feOffset dy="2"/>
<feGaussianBlur stdDeviation="1"/>
<feComposite in2="hardAlpha" operator="arithmetic" k2="-1" k3="1"/>
<feColorMatrix type="matrix" values="0 0 0 0 0 0 0 0 0 0 0 0 0 0 0 0 0 0 0.5 0"/>
<feBlend mode="normal" in2="shape" result="effect1_innerShadow_662_41"/>
</filter>
<filter id="filter1_i_662_41" x="243.5" y="326" width="21" height="30" filterUnits="userSpaceOnUse" color-interpolation-filters="sRGB">
<feFlood flood-opacity="0" result="BackgroundImageFix"/>
<feBlend mode="normal" in="SourceGraphic" in2="BackgroundImageFix" result="shape"/>
<feColorMatrix in="SourceAlpha" type="matrix" values="0 0 0 0 0 0 0 0 0 0 0 0 0 0 0 0 0 0 127 0" result="hardAlpha"/>
<feOffset dy="2"/>
<feGaussianBlur stdDeviation="1"/>
<feComposite in2="hardAlpha" operator="arithmetic" k2="-1" k3="1"/>
<feColorMatrix type="matrix" values="0 0 0 0 0 0 0 0 0 0 0 0 0 0 0 0 0 0 0.5 0"/>
<feBlend mode="normal" in2="shape" result="effect1_innerShadow_662_41"/>
</filter>
<filter id="filter2_i_662_41" x="348" y="381" width="21" height="30" filterUnits="userSpaceOnUse" color-interpolation-filters="sRGB">
<feFlood flood-opacity="0" result="BackgroundImageFix"/>
<feBlend mode="normal" in="SourceGraphic" in2="BackgroundImageFix" result="shape"/>
<feColorMatrix in="SourceAlpha" type="matrix" values="0 0 0 0 0 0 0 0 0 0 0 0 0 0 0 0 0 0 127 0" result="hardAlpha"/>
<feOffset dy="2"/>
<feGaussianBlur stdDeviation="1"/>
<feComposite in2="hardAlpha" operator="arithmetic" k2="-1" k3="1"/>
<feColorMatrix type="matrix" values="0 0 0 0 0 0 0 0 0 0 0 0 0 0 0 0 0 0 0.5 0"/>
<feBlend mode="normal" in2="shape" result="effect1_innerShadow_662_41"/>
</filter>
<filter id="filter3_i_662_41" x="461.5" y="317" width="21" height="30" filterUnits="userSpaceOnUse" color-interpolation-filters="sRGB">
<feFlood flood-opacity="0" result="BackgroundImageFix"/>
<feBlend mode="normal" in="SourceGraphic" in2="BackgroundImageFix" result="shape"/>
<feColorMatrix in="SourceAlpha" type="matrix" values="0 0 0 0 0 0 0 0 0 0 0 0 0 0 0 0 0 0 127 0" result="hardAlpha"/>
<feOffset dy="2"/>
<feGaussianBlur stdDeviation="1"/>
<feComposite in2="hardAlpha" operator="arithmetic" k2="-1" k3="1"/>
<feColorMatrix type="matrix" values="0 0 0 0 0 0 0 0 0 0 0 0 0 0 0 0 0 0 0.5 0"/>
<feBlend mode="normal" in2="shape" result="effect1_innerShadow_662_41"/>
</filter>
<filter id="filter4_i_662_41" x="283" y="0" width="21" height="30" filterUnits="userSpaceOnUse" color-interpolation-filters="sRGB">
<feFlood flood-opacity="0" result="BackgroundImageFix"/>
<feBlend mode="normal" in="SourceGraphic" in2="BackgroundImageFix" result="shape"/>
<feColorMatrix in="SourceAlpha" type="matrix" values="0 0 0 0 0 0 0 0 0 0 0 0 0 0 0 0 0 0 127 0" result="hardAlpha"/>
<feOffset dy="2"/>
<feGaussianBlur stdDeviation="1"/>
<feComposite in2="hardAlpha" operator="arithmetic" k2="-1" k3="1"/>
<feColorMatrix type="matrix" values="0 0 0 0 0 0 0 0 0 0 0 0 0 0 0 0 0 0 0.5 0"/>
<feBlend mode="normal" in2="shape" result="effect1_innerShadow_662_41"/>
</filter>
<filter id="filter5_i_662_41" x="311" y="70" width="21" height="30" filterUnits="userSpaceOnUse" color-interpolation-filters="sRGB">
<feFlood flood-opacity="0" result="BackgroundImageFix"/>
<feBlend mode="normal" in="SourceGraphic" in2="BackgroundImageFix" result="shape"/>
<feColorMatrix in="SourceAlpha" type="matrix" values="0 0 0 0 0 0 0 0 0 0 0 0 0 0 0 0 0 0 127 0" result="hardAlpha"/>
<feOffset dy="2"/>
<feGaussianBlur stdDeviation="1"/>
<feComposite in2="hardAlpha" operator="arithmetic" k2="-1" k3="1"/>
<feColorMatrix type="matrix" values="0 0 0 0 0 0 0 0 0 0 0 0 0 0 0 0 0 0 0.5 0"/>
<feBlend mode="normal" in2="shape" result="effect1_innerShadow_662_41"/>
</filter>
<clipPath id="clip0_662_41">
<rect width="21" height="28" fill="white" transform="translate(72 241)"/>
</clipPath>
<clipPath id="clip1_662_41">
<rect width="21" height="28" fill="white" transform="translate(348 381)"/>
</clipPath>
<clipPath id="clip2_662_41">
<rect width="21" height="28" fill="white" transform="translate(283)"/>
</clipPath>
<clipPath id="clip3_662_41">
<rect width="21" height="28" fill="white" transform="translate(311 70)"/>
</clipPath>
</defs>
</svg>
