<svg width="18.000000" height="13.000000" viewBox="0 0 18 13" fill="none" xmlns="http://www.w3.org/2000/svg" xmlns:xlink="http://www.w3.org/1999/xlink">
	<desc>
			Created with Pixso.
	</desc>
	<defs/>
	<mask id="mask_502_681" fill="white">
		<path id="Youtube" d="M17.1045 0.969727C17.6439 1.53052 17.8199 2.8042 17.8199 2.8042C17.8199 2.8042 18 4.30029 18 5.79565L18 7.198C18 8.69409 17.8199 10.1895 17.8199 10.1895C17.8199 10.1895 17.6439 11.4629 17.1045 12.0239C16.4199 12.7603 15.6527 12.7637 15.3011 12.8071C12.7822 12.9941 9 13 9 13C9 13 4.31995 12.9561 2.88 12.814C2.47949 12.7373 1.58008 12.7603 0.894897 12.0239C0.355469 11.4629 0.180054 10.1895 0.180054 10.1895C0.180054 10.1895 0 8.69409 0 7.198L0 5.79565C0 4.30029 0.180054 2.8042 0.180054 2.8042C0.180054 2.8042 0.355469 1.53052 0.894897 0.969727C1.58008 0.233398 2.3468 0.22998 2.69885 0.187256C5.21777 0 8.99609 0 8.99609 0L9.00391 0C9.00391 0 12.7822 0 15.3011 0.187256C15.6527 0.22998 16.4199 0.233398 17.1045 0.969727ZM7.14099 3.7041L7.14148 8.89722L12.0043 6.30957L7.14099 3.7041Z" clip-rule="evenodd" fill="" fill-opacity="1.000000" fill-rule="evenodd"/>
	</mask>
	<path id="Youtube" d="M17.1045 0.969727C17.6439 1.53052 17.8199 2.8042 17.8199 2.8042C17.8199 2.8042 18 4.30029 18 5.79565L18 7.198C18 8.69409 17.8199 10.1895 17.8199 10.1895C17.8199 10.1895 17.6439 11.4629 17.1045 12.0239C16.4199 12.7603 15.6527 12.7637 15.3011 12.8071C12.7822 12.9941 9 13 9 13C9 13 4.31995 12.9561 2.88 12.814C2.47949 12.7373 1.58008 12.7603 0.894897 12.0239C0.355469 11.4629 0.180054 10.1895 0.180054 10.1895C0.180054 10.1895 0 8.69409 0 7.198L0 5.79565C0 4.30029 0.180054 2.8042 0.180054 2.8042C0.180054 2.8042 0.355469 1.53052 0.894897 0.969727C1.58008 0.233398 2.3468 0.22998 2.69885 0.187256C5.21777 0 8.99609 0 8.99609 0L9.00391 0C9.00391 0 12.7822 0 15.3011 0.187256C15.6527 0.22998 16.4199 0.233398 17.1045 0.969727ZM7.14099 3.7041L7.14148 8.89722L12.0043 6.30957L7.14099 3.7041Z" clip-rule="evenodd" fill="#FFFFFF" fill-opacity="1.000000" fill-rule="evenodd" mask="url(#mask_502_681)"/>
	<path id="Youtube" d="" fill="#FFFFFF" fill-opacity="1.000000" fill-rule="nonzero"/>
</svg>
