<svg width="100.000000" height="100.000000" viewBox="0 0 100 100" fill="none" xmlns="http://www.w3.org/2000/svg" xmlns:xlink="http://www.w3.org/1999/xlink">
	<desc>
			Created with Pixso.
	</desc>
	<defs/>
	<path id="Union" d="M50 0C22.3857 0 0 22.3857 0 50C0 77.6143 22.3857 100 50 100C77.6143 100 100 77.6143 100 50C100 22.3857 77.6143 0 50 0ZM50 3C24.0427 3 3 24.0426 3 50C3 75.9574 24.0427 97 50 97C75.9573 97 97 75.9574 97 50C97 24.0426 75.9573 3 50 3ZM50 8C26.804 8 8 26.804 8 50C8 73.196 26.804 92 50 92C73.196 92 92 73.196 92 50C92 26.804 73.196 8 50 8Z" clip-rule="evenodd" fill="#FFFFFF" fill-opacity="1.000000" fill-rule="evenodd"/>
	<path id="Polygon " d="M62 48.26L45.5 38.74C44.16 37.97 42.5 38.93 42.5 40.47L42.5 59.52C42.5 61.06 44.16 62.02 45.5 61.25L62 51.73C63.33 50.96 63.33 49.03 62 48.26Z" fill="#5B5B5B" fill-opacity="1.000000" fill-rule="evenodd"/>
</svg>
