<svg width="66" height="66" viewBox="0 0 66 66" fill="none" xmlns="http://www.w3.org/2000/svg">
<path fill-rule="evenodd" clip-rule="evenodd" d="M63 33C63 49.5685 49.5685 63 33 63C16.4315 63 3 49.5685 3 33C3 16.4315 16.4315 3 33 3C49.5685 3 63 16.4315 63 33ZM66 33C66 51.2254 51.2254 66 33 66C14.7746 66 0 51.2254 0 33C0 14.7746 14.7746 0 33 0C51.2254 0 66 14.7746 66 33ZM33 60.7202C48.3093 60.7202 60.72 48.3095 60.72 33.0002C60.72 17.6909 48.3093 5.2802 33 5.2802C17.6907 5.2802 5.27999 17.6909 5.27999 33.0002C5.27999 48.3095 17.6907 60.7202 33 60.7202Z" fill="white"/>
<path d="M39.9 31.2678C41.2334 32.0376 41.2334 33.9621 39.9 34.7319L31.05 39.8415C29.7167 40.6113 28.05 39.649 28.05 38.1094V27.8903C28.05 26.3507 29.7167 25.3885 31.05 26.1583L39.9 31.2678Z" fill="#5B5B5B"/>
</svg>
