<svg width="673" height="459" viewBox="0 0 673 459" fill="none" xmlns="http://www.w3.org/2000/svg">
<path d="M317.596 36.1091C417.9 25.4742 668.992 28.2635 670.991 134.961C673.49 268.332 147.165 89.5096 97.1624 261.533C47.1594 433.556 460.054 522 670.992 401.181" stroke="#181A20" stroke-width="3" stroke-dasharray="12 12"/>
<path d="M5.73668 262.538C6.10068 262.538 6.37601 262.482 6.56268 262.37C6.75868 262.249 6.90335 262.104 6.99668 261.936C7.09001 261.759 7.15535 261.567 7.19268 261.362C7.23001 261.157 7.28135 260.97 7.34668 260.802C7.41201 260.625 7.50535 260.48 7.62668 260.368C7.75735 260.247 7.96268 260.186 8.24268 260.186C8.32668 260.186 8.41068 260.2 8.49468 260.228C8.57868 260.247 8.65335 260.293 8.71868 260.368C8.78401 260.433 8.83535 260.527 8.87268 260.648C8.91001 260.769 8.92868 260.933 8.92868 261.138C8.92868 261.409 8.84935 261.67 8.69068 261.922C8.54135 262.165 8.32668 262.384 8.04668 262.58C7.76668 262.767 7.42601 262.916 7.02468 263.028C6.63268 263.14 6.19868 263.196 5.72268 263.196C5.11601 263.196 4.54668 263.065 4.01468 262.804C3.48268 262.533 3.02068 262.174 2.62868 261.726C2.23668 261.269 1.92401 260.737 1.69068 260.13C1.46668 259.523 1.35468 258.87 1.35468 258.17C1.35468 257.47 1.46668 256.817 1.69068 256.21C1.92401 255.603 2.23668 255.071 2.62868 254.614C3.02068 254.157 3.48268 253.797 4.01468 253.536C4.54668 253.275 5.11601 253.144 5.72268 253.144C6.20801 253.144 6.64668 253.2 7.03868 253.312C7.43068 253.424 7.76668 253.578 8.04668 253.774C8.32668 253.961 8.54135 254.18 8.69068 254.432C8.84001 254.675 8.91468 254.931 8.91468 255.202C8.91468 255.407 8.89601 255.571 8.85868 255.692C8.82135 255.813 8.77001 255.911 8.70468 255.986C8.63935 256.051 8.56468 256.098 8.48068 256.126C8.39668 256.145 8.31268 256.154 8.22868 256.154C7.94868 256.154 7.74335 256.098 7.61268 255.986C7.49135 255.865 7.39801 255.72 7.33268 255.552C7.26735 255.375 7.21601 255.183 7.17868 254.978C7.14135 254.773 7.07601 254.586 6.98268 254.418C6.88935 254.241 6.74468 254.096 6.54868 253.984C6.36201 253.863 6.08668 253.802 5.72268 253.802C5.31201 253.802 4.96668 253.919 4.68668 254.152C4.41601 254.376 4.19201 254.689 4.01468 255.09C3.84668 255.482 3.72535 255.944 3.65068 256.476C3.57601 257.008 3.53868 257.573 3.53868 258.17C3.53868 258.767 3.57601 259.332 3.65068 259.864C3.72535 260.396 3.84668 260.863 4.01468 261.264C4.19201 261.656 4.42068 261.969 4.70068 262.202C4.98068 262.426 5.32601 262.538 5.73668 262.538ZM12.6887 259.92V262.3C12.6887 262.552 12.6467 262.753 12.5627 262.902C12.488 263.051 12.3667 263.126 12.1987 263.126C12.0587 263.126 11.9187 263.121 11.7787 263.112C11.648 263.103 11.5313 263.07 11.4287 263.014C11.326 262.967 11.242 262.888 11.1767 262.776C11.1113 262.664 11.0787 262.501 11.0787 262.286V256.812C11.0787 256.551 11.116 256.345 11.1907 256.196C11.2653 256.047 11.3913 255.972 11.5687 255.972C11.7087 255.972 11.844 255.977 11.9747 255.986C12.1147 255.995 12.236 256.028 12.3387 256.084C12.4413 256.131 12.5253 256.215 12.5907 256.336C12.656 256.448 12.6887 256.611 12.6887 256.826V259.43H15.3207V256.812C15.3207 256.551 15.358 256.345 15.4327 256.196C15.5073 256.047 15.638 255.972 15.8247 255.972C15.9647 255.972 16.1 255.977 16.2307 255.986C16.3613 255.995 16.478 256.028 16.5807 256.084C16.6833 256.131 16.7673 256.215 16.8327 256.336C16.898 256.448 16.9307 256.611 16.9307 256.826V262.3C16.9307 262.552 16.8933 262.753 16.8187 262.902C16.744 263.051 16.618 263.126 16.4407 263.126C16.3007 263.126 16.1653 263.121 16.0347 263.112C15.904 263.103 15.7827 263.07 15.6707 263.014C15.568 262.967 15.484 262.888 15.4187 262.776C15.3533 262.664 15.3207 262.501 15.3207 262.286V259.92H12.6887ZM24.0991 256.812C24.0991 256.551 24.1364 256.345 24.2111 256.196C24.2951 256.047 24.4258 255.972 24.6031 255.972C24.7431 255.972 24.8784 255.977 25.0091 255.986C25.1491 255.995 25.2704 256.028 25.3731 256.084C25.4758 256.131 25.5598 256.215 25.6251 256.336C25.6904 256.448 25.7231 256.611 25.7231 256.826V260.214C25.7231 260.849 25.6204 261.362 25.4151 261.754C25.2191 262.137 24.9578 262.431 24.6311 262.636C24.3138 262.841 23.9544 262.977 23.5531 263.042C23.1611 263.107 22.7691 263.14 22.3771 263.14C22.0691 263.14 21.7238 263.117 21.3411 263.07C20.9678 263.023 20.6131 262.916 20.2771 262.748C19.9504 262.58 19.6751 262.333 19.4511 262.006C19.2271 261.67 19.1151 261.217 19.1151 260.648V256.812C19.1151 256.551 19.1524 256.345 19.2271 256.196C19.3018 256.047 19.4278 255.972 19.6051 255.972C19.7451 255.972 19.8804 255.977 20.0111 255.986C20.1511 255.995 20.2724 256.028 20.3751 256.084C20.4778 256.131 20.5618 256.215 20.6271 256.336C20.6924 256.448 20.7251 256.611 20.7251 256.826V260.746C20.7251 261.325 20.8744 261.796 21.1731 262.16C21.4811 262.515 21.8824 262.692 22.3771 262.692C22.7131 262.692 22.9884 262.613 23.2031 262.454C23.4271 262.295 23.6044 262.095 23.7351 261.852C23.8658 261.6 23.9591 261.329 24.0151 261.04C24.0711 260.741 24.0991 260.457 24.0991 260.186V256.812ZM34.8827 262.3C34.8827 262.561 34.8454 262.767 34.7707 262.916C34.696 263.065 34.57 263.14 34.3927 263.14C34.2527 263.14 34.1174 263.135 33.9867 263.126C33.856 263.117 33.7347 263.084 33.6227 263.028C33.52 262.981 33.436 262.902 33.3707 262.79C33.3054 262.669 33.2727 262.501 33.2727 262.286V257.582L31.3687 260.466L29.4367 258.058V262.3C29.4367 262.561 29.3947 262.767 29.3107 262.916C29.236 263.065 29.1147 263.14 28.9467 263.14C28.8067 263.14 28.6667 263.135 28.5267 263.126C28.396 263.117 28.2794 263.084 28.1767 263.028C28.074 262.981 27.99 262.902 27.9247 262.79C27.8594 262.669 27.8267 262.501 27.8267 262.286V256.798C27.8267 256.537 27.878 256.331 27.9807 256.182C28.0834 256.033 28.2234 255.958 28.4007 255.958C28.5687 255.958 28.7134 255.963 28.8347 255.972C28.9654 255.972 29.0867 255.995 29.1987 256.042C29.3107 256.089 29.4227 256.168 29.5347 256.28C29.656 256.383 29.796 256.532 29.9547 256.728L31.7047 258.884L33.2167 256.658C33.2074 256.425 33.2587 256.252 33.3707 256.14C33.4827 256.019 33.632 255.958 33.8187 255.958C33.9587 255.958 34.0894 255.963 34.2107 255.972C34.3414 255.981 34.4534 256.014 34.5467 256.07C34.6494 256.117 34.7287 256.201 34.7847 256.322C34.85 256.434 34.8827 256.597 34.8827 256.812V262.3ZM40.2023 258.198C40.2023 257.769 40.1696 257.433 40.1043 257.19C40.0389 256.947 39.9503 256.77 39.8383 256.658C39.7356 256.546 39.6189 256.495 39.4883 256.504C39.3669 256.504 39.2456 256.532 39.1243 256.588C39.0029 256.644 38.8909 256.719 38.7883 256.812C38.6949 256.896 38.6249 256.971 38.5783 257.036V260.55C39.1663 260.382 39.5816 260.102 39.8243 259.71C40.0763 259.318 40.2023 258.814 40.2023 258.198ZM36.9683 256.756C36.9683 256.504 37.0056 256.303 37.0803 256.154C37.1643 255.995 37.2903 255.916 37.4583 255.916C37.7383 255.916 37.9856 255.949 38.2003 256.014C38.4149 256.079 38.5363 256.252 38.5643 256.532C38.6763 256.401 38.8489 256.266 39.0823 256.126C39.3156 255.977 39.6003 255.902 39.9363 255.902C40.4963 255.902 40.9489 256.051 41.2943 256.35C41.6396 256.649 41.8123 257.134 41.8123 257.806C41.8123 257.974 41.7796 258.198 41.7143 258.478C41.6583 258.749 41.5229 259.038 41.3083 259.346C41.0936 259.645 40.7669 259.939 40.3283 260.228C39.8989 260.508 39.3156 260.741 38.5783 260.928V265.072C38.5783 265.315 38.5549 265.515 38.5083 265.674C38.4616 265.833 38.3543 265.912 38.1863 265.912C38.0743 265.912 37.9436 265.884 37.7943 265.828C37.6543 265.772 37.5236 265.688 37.4023 265.576C37.2809 265.464 37.1783 265.329 37.0943 265.17C37.0103 265.021 36.9683 264.848 36.9683 264.652V256.756ZM45.5148 259.92V262.3C45.5148 262.552 45.4728 262.753 45.3888 262.902C45.3142 263.051 45.1928 263.126 45.0248 263.126C44.8848 263.126 44.7448 263.121 44.6048 263.112C44.4742 263.103 44.3575 263.07 44.2548 263.014C44.1522 262.967 44.0682 262.888 44.0028 262.776C43.9375 262.664 43.9048 262.501 43.9048 262.286V256.812C43.9048 256.551 43.9422 256.345 44.0168 256.196C44.0915 256.047 44.2175 255.972 44.3948 255.972C44.5348 255.972 44.6702 255.977 44.8008 255.986C44.9408 255.995 45.0622 256.028 45.1648 256.084C45.2675 256.131 45.3515 256.215 45.4168 256.336C45.4822 256.448 45.5148 256.611 45.5148 256.826V259.43H48.1468V256.812C48.1468 256.551 48.1842 256.345 48.2588 256.196C48.3335 256.047 48.4642 255.972 48.6508 255.972C48.7908 255.972 48.9262 255.977 49.0568 255.986C49.1875 255.995 49.3042 256.028 49.4068 256.084C49.5095 256.131 49.5935 256.215 49.6588 256.336C49.7242 256.448 49.7568 256.611 49.7568 256.826V262.3C49.7568 262.552 49.7195 262.753 49.6448 262.902C49.5702 263.051 49.4442 263.126 49.2668 263.126C49.1268 263.126 48.9915 263.121 48.8608 263.112C48.7302 263.103 48.6088 263.07 48.4968 263.014C48.3942 262.967 48.3102 262.888 48.2448 262.776C48.1795 262.664 48.1468 262.501 48.1468 262.286V259.92H45.5148ZM58.7033 259.528C58.7033 260.032 58.6099 260.503 58.4233 260.942C58.2459 261.381 57.9986 261.763 57.6813 262.09C57.3639 262.417 56.9906 262.673 56.5613 262.86C56.1413 263.047 55.6886 263.14 55.2033 263.14C54.7179 263.14 54.2606 263.047 53.8313 262.86C53.4113 262.673 53.0426 262.417 52.7253 262.09C52.4173 261.763 52.1699 261.381 51.9833 260.942C51.8059 260.503 51.7173 260.032 51.7173 259.528C51.7173 259.024 51.8059 258.553 51.9833 258.114C52.1699 257.675 52.4173 257.293 52.7253 256.966C53.0426 256.63 53.4113 256.369 53.8313 256.182C54.2606 255.995 54.7179 255.902 55.2033 255.902C55.6886 255.902 56.1413 255.995 56.5613 256.182C56.9906 256.369 57.3639 256.63 57.6813 256.966C57.9986 257.293 58.2459 257.675 58.4233 258.114C58.6099 258.553 58.7033 259.024 58.7033 259.528ZM56.9533 259.528C56.9533 259.099 56.9206 258.693 56.8553 258.31C56.7993 257.918 56.7013 257.582 56.5613 257.302C56.4306 257.013 56.2533 256.784 56.0293 256.616C55.8053 256.448 55.5299 256.364 55.2033 256.364C54.8766 256.364 54.6013 256.448 54.3773 256.616C54.1533 256.784 53.9713 257.013 53.8313 257.302C53.7006 257.582 53.6026 257.918 53.5373 258.31C53.4813 258.693 53.4533 259.099 53.4533 259.528C53.4533 259.957 53.4813 260.363 53.5373 260.746C53.6026 261.129 53.7006 261.465 53.8313 261.754C53.9713 262.043 54.1533 262.272 54.3773 262.44C54.6013 262.608 54.8766 262.692 55.2033 262.692C55.5673 262.692 55.8613 262.608 56.0853 262.44C56.3093 262.272 56.4866 262.043 56.6173 261.754C56.7479 261.465 56.8366 261.129 56.8833 260.746C56.9299 260.363 56.9533 259.957 56.9533 259.528ZM64.8949 256.812C64.8949 256.551 64.9322 256.345 65.0069 256.196C65.0815 256.037 65.2122 255.958 65.3989 255.958C65.5389 255.958 65.6742 255.963 65.8049 255.972C65.9355 255.981 66.0522 256.014 66.1549 256.07C66.2575 256.117 66.3415 256.201 66.4069 256.322C66.4722 256.434 66.5049 256.597 66.5049 256.812V262.3C66.5049 262.561 66.4675 262.767 66.3929 262.916C66.3182 263.065 66.1922 263.14 66.0149 263.14C65.8749 263.14 65.7442 263.14 65.6229 263.14C65.5015 263.149 65.3849 263.131 65.2729 263.084C65.1609 263.047 65.0535 262.972 64.9509 262.86C64.8482 262.748 64.7409 262.58 64.6289 262.356L62.2629 257.372V262.3C62.2629 262.561 62.2209 262.767 62.1369 262.916C62.0622 263.065 61.9409 263.14 61.7729 263.14C61.6329 263.14 61.4929 263.135 61.3529 263.126C61.2222 263.117 61.1055 263.084 61.0029 263.028C60.9002 262.981 60.8162 262.902 60.7509 262.79C60.6855 262.669 60.6529 262.501 60.6529 262.286V256.798C60.6529 256.537 60.6902 256.331 60.7649 256.182C60.8395 256.033 60.9655 255.958 61.1429 255.958C61.2829 255.958 61.4135 255.953 61.5349 255.944C61.6562 255.935 61.7729 255.949 61.8849 255.986C61.9969 256.023 62.1042 256.093 62.2069 256.196C62.3189 256.299 62.4262 256.462 62.5289 256.686L64.8949 261.684V256.812Z" fill="black"/>
<g clip-path="url(#clip0_576_51)" filter="url(#filter0_i_576_51)">
<path fill-rule="evenodd" clip-rule="evenodd" d="M72.875 251.971C72.875 246.553 77.1788 242.171 82.5 242.171C87.8212 242.171 92.125 246.553 92.125 251.971C92.125 257.809 86.0475 265.859 83.5588 268.925C83.0088 269.597 82.005 269.597 81.455 268.925C78.9525 265.859 72.875 257.809 72.875 251.971ZM79.0625 251.971C79.0625 253.903 80.6025 255.471 82.5 255.471C84.3975 255.471 85.9375 253.903 85.9375 251.971C85.9375 250.039 84.3975 248.471 82.5 248.471C80.6025 248.471 79.0625 250.039 79.0625 251.971Z" fill="#767A5C"/>
</g>
<path d="M200.905 400.17C200.905 400.562 200.9 400.945 200.891 401.318C200.882 401.691 200.947 402.023 201.087 402.312C201.208 402.555 201.414 402.741 201.703 402.872C201.992 402.993 202.314 403.101 202.669 403.194C203.033 403.278 203.411 403.371 203.803 403.474C204.195 403.577 204.55 403.731 204.867 403.936C205.194 404.132 205.46 404.403 205.665 404.748C205.87 405.093 205.973 405.555 205.973 406.134C205.973 406.545 205.912 406.918 205.791 407.254C205.67 407.599 205.502 407.893 205.287 408.136C205.072 408.388 204.816 408.584 204.517 408.724C204.218 408.864 203.892 408.934 203.537 408.934C203.369 408.934 203.243 408.873 203.159 408.752C203.075 408.64 203.033 408.491 203.033 408.304C203.033 408.089 203.08 407.94 203.173 407.856C203.266 407.781 203.383 407.73 203.523 407.702C203.672 407.683 203.826 407.669 203.985 407.66C204.153 407.651 204.307 407.604 204.447 407.52C204.596 407.445 204.718 407.31 204.811 407.114C204.904 406.927 204.951 406.643 204.951 406.26C204.951 405.999 204.9 405.798 204.797 405.658C204.704 405.527 204.573 405.429 204.405 405.364C204.246 405.299 204.06 405.257 203.845 405.238C203.64 405.229 203.42 405.215 203.187 405.196H203.089C202.482 405.196 201.913 405.065 201.381 404.804C200.849 404.543 200.387 404.183 199.995 403.726C199.603 403.269 199.29 402.737 199.057 402.13C198.833 401.523 198.721 400.87 198.721 400.17C198.721 399.47 198.833 398.817 199.057 398.21C199.29 397.603 199.603 397.071 199.995 396.614C200.387 396.157 200.849 395.797 201.381 395.536C201.913 395.275 202.482 395.144 203.089 395.144C203.574 395.144 204.013 395.2 204.405 395.312C204.797 395.424 205.133 395.578 205.413 395.774C205.693 395.961 205.908 396.18 206.057 396.432C206.206 396.675 206.281 396.931 206.281 397.202C206.281 397.407 206.262 397.571 206.225 397.692C206.188 397.813 206.136 397.911 206.071 397.986C206.006 398.051 205.931 398.098 205.847 398.126C205.763 398.145 205.679 398.154 205.595 398.154C205.315 398.154 205.11 398.098 204.979 397.986C204.858 397.865 204.764 397.72 204.699 397.552C204.634 397.375 204.582 397.183 204.545 396.978C204.508 396.773 204.442 396.586 204.349 396.418C204.256 396.241 204.111 396.096 203.915 395.984C203.728 395.863 203.453 395.802 203.089 395.802C202.678 395.802 202.333 395.919 202.053 396.152C201.782 396.376 201.558 396.689 201.381 397.09C201.213 397.482 201.092 397.944 201.017 398.476C200.942 399.008 200.905 399.573 200.905 400.17ZM213.317 398.812C213.317 398.551 213.354 398.345 213.429 398.196C213.513 398.047 213.644 397.972 213.821 397.972C213.961 397.972 214.096 397.977 214.227 397.986C214.367 397.995 214.488 398.028 214.591 398.084C214.694 398.131 214.778 398.215 214.843 398.336C214.908 398.448 214.941 398.611 214.941 398.826V402.214C214.941 402.849 214.838 403.362 214.633 403.754C214.437 404.137 214.176 404.431 213.849 404.636C213.532 404.841 213.172 404.977 212.771 405.042C212.379 405.107 211.987 405.14 211.595 405.14C211.287 405.14 210.942 405.117 210.559 405.07C210.186 405.023 209.831 404.916 209.495 404.748C209.168 404.58 208.893 404.333 208.669 404.006C208.445 403.67 208.333 403.217 208.333 402.648V398.812C208.333 398.551 208.37 398.345 208.445 398.196C208.52 398.047 208.646 397.972 208.823 397.972C208.963 397.972 209.098 397.977 209.229 397.986C209.369 397.995 209.49 398.028 209.593 398.084C209.696 398.131 209.78 398.215 209.845 398.336C209.91 398.448 209.943 398.611 209.943 398.826V402.746C209.943 403.325 210.092 403.796 210.391 404.16C210.699 404.515 211.1 404.692 211.595 404.692C211.931 404.692 212.206 404.613 212.421 404.454C212.645 404.295 212.822 404.095 212.953 403.852C213.084 403.6 213.177 403.329 213.233 403.04C213.289 402.741 213.317 402.457 213.317 402.186V398.812ZM220.53 399.876C220.53 399.559 220.488 399.307 220.404 399.12C220.33 398.933 220.227 398.793 220.096 398.7C219.975 398.607 219.84 398.56 219.69 398.56C219.55 398.551 219.41 398.565 219.27 398.602C219.13 398.639 219.004 398.695 218.892 398.77C218.78 398.835 218.701 398.901 218.654 398.966V401.29C218.944 401.29 219.2 401.276 219.424 401.248C219.658 401.211 219.854 401.141 220.012 401.038C220.18 400.935 220.306 400.795 220.39 400.618C220.484 400.431 220.53 400.184 220.53 399.876ZM218.654 404.328C218.626 404.515 218.575 404.659 218.5 404.762C218.435 404.865 218.351 404.944 218.248 405C218.155 405.047 218.048 405.075 217.926 405.084C217.805 405.093 217.674 405.098 217.534 405.098C217.357 405.098 217.231 405.028 217.156 404.888C217.082 404.739 217.044 404.529 217.044 404.258V398.812C217.044 398.597 217.077 398.434 217.142 398.322C217.208 398.201 217.292 398.117 217.394 398.07C217.497 398.014 217.614 397.981 217.744 397.972C217.884 397.963 218.024 397.958 218.164 397.958C218.332 397.958 218.444 398.019 218.5 398.14C218.566 398.261 218.608 398.397 218.626 398.546C218.738 398.406 218.92 398.285 219.172 398.182C219.434 398.07 219.732 398.014 220.068 398.014C220.33 398.014 220.586 398.042 220.838 398.098C221.09 398.145 221.31 398.229 221.496 398.35C221.692 398.471 221.846 398.639 221.958 398.854C222.08 399.059 222.14 399.321 222.14 399.638C222.14 399.806 222.103 399.983 222.028 400.17C221.954 400.347 221.842 400.525 221.692 400.702C221.543 400.87 221.361 401.029 221.146 401.178C220.932 401.318 220.684 401.43 220.404 401.514L222.308 404.048C222.598 404.44 222.71 404.711 222.644 404.86C222.579 405.009 222.355 405.084 221.972 405.084C221.888 405.084 221.814 405.084 221.748 405.084C221.683 405.084 221.618 405.075 221.552 405.056C221.487 405.037 221.417 405.005 221.342 404.958C221.277 404.911 221.198 404.837 221.104 404.734L219.158 401.668C219 401.668 218.832 401.654 218.654 401.626V404.328ZM228.296 403.166C228.249 403.101 228.207 403.035 228.17 402.97C228.133 402.914 228.086 402.849 228.03 402.774C227.983 402.699 227.937 402.625 227.89 402.55C227.769 402.373 227.633 402.163 227.484 401.92C227.204 402.461 226.896 402.905 226.56 403.25C226.233 403.595 225.813 403.847 225.3 404.006C225.505 404.109 225.734 404.174 225.986 404.202C226.238 404.221 226.495 404.197 226.756 404.132C227.017 404.067 227.279 403.959 227.54 403.81C227.801 403.651 228.053 403.437 228.296 403.166ZM225.594 399.092C225.37 398.747 225.286 398.485 225.342 398.308C225.407 398.121 225.603 398.028 225.93 398.028C226.145 398.028 226.317 398.042 226.448 398.07C226.588 398.089 226.719 398.187 226.84 398.364L230.564 403.964C230.797 404.319 230.9 404.589 230.872 404.776C230.844 404.963 230.615 405.056 230.186 405.056C229.971 405.056 229.794 405.037 229.654 405C229.523 404.953 229.402 404.841 229.29 404.664L228.45 403.404C228.03 403.889 227.54 404.281 226.98 404.58C226.429 404.869 225.888 405.014 225.356 405.014C224.964 405.014 224.661 404.972 224.446 404.888C224.241 404.795 224.138 404.669 224.138 404.51C224.138 404.295 224.199 404.146 224.32 404.062C224.451 403.978 224.595 403.894 224.754 403.81C225.053 403.651 225.305 403.469 225.51 403.264C225.725 403.059 225.902 402.83 226.042 402.578C226.191 402.317 226.313 402.037 226.406 401.738C226.499 401.43 226.583 401.094 226.658 400.73L225.594 399.092ZM236.344 404.02C236.344 404.216 236.302 404.393 236.218 404.552C236.134 404.701 236.031 404.832 235.91 404.944C235.788 405.056 235.653 405.14 235.504 405.196C235.364 405.252 235.238 405.28 235.126 405.28C234.958 405.28 234.85 405.201 234.804 405.042C234.757 404.883 234.734 404.683 234.734 404.44V398.532H233.404C233.348 398.803 233.254 399.022 233.124 399.19C232.993 399.358 232.797 399.442 232.536 399.442C232.256 399.442 232.064 399.377 231.962 399.246C231.868 399.106 231.822 398.957 231.822 398.798C231.822 398.583 231.878 398.406 231.99 398.266C232.102 398.117 232.307 398.042 232.606 398.042H238.486C238.775 398.042 238.976 398.117 239.088 398.266C239.209 398.406 239.27 398.583 239.27 398.798C239.27 398.957 239.218 399.106 239.116 399.246C239.013 399.377 238.822 399.442 238.542 399.442C238.28 399.442 238.084 399.358 237.954 399.19C237.823 399.022 237.73 398.803 237.674 398.532H236.344V404.02ZM250.168 403.642C250.168 403.913 250.116 404.155 250.014 404.37C249.911 404.585 249.78 404.771 249.622 404.93C249.472 405.079 249.309 405.191 249.132 405.266C248.954 405.35 248.796 405.392 248.656 405.392C248.441 405.392 248.301 405.28 248.236 405.056C248.18 404.841 248.152 404.566 248.152 404.23V396.012H246.5C246.425 396.385 246.304 396.693 246.136 396.936C245.977 397.169 245.734 397.286 245.408 397.286C245.23 397.286 245.086 397.263 244.974 397.216C244.862 397.16 244.768 397.09 244.694 397.006C244.628 396.922 244.582 396.829 244.554 396.726C244.526 396.614 244.512 396.502 244.512 396.39C244.512 396.091 244.582 395.844 244.722 395.648C244.871 395.443 245.128 395.34 245.492 395.34H252.842C253.206 395.34 253.458 395.443 253.598 395.648C253.747 395.844 253.822 396.091 253.822 396.39C253.822 396.605 253.756 396.81 253.626 397.006C253.504 397.193 253.271 397.286 252.926 397.286C252.599 397.286 252.352 397.169 252.184 396.936C252.025 396.693 251.908 396.385 251.834 396.012H250.168V403.642ZM257.168 401.92V404.3C257.168 404.552 257.126 404.753 257.042 404.902C256.967 405.051 256.846 405.126 256.678 405.126C256.538 405.126 256.398 405.121 256.258 405.112C256.127 405.103 256.011 405.07 255.908 405.014C255.805 404.967 255.721 404.888 255.656 404.776C255.591 404.664 255.558 404.501 255.558 404.286V398.812C255.558 398.551 255.595 398.345 255.67 398.196C255.745 398.047 255.871 397.972 256.048 397.972C256.188 397.972 256.323 397.977 256.454 397.986C256.594 397.995 256.715 398.028 256.818 398.084C256.921 398.131 257.005 398.215 257.07 398.336C257.135 398.448 257.168 398.611 257.168 398.826V401.43H259.8V398.812C259.8 398.551 259.837 398.345 259.912 398.196C259.987 398.047 260.117 397.972 260.304 397.972C260.444 397.972 260.579 397.977 260.71 397.986C260.841 397.995 260.957 398.028 261.06 398.084C261.163 398.131 261.247 398.215 261.312 398.336C261.377 398.448 261.41 398.611 261.41 398.826V404.3C261.41 404.552 261.373 404.753 261.298 404.902C261.223 405.051 261.097 405.126 260.92 405.126C260.78 405.126 260.645 405.121 260.514 405.112C260.383 405.103 260.262 405.07 260.15 405.014C260.047 404.967 259.963 404.888 259.898 404.776C259.833 404.664 259.8 404.501 259.8 404.286V401.92H257.168ZM267.193 403.166C267.146 403.101 267.104 403.035 267.067 402.97C267.029 402.914 266.983 402.849 266.927 402.774C266.88 402.699 266.833 402.625 266.787 402.55C266.665 402.373 266.53 402.163 266.381 401.92C266.101 402.461 265.793 402.905 265.457 403.25C265.13 403.595 264.71 403.847 264.197 404.006C264.402 404.109 264.631 404.174 264.883 404.202C265.135 404.221 265.391 404.197 265.653 404.132C265.914 404.067 266.175 403.959 266.437 403.81C266.698 403.651 266.95 403.437 267.193 403.166ZM264.491 399.092C264.267 398.747 264.183 398.485 264.239 398.308C264.304 398.121 264.5 398.028 264.827 398.028C265.041 398.028 265.214 398.042 265.345 398.07C265.485 398.089 265.615 398.187 265.737 398.364L269.461 403.964C269.694 404.319 269.797 404.589 269.769 404.776C269.741 404.963 269.512 405.056 269.083 405.056C268.868 405.056 268.691 405.037 268.551 405C268.42 404.953 268.299 404.841 268.187 404.664L267.347 403.404C266.927 403.889 266.437 404.281 265.877 404.58C265.326 404.869 264.785 405.014 264.253 405.014C263.861 405.014 263.557 404.972 263.343 404.888C263.137 404.795 263.035 404.669 263.035 404.51C263.035 404.295 263.095 404.146 263.217 404.062C263.347 403.978 263.492 403.894 263.651 403.81C263.949 403.651 264.201 403.469 264.407 403.264C264.621 403.059 264.799 402.83 264.939 402.578C265.088 402.317 265.209 402.037 265.303 401.738C265.396 401.43 265.48 401.094 265.555 400.73L264.491 399.092ZM275.632 398.812C275.632 398.551 275.67 398.345 275.744 398.196C275.819 398.037 275.95 397.958 276.136 397.958C276.276 397.958 276.412 397.963 276.542 397.972C276.673 397.981 276.79 398.014 276.892 398.07C276.995 398.117 277.079 398.201 277.144 398.322C277.21 398.434 277.242 398.597 277.242 398.812V404.3C277.242 404.561 277.205 404.767 277.13 404.916C277.056 405.065 276.93 405.14 276.752 405.14C276.612 405.14 276.482 405.14 276.36 405.14C276.239 405.149 276.122 405.131 276.01 405.084C275.898 405.047 275.791 404.972 275.688 404.86C275.586 404.748 275.478 404.58 275.366 404.356L273 399.372V404.3C273 404.561 272.958 404.767 272.874 404.916C272.8 405.065 272.678 405.14 272.51 405.14C272.37 405.14 272.23 405.135 272.09 405.126C271.96 405.117 271.843 405.084 271.74 405.028C271.638 404.981 271.554 404.902 271.488 404.79C271.423 404.669 271.39 404.501 271.39 404.286V398.798C271.39 398.537 271.428 398.331 271.502 398.182C271.577 398.033 271.703 397.958 271.88 397.958C272.02 397.958 272.151 397.953 272.272 397.944C272.394 397.935 272.51 397.949 272.622 397.986C272.734 398.023 272.842 398.093 272.944 398.196C273.056 398.299 273.164 398.462 273.266 398.686L275.632 403.684V398.812ZM279.539 398.812C279.539 398.551 279.576 398.345 279.651 398.196C279.725 398.047 279.851 397.972 280.029 397.972C280.169 397.972 280.304 397.977 280.435 397.986C280.575 397.995 280.696 398.028 280.799 398.084C280.901 398.131 280.985 398.215 281.051 398.336C281.116 398.448 281.149 398.611 281.149 398.826V404.3C281.149 404.552 281.107 404.753 281.023 404.902C280.948 405.051 280.827 405.126 280.659 405.126C280.519 405.126 280.379 405.121 280.239 405.112C280.108 405.103 279.991 405.07 279.889 405.014C279.786 404.967 279.702 404.888 279.637 404.776C279.571 404.664 279.539 404.501 279.539 404.286V398.812Z" fill="black"/>
<g filter="url(#filter1_i_576_51)">
<path fill-rule="evenodd" clip-rule="evenodd" d="M293.375 391.971C293.375 386.553 297.679 382.171 303 382.171C308.321 382.171 312.625 386.553 312.625 391.971C312.625 397.809 306.547 405.859 304.059 408.925C303.509 409.597 302.505 409.597 301.955 408.925C299.452 405.859 293.375 397.809 293.375 391.971ZM299.562 391.971C299.562 393.903 301.102 395.471 303 395.471C304.898 395.471 306.438 393.903 306.438 391.971C306.438 390.039 304.898 388.471 303 388.471C301.102 388.471 299.562 390.039 299.562 391.971Z" fill="#767A5C"/>
</g>
<path d="M412.866 433.322C412.866 432.725 412.824 432.258 412.74 431.922C412.656 431.577 412.549 431.334 412.418 431.194C412.288 431.045 412.143 430.97 411.984 430.97C411.826 430.97 411.672 431.012 411.522 431.096C411.373 431.171 411.238 431.273 411.116 431.404C410.995 431.525 410.906 431.628 410.85 431.712V436.598C411.578 436.365 412.096 435.973 412.404 435.422C412.712 434.871 412.866 434.171 412.866 433.322ZM408.834 431.32C408.834 430.965 408.881 430.685 408.974 430.48C409.077 430.265 409.236 430.158 409.45 430.158C409.628 430.158 409.796 430.167 409.954 430.186C410.113 430.205 410.253 430.242 410.374 430.298C410.496 430.354 410.594 430.443 410.668 430.564C410.752 430.676 410.804 430.83 410.822 431.026C410.888 430.933 410.976 430.835 411.088 430.732C411.2 430.629 411.326 430.536 411.466 430.452C411.616 430.359 411.779 430.284 411.956 430.228C412.134 430.172 412.33 430.144 412.544 430.144C412.89 430.144 413.207 430.195 413.496 430.298C413.786 430.391 414.033 430.545 414.238 430.76C414.444 430.975 414.602 431.25 414.714 431.586C414.826 431.922 414.882 432.323 414.882 432.79C414.882 433.033 414.845 433.345 414.77 433.728C414.705 434.101 414.532 434.498 414.252 434.918C413.982 435.338 413.576 435.749 413.034 436.15C412.502 436.542 411.774 436.869 410.85 437.13V442.884C410.85 443.22 410.818 443.495 410.752 443.71C410.696 443.934 410.561 444.046 410.346 444.046C410.206 444.046 410.048 444.004 409.87 443.92C409.693 443.845 409.525 443.729 409.366 443.57C409.217 443.421 409.091 443.239 408.988 443.024C408.886 442.809 408.834 442.567 408.834 442.296V431.32ZM420.236 438.166C420.189 438.101 420.147 438.035 420.11 437.97C420.072 437.914 420.026 437.849 419.97 437.774C419.923 437.699 419.876 437.625 419.83 437.55C419.708 437.373 419.573 437.163 419.424 436.92C419.144 437.461 418.836 437.905 418.5 438.25C418.173 438.595 417.753 438.847 417.24 439.006C417.445 439.109 417.674 439.174 417.926 439.202C418.178 439.221 418.434 439.197 418.696 439.132C418.957 439.067 419.218 438.959 419.48 438.81C419.741 438.651 419.993 438.437 420.236 438.166ZM417.534 434.092C417.31 433.747 417.226 433.485 417.282 433.308C417.347 433.121 417.543 433.028 417.87 433.028C418.084 433.028 418.257 433.042 418.388 433.07C418.528 433.089 418.658 433.187 418.78 433.364L422.504 438.964C422.737 439.319 422.84 439.589 422.812 439.776C422.784 439.963 422.555 440.056 422.126 440.056C421.911 440.056 421.734 440.037 421.594 440C421.463 439.953 421.342 439.841 421.23 439.664L420.39 438.404C419.97 438.889 419.48 439.281 418.92 439.58C418.369 439.869 417.828 440.014 417.296 440.014C416.904 440.014 416.6 439.972 416.386 439.888C416.18 439.795 416.078 439.669 416.078 439.51C416.078 439.295 416.138 439.146 416.26 439.062C416.39 438.978 416.535 438.894 416.694 438.81C416.992 438.651 417.244 438.469 417.45 438.264C417.664 438.059 417.842 437.83 417.982 437.578C418.131 437.317 418.252 437.037 418.346 436.738C418.439 436.43 418.523 436.094 418.598 435.73L417.534 434.092ZM428.283 439.02C428.283 439.216 428.241 439.393 428.157 439.552C428.073 439.701 427.97 439.832 427.849 439.944C427.728 440.056 427.592 440.14 427.443 440.196C427.303 440.252 427.177 440.28 427.065 440.28C426.897 440.28 426.79 440.201 426.743 440.042C426.696 439.883 426.673 439.683 426.673 439.44V433.532H425.343C425.287 433.803 425.194 434.022 425.063 434.19C424.932 434.358 424.736 434.442 424.475 434.442C424.195 434.442 424.004 434.377 423.901 434.246C423.808 434.106 423.761 433.957 423.761 433.798C423.761 433.583 423.817 433.406 423.929 433.266C424.041 433.117 424.246 433.042 424.545 433.042H430.425C430.714 433.042 430.915 433.117 431.027 433.266C431.148 433.406 431.209 433.583 431.209 433.798C431.209 433.957 431.158 434.106 431.055 434.246C430.952 434.377 430.761 434.442 430.481 434.442C430.22 434.442 430.024 434.358 429.893 434.19C429.762 434.022 429.669 433.803 429.613 433.532H428.283V439.02ZM436.664 439.02C436.664 439.216 436.622 439.393 436.538 439.552C436.454 439.701 436.351 439.832 436.23 439.944C436.109 440.056 435.973 440.14 435.824 440.196C435.684 440.252 435.558 440.28 435.446 440.28C435.278 440.28 435.171 440.201 435.124 440.042C435.077 439.883 435.054 439.683 435.054 439.44V433.532H433.724C433.668 433.803 433.575 434.022 433.444 434.19C433.313 434.358 433.117 434.442 432.856 434.442C432.576 434.442 432.385 434.377 432.282 434.246C432.189 434.106 432.142 433.957 432.142 433.798C432.142 433.583 432.198 433.406 432.31 433.266C432.422 433.117 432.627 433.042 432.926 433.042H438.806C439.095 433.042 439.296 433.117 439.408 433.266C439.529 433.406 439.59 433.583 439.59 433.798C439.59 433.957 439.539 434.106 439.436 434.246C439.333 434.377 439.142 434.442 438.862 434.442C438.601 434.442 438.405 434.358 438.274 434.19C438.143 434.022 438.05 433.803 437.994 433.532H436.664V439.02ZM444.681 438.166C444.634 438.101 444.592 438.035 444.555 437.97C444.518 437.914 444.471 437.849 444.415 437.774C444.368 437.699 444.322 437.625 444.275 437.55C444.154 437.373 444.018 437.163 443.869 436.92C443.589 437.461 443.281 437.905 442.945 438.25C442.618 438.595 442.198 438.847 441.685 439.006C441.89 439.109 442.119 439.174 442.371 439.202C442.623 439.221 442.88 439.197 443.141 439.132C443.402 439.067 443.664 438.959 443.925 438.81C444.186 438.651 444.438 438.437 444.681 438.166ZM441.979 434.092C441.755 433.747 441.671 433.485 441.727 433.308C441.792 433.121 441.988 433.028 442.315 433.028C442.53 433.028 442.702 433.042 442.833 433.07C442.973 433.089 443.104 433.187 443.225 433.364L446.949 438.964C447.182 439.319 447.285 439.589 447.257 439.776C447.229 439.963 447 440.056 446.571 440.056C446.356 440.056 446.179 440.037 446.039 440C445.908 439.953 445.787 439.841 445.675 439.664L444.835 438.404C444.415 438.889 443.925 439.281 443.365 439.58C442.814 439.869 442.273 440.014 441.741 440.014C441.349 440.014 441.046 439.972 440.831 439.888C440.626 439.795 440.523 439.669 440.523 439.51C440.523 439.295 440.584 439.146 440.705 439.062C440.836 438.978 440.98 438.894 441.139 438.81C441.438 438.651 441.69 438.469 441.895 438.264C442.11 438.059 442.287 437.83 442.427 437.578C442.576 437.317 442.698 437.037 442.791 436.738C442.884 436.43 442.968 436.094 443.043 435.73L441.979 434.092ZM448.878 432.986C448.934 432.986 448.99 432.986 449.046 432.986C449.102 432.977 449.158 432.986 449.214 433.014C449.28 433.033 449.345 433.075 449.41 433.14C449.485 433.196 449.574 433.289 449.676 433.42L452.504 437.214L454.646 434.624C454.646 434.279 454.66 434.003 454.688 433.798C454.726 433.583 454.777 433.42 454.842 433.308C454.917 433.196 455.006 433.121 455.108 433.084C455.22 433.047 455.351 433.028 455.5 433.028C455.743 433.028 455.92 433.107 456.032 433.266C456.144 433.415 456.2 433.667 456.2 434.022C456.2 434.358 456.102 434.629 455.906 434.834C455.72 435.03 455.43 435.128 455.038 435.128L452.924 437.648V441.652C452.924 441.848 452.882 442.021 452.798 442.17C452.714 442.329 452.612 442.464 452.49 442.576C452.369 442.688 452.238 442.772 452.098 442.828C451.958 442.884 451.832 442.912 451.72 442.912C451.552 442.912 451.44 442.833 451.384 442.674C451.338 442.515 451.314 442.315 451.314 442.072V437.998L448.864 434.582C448.687 434.554 448.533 434.479 448.402 434.358C448.272 434.227 448.206 434.045 448.206 433.812C448.206 433.513 448.258 433.303 448.36 433.182C448.463 433.051 448.636 432.986 448.878 432.986ZM461.292 438.166C461.246 438.101 461.204 438.035 461.166 437.97C461.129 437.914 461.082 437.849 461.026 437.774C460.98 437.699 460.933 437.625 460.886 437.55C460.765 437.373 460.63 437.163 460.48 436.92C460.2 437.461 459.892 437.905 459.556 438.25C459.23 438.595 458.81 438.847 458.296 439.006C458.502 439.109 458.73 439.174 458.982 439.202C459.234 439.221 459.491 439.197 459.752 439.132C460.014 439.067 460.275 438.959 460.536 438.81C460.798 438.651 461.05 438.437 461.292 438.166ZM458.59 434.092C458.366 433.747 458.282 433.485 458.338 433.308C458.404 433.121 458.6 433.028 458.926 433.028C459.141 433.028 459.314 433.042 459.444 433.07C459.584 433.089 459.715 433.187 459.836 433.364L463.56 438.964C463.794 439.319 463.896 439.589 463.868 439.776C463.84 439.963 463.612 440.056 463.182 440.056C462.968 440.056 462.79 440.037 462.65 440C462.52 439.953 462.398 439.841 462.286 439.664L461.446 438.404C461.026 438.889 460.536 439.281 459.976 439.58C459.426 439.869 458.884 440.014 458.352 440.014C457.96 440.014 457.657 439.972 457.442 439.888C457.237 439.795 457.134 439.669 457.134 439.51C457.134 439.295 457.195 439.146 457.316 439.062C457.447 438.978 457.592 438.894 457.75 438.81C458.049 438.651 458.301 438.469 458.506 438.264C458.721 438.059 458.898 437.83 459.038 437.578C459.188 437.317 459.309 437.037 459.402 436.738C459.496 436.43 459.58 436.094 459.654 435.73L458.59 434.092Z" fill="black"/>
<g clip-path="url(#clip1_576_51)" filter="url(#filter2_i_576_51)">
<path fill-rule="evenodd" clip-rule="evenodd" d="M480.875 430.971C480.875 425.553 485.179 421.171 490.5 421.171C495.821 421.171 500.125 425.553 500.125 430.971C500.125 436.809 494.047 444.859 491.559 447.925C491.009 448.597 490.005 448.597 489.455 447.925C486.952 444.859 480.875 436.809 480.875 430.971ZM487.062 430.971C487.062 432.903 488.602 434.471 490.5 434.471C492.398 434.471 493.938 432.903 493.938 430.971C493.938 429.039 492.398 427.471 490.5 427.471C488.602 427.471 487.062 429.039 487.062 430.971Z" fill="#767A5C"/>
</g>
<path d="M572.178 390.034C572.178 390.799 571.973 391.182 571.562 391.182C571.385 391.182 571.212 391.173 571.044 391.154C570.876 391.145 570.727 391.103 570.596 391.028C570.466 390.963 570.358 390.851 570.274 390.692C570.2 390.533 570.162 390.305 570.162 390.006V382.404C570.162 382.049 570.209 381.769 570.302 381.564C570.405 381.349 570.564 381.242 570.778 381.242C570.956 381.242 571.128 381.251 571.296 381.27C571.464 381.279 571.614 381.321 571.744 381.396C571.875 381.471 571.978 381.587 572.052 381.746C572.136 381.905 572.178 382.133 572.178 382.432V386.688L574.67 383.832C574.67 383.337 574.684 382.922 574.712 382.586C574.75 382.25 574.806 381.984 574.88 381.788C574.964 381.583 575.072 381.438 575.202 381.354C575.342 381.27 575.515 381.228 575.72 381.228C576 381.228 576.215 381.298 576.364 381.438C576.523 381.569 576.602 381.751 576.602 381.984C576.602 382.152 576.57 382.306 576.504 382.446C576.439 382.586 576.341 382.731 576.21 382.88C576.089 383.02 575.935 383.183 575.748 383.37C575.571 383.547 575.37 383.767 575.146 384.028L573.704 385.708L577.288 389.684C577.708 390.151 577.858 390.505 577.736 390.748C577.624 390.991 577.33 391.112 576.854 391.112C576.752 391.112 576.658 391.112 576.574 391.112C576.49 391.112 576.406 391.098 576.322 391.07C576.248 391.042 576.164 390.995 576.07 390.93C575.986 390.865 575.888 390.767 575.776 390.636L572.598 386.954L572.178 387.458V390.034ZM586.751 387.528C586.751 388.032 586.658 388.503 586.471 388.942C586.294 389.381 586.046 389.763 585.729 390.09C585.412 390.417 585.038 390.673 584.609 390.86C584.189 391.047 583.736 391.14 583.251 391.14C582.766 391.14 582.308 391.047 581.879 390.86C581.459 390.673 581.09 390.417 580.773 390.09C580.465 389.763 580.218 389.381 580.031 388.942C579.854 388.503 579.765 388.032 579.765 387.528C579.765 387.024 579.854 386.553 580.031 386.114C580.218 385.675 580.465 385.293 580.773 384.966C581.09 384.63 581.459 384.369 581.879 384.182C582.308 383.995 582.766 383.902 583.251 383.902C583.736 383.902 584.189 383.995 584.609 384.182C585.038 384.369 585.412 384.63 585.729 384.966C586.046 385.293 586.294 385.675 586.471 386.114C586.658 386.553 586.751 387.024 586.751 387.528ZM585.001 387.528C585.001 387.099 584.968 386.693 584.903 386.31C584.847 385.918 584.749 385.582 584.609 385.302C584.478 385.013 584.301 384.784 584.077 384.616C583.853 384.448 583.578 384.364 583.251 384.364C582.924 384.364 582.649 384.448 582.425 384.616C582.201 384.784 582.019 385.013 581.879 385.302C581.748 385.582 581.65 385.918 581.585 386.31C581.529 386.693 581.501 387.099 581.501 387.528C581.501 387.957 581.529 388.363 581.585 388.746C581.65 389.129 581.748 389.465 581.879 389.754C582.019 390.043 582.201 390.272 582.425 390.44C582.649 390.608 582.924 390.692 583.251 390.692C583.615 390.692 583.909 390.608 584.133 390.44C584.357 390.272 584.534 390.043 584.665 389.754C584.796 389.465 584.884 389.129 584.931 388.746C584.978 388.363 585.001 387.957 585.001 387.528ZM590.311 387.92V390.3C590.311 390.552 590.269 390.753 590.185 390.902C590.11 391.051 589.989 391.126 589.821 391.126C589.681 391.126 589.541 391.121 589.401 391.112C589.27 391.103 589.153 391.07 589.051 391.014C588.948 390.967 588.864 390.888 588.799 390.776C588.733 390.664 588.701 390.501 588.701 390.286V384.812C588.701 384.551 588.738 384.345 588.813 384.196C588.887 384.047 589.013 383.972 589.191 383.972C589.331 383.972 589.466 383.977 589.597 383.986C589.737 383.995 589.858 384.028 589.961 384.084C590.063 384.131 590.147 384.215 590.213 384.336C590.278 384.448 590.311 384.611 590.311 384.826V387.43H592.943V384.812C592.943 384.551 592.98 384.345 593.055 384.196C593.129 384.047 593.26 383.972 593.447 383.972C593.587 383.972 593.722 383.977 593.853 383.986C593.983 383.995 594.1 384.028 594.203 384.084C594.305 384.131 594.389 384.215 594.455 384.336C594.52 384.448 594.553 384.611 594.553 384.826V390.3C594.553 390.552 594.515 390.753 594.441 390.902C594.366 391.051 594.24 391.126 594.063 391.126C593.923 391.126 593.787 391.121 593.657 391.112C593.526 391.103 593.405 391.07 593.293 391.014C593.19 390.967 593.106 390.888 593.041 390.776C592.975 390.664 592.943 390.501 592.943 390.286V387.92H590.311ZM603.09 386.17C603.09 386.562 603.086 386.945 603.076 387.318C603.067 387.691 603.132 388.023 603.272 388.312C603.394 388.555 603.599 388.741 603.888 388.872C604.178 388.993 604.5 389.101 604.854 389.194C605.218 389.278 605.596 389.371 605.988 389.474C606.38 389.577 606.735 389.731 607.052 389.936C607.379 390.132 607.645 390.403 607.85 390.748C608.056 391.093 608.158 391.555 608.158 392.134C608.158 392.545 608.098 392.918 607.976 393.254C607.855 393.599 607.687 393.893 607.472 394.136C607.258 394.388 607.001 394.584 606.702 394.724C606.404 394.864 606.077 394.934 605.722 394.934C605.554 394.934 605.428 394.873 605.344 394.752C605.26 394.64 605.218 394.491 605.218 394.304C605.218 394.089 605.265 393.94 605.358 393.856C605.452 393.781 605.568 393.73 605.708 393.702C605.858 393.683 606.012 393.669 606.17 393.66C606.338 393.651 606.492 393.604 606.632 393.52C606.782 393.445 606.903 393.31 606.996 393.114C607.09 392.927 607.136 392.643 607.136 392.26C607.136 391.999 607.085 391.798 606.982 391.658C606.889 391.527 606.758 391.429 606.59 391.364C606.432 391.299 606.245 391.257 606.03 391.238C605.825 391.229 605.606 391.215 605.372 391.196H605.274C604.668 391.196 604.098 391.065 603.566 390.804C603.034 390.543 602.572 390.183 602.18 389.726C601.788 389.269 601.476 388.737 601.242 388.13C601.018 387.523 600.906 386.87 600.906 386.17C600.906 385.47 601.018 384.817 601.242 384.21C601.476 383.603 601.788 383.071 602.18 382.614C602.572 382.157 603.034 381.797 603.566 381.536C604.098 381.275 604.668 381.144 605.274 381.144C605.76 381.144 606.198 381.2 606.59 381.312C606.982 381.424 607.318 381.578 607.598 381.774C607.878 381.961 608.093 382.18 608.242 382.432C608.392 382.675 608.466 382.931 608.466 383.202C608.466 383.407 608.448 383.571 608.41 383.692C608.373 383.813 608.322 383.911 608.256 383.986C608.191 384.051 608.116 384.098 608.032 384.126C607.948 384.145 607.864 384.154 607.78 384.154C607.5 384.154 607.295 384.098 607.164 383.986C607.043 383.865 606.95 383.72 606.884 383.552C606.819 383.375 606.768 383.183 606.73 382.978C606.693 382.773 606.628 382.586 606.534 382.418C606.441 382.241 606.296 382.096 606.1 381.984C605.914 381.863 605.638 381.802 605.274 381.802C604.864 381.802 604.518 381.919 604.238 382.152C603.968 382.376 603.744 382.689 603.566 383.09C603.398 383.482 603.277 383.944 603.202 384.476C603.128 385.008 603.09 385.573 603.09 386.17ZM614.116 389.166C614.07 389.101 614.028 389.035 613.99 388.97C613.953 388.914 613.906 388.849 613.85 388.774C613.804 388.699 613.757 388.625 613.71 388.55C613.589 388.373 613.454 388.163 613.304 387.92C613.024 388.461 612.716 388.905 612.38 389.25C612.054 389.595 611.634 389.847 611.12 390.006C611.326 390.109 611.554 390.174 611.806 390.202C612.058 390.221 612.315 390.197 612.576 390.132C612.838 390.067 613.099 389.959 613.36 389.81C613.622 389.651 613.874 389.437 614.116 389.166ZM611.414 385.092C611.19 384.747 611.106 384.485 611.162 384.308C611.228 384.121 611.424 384.028 611.75 384.028C611.965 384.028 612.138 384.042 612.268 384.07C612.408 384.089 612.539 384.187 612.66 384.364L616.384 389.964C616.618 390.319 616.72 390.589 616.692 390.776C616.664 390.963 616.436 391.056 616.006 391.056C615.792 391.056 615.614 391.037 615.474 391C615.344 390.953 615.222 390.841 615.11 390.664L614.27 389.404C613.85 389.889 613.36 390.281 612.8 390.58C612.25 390.869 611.708 391.014 611.176 391.014C610.784 391.014 610.481 390.972 610.266 390.888C610.061 390.795 609.958 390.669 609.958 390.51C609.958 390.295 610.019 390.146 610.14 390.062C610.271 389.978 610.416 389.894 610.574 389.81C610.873 389.651 611.125 389.469 611.33 389.264C611.545 389.059 611.722 388.83 611.862 388.578C612.012 388.317 612.133 388.037 612.226 387.738C612.32 387.43 612.404 387.094 612.478 386.73L611.414 385.092ZM625.37 390.3C625.37 390.561 625.333 390.767 625.258 390.916C625.183 391.065 625.057 391.14 624.88 391.14C624.74 391.14 624.605 391.135 624.474 391.126C624.343 391.117 624.222 391.084 624.11 391.028C624.007 390.981 623.923 390.902 623.858 390.79C623.793 390.669 623.76 390.501 623.76 390.286V385.582L621.856 388.466L619.924 386.058V390.3C619.924 390.561 619.882 390.767 619.798 390.916C619.723 391.065 619.602 391.14 619.434 391.14C619.294 391.14 619.154 391.135 619.014 391.126C618.883 391.117 618.767 391.084 618.664 391.028C618.561 390.981 618.477 390.902 618.412 390.79C618.347 390.669 618.314 390.501 618.314 390.286V384.798C618.314 384.537 618.365 384.331 618.468 384.182C618.571 384.033 618.711 383.958 618.888 383.958C619.056 383.958 619.201 383.963 619.322 383.972C619.453 383.972 619.574 383.995 619.686 384.042C619.798 384.089 619.91 384.168 620.022 384.28C620.143 384.383 620.283 384.532 620.442 384.728L622.192 386.884L623.704 384.658C623.695 384.425 623.746 384.252 623.858 384.14C623.97 384.019 624.119 383.958 624.306 383.958C624.446 383.958 624.577 383.963 624.698 383.972C624.829 383.981 624.941 384.014 625.034 384.07C625.137 384.117 625.216 384.201 625.272 384.322C625.337 384.434 625.37 384.597 625.37 384.812V390.3ZM632.538 384.812C632.538 384.551 632.575 384.345 632.65 384.196C632.734 384.047 632.864 383.972 633.042 383.972C633.182 383.972 633.317 383.977 633.448 383.986C633.588 383.995 633.709 384.028 633.812 384.084C633.914 384.131 633.998 384.215 634.064 384.336C634.129 384.448 634.162 384.611 634.162 384.826V388.214C634.162 388.849 634.059 389.362 633.854 389.754C633.658 390.137 633.396 390.431 633.07 390.636C632.752 390.841 632.393 390.977 631.992 391.042C631.6 391.107 631.208 391.14 630.816 391.14C630.508 391.14 630.162 391.117 629.78 391.07C629.406 391.023 629.052 390.916 628.716 390.748C628.389 390.58 628.114 390.333 627.89 390.006C627.666 389.67 627.554 389.217 627.554 388.648V384.812C627.554 384.551 627.591 384.345 627.666 384.196C627.74 384.047 627.866 383.972 628.044 383.972C628.184 383.972 628.319 383.977 628.45 383.986C628.59 383.995 628.711 384.028 628.814 384.084C628.916 384.131 629 384.215 629.066 384.336C629.131 384.448 629.164 384.611 629.164 384.826V388.746C629.164 389.325 629.313 389.796 629.612 390.16C629.92 390.515 630.321 390.692 630.816 390.692C631.152 390.692 631.427 390.613 631.642 390.454C631.866 390.295 632.043 390.095 632.174 389.852C632.304 389.6 632.398 389.329 632.454 389.04C632.51 388.741 632.538 388.457 632.538 388.186V384.812ZM636.265 384.812C636.265 384.551 636.303 384.345 636.377 384.196C636.452 384.047 636.578 383.972 636.755 383.972C636.895 383.972 637.031 383.977 637.161 383.986C637.301 383.995 637.423 384.028 637.525 384.084C637.628 384.131 637.712 384.215 637.777 384.336C637.843 384.448 637.875 384.611 637.875 384.826V390.3C637.875 390.552 637.833 390.753 637.749 390.902C637.675 391.051 637.553 391.126 637.385 391.126C637.245 391.126 637.105 391.121 636.965 391.112C636.835 391.103 636.718 391.07 636.615 391.014C636.513 390.967 636.429 390.888 636.363 390.776C636.298 390.664 636.265 390.501 636.265 390.286V384.812Z" fill="black"/>
<g filter="url(#filter3_i_576_51)">
<path fill-rule="evenodd" clip-rule="evenodd" d="M651.375 377.971C651.375 372.553 655.679 368.171 661 368.171C666.321 368.171 670.625 372.553 670.625 377.971C670.625 383.809 664.547 391.859 662.059 394.925C661.509 395.597 660.505 395.597 659.955 394.925C657.452 391.859 651.375 383.809 651.375 377.971ZM657.562 377.971C657.562 379.903 659.102 381.471 661 381.471C662.898 381.471 664.438 379.903 664.438 377.971C664.438 376.039 662.898 374.471 661 374.471C659.102 374.471 657.562 376.039 657.562 377.971Z" fill="#767A5C"/>
</g>
<g clip-path="url(#clip2_576_51)" filter="url(#filter4_i_576_51)">
<path fill-rule="evenodd" clip-rule="evenodd" d="M316.875 9.9709C316.875 4.5529 321.179 0.170898 326.5 0.170898C331.821 0.170898 336.125 4.5529 336.125 9.9709C336.125 15.8089 330.047 23.8589 327.559 26.9249C327.009 27.5969 326.005 27.5969 325.455 26.9249C322.952 23.8589 316.875 15.8089 316.875 9.9709ZM323.062 9.9709C323.062 11.9029 324.602 13.4709 326.5 13.4709C328.398 13.4709 329.938 11.9029 329.938 9.9709C329.938 8.0389 328.398 6.4709 326.5 6.4709C324.602 6.4709 323.062 8.0389 323.062 9.9709Z" fill="#767A5C"/>
</g>
<path d="M351.641 16.606C351.641 15.7567 351.431 15.108 351.011 14.66C350.591 14.212 350.017 13.988 349.289 13.988V17.726C349.345 17.81 349.443 17.908 349.583 18.02C349.723 18.1227 349.877 18.2067 350.045 18.272C350.222 18.3373 350.404 18.37 350.591 18.37C350.777 18.37 350.95 18.314 351.109 18.202C351.267 18.09 351.393 17.908 351.487 17.656C351.589 17.404 351.641 17.054 351.641 16.606ZM349.289 13.414C349.727 13.3113 350.091 13.092 350.381 12.756C350.679 12.4107 350.829 11.9533 350.829 11.384C350.829 10.9173 350.777 10.5767 350.675 10.362C350.572 10.138 350.441 10.0027 350.283 9.956C350.133 9.9 349.965 9.90933 349.779 9.984C349.601 10.0587 349.438 10.1567 349.289 10.278V13.414ZM348.673 19.112C348.495 19.112 348.323 19.1027 348.155 19.084C347.987 19.0747 347.837 19.0373 347.707 18.972C347.576 18.8973 347.469 18.7807 347.385 18.622C347.31 18.4633 347.273 18.2347 347.273 17.936V10.376C347.273 10.012 347.319 9.72733 347.413 9.522C347.515 9.31667 347.674 9.214 347.889 9.214C348.066 9.214 348.229 9.21867 348.379 9.228C348.537 9.23733 348.673 9.26533 348.785 9.312C348.906 9.35867 349.004 9.42867 349.079 9.522C349.163 9.606 349.214 9.732 349.233 9.9C349.531 9.62933 349.797 9.438 350.031 9.326C350.273 9.20467 350.558 9.144 350.885 9.144C351.09 9.144 351.295 9.16733 351.501 9.214C351.715 9.26067 351.907 9.34933 352.075 9.48C352.252 9.60133 352.397 9.77867 352.509 10.012C352.621 10.2453 352.677 10.5487 352.677 10.922C352.677 11.1833 352.621 11.454 352.509 11.734C352.406 12.014 352.247 12.28 352.033 12.532C351.827 12.784 351.566 13.008 351.249 13.204C350.941 13.3907 350.586 13.526 350.185 13.61C350.885 13.6567 351.459 13.806 351.907 14.058C352.355 14.31 352.705 14.6087 352.957 14.954C353.218 15.29 353.4 15.64 353.503 16.004C353.605 16.368 353.657 16.6807 353.657 16.942C353.657 17.3807 353.582 17.7447 353.433 18.034C353.293 18.3233 353.101 18.5567 352.859 18.734C352.616 18.902 352.336 19.0187 352.019 19.084C351.711 19.1587 351.393 19.196 351.067 19.196C350.852 19.196 350.651 19.168 350.465 19.112C350.278 19.056 350.105 18.986 349.947 18.902C349.797 18.8087 349.662 18.7107 349.541 18.608C349.419 18.5053 349.326 18.4073 349.261 18.314C349.242 18.51 349.191 18.692 349.107 18.86C349.032 19.028 348.887 19.112 348.673 19.112ZM359.467 17.166C359.42 17.1007 359.378 17.0353 359.341 16.97C359.304 16.914 359.257 16.8487 359.201 16.774C359.154 16.6993 359.108 16.6247 359.061 16.55C358.94 16.3727 358.804 16.1627 358.655 15.92C358.375 16.4613 358.067 16.9047 357.731 17.25C357.404 17.5953 356.984 17.8473 356.471 18.006C356.676 18.1087 356.905 18.174 357.157 18.202C357.409 18.2207 357.666 18.1973 357.927 18.132C358.188 18.0667 358.45 17.9593 358.711 17.81C358.972 17.6513 359.224 17.4367 359.467 17.166ZM356.765 13.092C356.541 12.7467 356.457 12.4853 356.513 12.308C356.578 12.1213 356.774 12.028 357.101 12.028C357.316 12.028 357.488 12.042 357.619 12.07C357.759 12.0887 357.89 12.1867 358.011 12.364L361.735 17.964C361.968 18.3187 362.071 18.5893 362.043 18.776C362.015 18.9627 361.786 19.056 361.357 19.056C361.142 19.056 360.965 19.0373 360.825 19C360.694 18.9533 360.573 18.8413 360.461 18.664L359.621 17.404C359.201 17.8893 358.711 18.2813 358.151 18.58C357.6 18.8693 357.059 19.014 356.527 19.014C356.135 19.014 355.832 18.972 355.617 18.888C355.412 18.7947 355.309 18.6687 355.309 18.51C355.309 18.2953 355.37 18.146 355.491 18.062C355.622 17.978 355.766 17.894 355.925 17.81C356.224 17.6513 356.476 17.4693 356.681 17.264C356.896 17.0587 357.073 16.83 357.213 16.578C357.362 16.3167 357.484 16.0367 357.577 15.738C357.67 15.43 357.754 15.094 357.829 14.73L356.765 13.092ZM367.907 12.812C367.907 12.5507 367.944 12.3453 368.019 12.196C368.093 12.0373 368.224 11.958 368.411 11.958C368.551 11.958 368.686 11.9627 368.817 11.972C368.947 11.9813 369.064 12.014 369.167 12.07C369.269 12.1167 369.353 12.2007 369.419 12.322C369.484 12.434 369.517 12.5973 369.517 12.812V18.3C369.517 18.5613 369.479 18.7667 369.405 18.916C369.33 19.0653 369.204 19.14 369.027 19.14C368.887 19.14 368.756 19.14 368.635 19.14C368.513 19.1493 368.397 19.1307 368.285 19.084C368.173 19.0467 368.065 18.972 367.963 18.86C367.86 18.748 367.753 18.58 367.641 18.356L365.275 13.372V18.3C365.275 18.5613 365.233 18.7667 365.149 18.916C365.074 19.0653 364.953 19.14 364.785 19.14C364.645 19.14 364.505 19.1353 364.365 19.126C364.234 19.1167 364.117 19.084 364.015 19.028C363.912 18.9813 363.828 18.902 363.763 18.79C363.697 18.6687 363.665 18.5007 363.665 18.286V12.798C363.665 12.5367 363.702 12.3313 363.777 12.182C363.851 12.0327 363.977 11.958 364.155 11.958C364.295 11.958 364.425 11.9533 364.547 11.944C364.668 11.9347 364.785 11.9487 364.897 11.986C365.009 12.0233 365.116 12.0933 365.219 12.196C365.331 12.2987 365.438 12.462 365.541 12.686L367.907 17.684V12.812ZM376.517 15.276C376.536 15.276 376.568 15.276 376.615 15.276C376.671 15.2667 376.727 15.262 376.783 15.262C376.839 15.2527 376.89 15.248 376.937 15.248C376.993 15.2387 377.035 15.234 377.063 15.234C377.175 15.234 377.296 15.262 377.427 15.318C377.558 15.374 377.628 15.4673 377.637 15.598C377.665 15.6727 377.679 15.8407 377.679 16.102C377.688 16.354 377.684 16.6153 377.665 16.886L377.693 18.664C377.693 18.7947 377.642 18.8973 377.539 18.972C377.446 19.0373 377.338 19.07 377.217 19.07C377.114 19.07 377.04 19.0093 376.993 18.888C376.956 18.7667 376.928 18.6547 376.909 18.552C376.825 18.664 376.708 18.762 376.559 18.846C376.419 18.9207 376.256 18.9767 376.069 19.014C375.892 19.0607 375.705 19.0933 375.509 19.112C375.322 19.1307 375.14 19.14 374.963 19.14C374.478 19.14 374.02 19.0467 373.591 18.86C373.171 18.664 372.802 18.4027 372.485 18.076C372.177 17.7493 371.93 17.3713 371.743 16.942C371.566 16.5033 371.477 16.032 371.477 15.528C371.477 15.024 371.566 14.5527 371.743 14.114C371.93 13.6753 372.177 13.2927 372.485 12.966C372.802 12.63 373.171 12.3687 373.591 12.182C374.02 11.9953 374.478 11.902 374.963 11.902C375.355 11.902 375.705 11.944 376.013 12.028C376.33 12.112 376.601 12.224 376.825 12.364C377.049 12.4947 377.222 12.6487 377.343 12.826C377.464 13.0033 377.525 13.19 377.525 13.386C377.525 13.6847 377.464 13.876 377.343 13.96C377.231 14.0347 377.105 14.072 376.965 14.072C376.741 14.072 376.578 14.03 376.475 13.946C376.382 13.862 376.307 13.7593 376.251 13.638C376.204 13.5073 376.162 13.372 376.125 13.232C376.097 13.0827 376.046 12.9473 375.971 12.826C375.896 12.6953 375.78 12.588 375.621 12.504C375.472 12.42 375.252 12.378 374.963 12.378C374.636 12.378 374.361 12.462 374.137 12.63C373.913 12.7887 373.731 13.0127 373.591 13.302C373.46 13.5913 373.362 13.9273 373.297 14.31C373.241 14.6927 373.213 15.0987 373.213 15.528C373.213 15.9573 373.241 16.3633 373.297 16.746C373.362 17.1287 373.465 17.4647 373.605 17.754C373.745 18.034 373.927 18.258 374.151 18.426C374.375 18.5847 374.65 18.664 374.977 18.664C375.36 18.664 375.658 18.6127 375.873 18.51C376.097 18.4073 376.26 18.2767 376.363 18.118C376.466 17.9593 376.526 17.7867 376.545 17.6C376.573 17.4133 376.582 17.2313 376.573 17.054V16.144H374.837C374.678 16.144 374.562 16.0973 374.487 16.004C374.412 15.9107 374.375 15.8127 374.375 15.71C374.375 15.6073 374.412 15.5093 374.487 15.416C374.562 15.3227 374.678 15.276 374.837 15.276H376.517ZM380.883 18.3C380.883 18.8507 380.72 19.126 380.393 19.126C380.253 19.126 380.113 19.1213 379.973 19.112C379.842 19.1027 379.726 19.07 379.623 19.014C379.52 18.9673 379.436 18.888 379.371 18.776C379.306 18.664 379.273 18.5007 379.273 18.286V12.812C379.273 12.5507 379.31 12.3453 379.385 12.196C379.469 12.0467 379.595 11.972 379.763 11.972C379.903 11.972 380.038 11.9767 380.169 11.986C380.309 11.9953 380.43 12.028 380.533 12.084C380.636 12.1307 380.72 12.2147 380.785 12.336C380.85 12.448 380.883 12.6113 380.883 12.826V15.892L382.885 13.834C382.885 13.1247 382.941 12.6347 383.053 12.364C383.174 12.0933 383.398 11.958 383.725 11.958C383.949 11.958 384.122 12.0093 384.243 12.112C384.364 12.2147 384.425 12.3453 384.425 12.504C384.425 12.6347 384.397 12.7513 384.341 12.854C384.294 12.9473 384.22 13.0453 384.117 13.148C384.014 13.2507 383.888 13.3673 383.739 13.498C383.599 13.6287 383.44 13.7873 383.263 13.974L382.115 15.192L384.971 18.048C385.307 18.384 385.428 18.6407 385.335 18.818C385.251 18.9953 385.018 19.084 384.635 19.084C384.551 19.084 384.476 19.084 384.411 19.084C384.346 19.084 384.28 19.0747 384.215 19.056C384.15 19.0373 384.08 19.0047 384.005 18.958C383.94 18.9113 383.86 18.8367 383.767 18.734L381.219 16.088L380.883 16.452V18.3ZM394.117 15.528C394.117 16.032 394.024 16.5033 393.837 16.942C393.66 17.3807 393.413 17.7633 393.095 18.09C392.778 18.4167 392.405 18.6733 391.975 18.86C391.555 19.0467 391.103 19.14 390.617 19.14C390.132 19.14 389.675 19.0467 389.245 18.86C388.825 18.6733 388.457 18.4167 388.139 18.09C387.831 17.7633 387.584 17.3807 387.397 16.942C387.22 16.5033 387.131 16.032 387.131 15.528C387.131 15.024 387.22 14.5527 387.397 14.114C387.584 13.6753 387.831 13.2927 388.139 12.966C388.457 12.63 388.825 12.3687 389.245 12.182C389.675 11.9953 390.132 11.902 390.617 11.902C391.103 11.902 391.555 11.9953 391.975 12.182C392.405 12.3687 392.778 12.63 393.095 12.966C393.413 13.2927 393.66 13.6753 393.837 14.114C394.024 14.5527 394.117 15.024 394.117 15.528ZM392.367 15.528C392.367 15.0987 392.335 14.6927 392.269 14.31C392.213 13.918 392.115 13.582 391.975 13.302C391.845 13.0127 391.667 12.784 391.443 12.616C391.219 12.448 390.944 12.364 390.617 12.364C390.291 12.364 390.015 12.448 389.791 12.616C389.567 12.784 389.385 13.0127 389.245 13.302C389.115 13.582 389.017 13.918 388.951 14.31C388.895 14.6927 388.867 15.0987 388.867 15.528C388.867 15.9573 388.895 16.3633 388.951 16.746C389.017 17.1287 389.115 17.4647 389.245 17.754C389.385 18.0433 389.567 18.272 389.791 18.44C390.015 18.608 390.291 18.692 390.617 18.692C390.981 18.692 391.275 18.608 391.499 18.44C391.723 18.272 391.901 18.0433 392.031 17.754C392.162 17.4647 392.251 17.1287 392.297 16.746C392.344 16.3633 392.367 15.9573 392.367 15.528ZM397.467 18.3C397.467 18.8507 397.304 19.126 396.977 19.126C396.837 19.126 396.697 19.1213 396.557 19.112C396.426 19.1027 396.31 19.07 396.207 19.014C396.104 18.9673 396.02 18.888 395.955 18.776C395.89 18.664 395.857 18.5007 395.857 18.286V12.812C395.857 12.5507 395.894 12.3453 395.969 12.196C396.053 12.0467 396.179 11.972 396.347 11.972C396.487 11.972 396.622 11.9767 396.753 11.986C396.893 11.9953 397.014 12.028 397.117 12.084C397.22 12.1307 397.304 12.2147 397.369 12.336C397.434 12.448 397.467 12.6113 397.467 12.826V15.892L399.469 13.834C399.469 13.1247 399.525 12.6347 399.637 12.364C399.758 12.0933 399.982 11.958 400.309 11.958C400.533 11.958 400.706 12.0093 400.827 12.112C400.948 12.2147 401.009 12.3453 401.009 12.504C401.009 12.6347 400.981 12.7513 400.925 12.854C400.878 12.9473 400.804 13.0453 400.701 13.148C400.598 13.2507 400.472 13.3673 400.323 13.498C400.183 13.6287 400.024 13.7873 399.847 13.974L398.699 15.192L401.555 18.048C401.891 18.384 402.012 18.6407 401.919 18.818C401.835 18.9953 401.602 19.084 401.219 19.084C401.135 19.084 401.06 19.084 400.995 19.084C400.93 19.084 400.864 19.0747 400.799 19.056C400.734 19.0373 400.664 19.0047 400.589 18.958C400.524 18.9113 400.444 18.8367 400.351 18.734L397.803 16.088L397.467 16.452V18.3Z" fill="black"/>
<path d="M507.823 129.404C507.823 129.049 507.87 128.765 507.963 128.55C508.066 128.335 508.229 128.228 508.453 128.228C508.621 128.228 508.789 128.237 508.957 128.256C509.125 128.265 509.274 128.307 509.405 128.382C509.536 128.447 509.638 128.564 509.713 128.732C509.797 128.891 509.839 129.115 509.839 129.404V137.034C509.839 137.389 509.788 137.673 509.685 137.888C509.592 138.093 509.438 138.196 509.223 138.196C509.055 138.196 508.892 138.196 508.733 138.196C508.584 138.205 508.439 138.177 508.299 138.112C508.159 138.056 508.024 137.953 507.893 137.804C507.762 137.645 507.627 137.412 507.487 137.104L504.533 130.174V137.034C504.533 137.389 504.482 137.673 504.379 137.888C504.286 138.093 504.132 138.196 503.917 138.196C503.74 138.196 503.567 138.187 503.399 138.168C503.231 138.159 503.082 138.117 502.951 138.042C502.82 137.967 502.713 137.851 502.629 137.692C502.554 137.533 502.517 137.305 502.517 137.006V129.39C502.517 129.026 502.564 128.741 502.657 128.536C502.76 128.331 502.918 128.228 503.133 128.228C503.31 128.228 503.474 128.223 503.623 128.214C503.772 128.195 503.917 128.214 504.057 128.27C504.197 128.317 504.332 128.415 504.463 128.564C504.603 128.704 504.738 128.928 504.869 129.236L507.823 136.166V129.404ZM515.895 136.166C515.848 136.101 515.806 136.035 515.769 135.97C515.731 135.914 515.685 135.849 515.629 135.774C515.582 135.699 515.535 135.625 515.489 135.55C515.367 135.373 515.232 135.163 515.083 134.92C514.803 135.461 514.495 135.905 514.159 136.25C513.832 136.595 513.412 136.847 512.899 137.006C513.104 137.109 513.333 137.174 513.585 137.202C513.837 137.221 514.093 137.197 514.355 137.132C514.616 137.067 514.877 136.959 515.139 136.81C515.4 136.651 515.652 136.437 515.895 136.166ZM513.193 132.092C512.969 131.747 512.885 131.485 512.941 131.308C513.006 131.121 513.202 131.028 513.529 131.028C513.743 131.028 513.916 131.042 514.047 131.07C514.187 131.089 514.317 131.187 514.439 131.364L518.163 136.964C518.396 137.319 518.499 137.589 518.471 137.776C518.443 137.963 518.214 138.056 517.785 138.056C517.57 138.056 517.393 138.037 517.253 138C517.122 137.953 517.001 137.841 516.889 137.664L516.049 136.404C515.629 136.889 515.139 137.281 514.579 137.58C514.028 137.869 513.487 138.014 512.955 138.014C512.563 138.014 512.259 137.972 512.045 137.888C511.839 137.795 511.737 137.669 511.737 137.51C511.737 137.295 511.797 137.146 511.919 137.062C512.049 136.978 512.194 136.894 512.353 136.81C512.651 136.651 512.903 136.469 513.109 136.264C513.323 136.059 513.501 135.83 513.641 135.578C513.79 135.317 513.911 135.037 514.005 134.738C514.098 134.43 514.182 134.094 514.257 133.73L513.193 132.092ZM521.492 137.3C521.492 137.851 521.329 138.126 521.002 138.126C520.862 138.126 520.722 138.121 520.582 138.112C520.452 138.103 520.335 138.07 520.232 138.014C520.13 137.967 520.046 137.888 519.98 137.776C519.915 137.664 519.882 137.501 519.882 137.286V131.812C519.882 131.551 519.92 131.345 519.994 131.196C520.078 131.047 520.204 130.972 520.372 130.972C520.512 130.972 520.648 130.977 520.778 130.986C520.918 130.995 521.04 131.028 521.142 131.084C521.245 131.131 521.329 131.215 521.394 131.336C521.46 131.448 521.492 131.611 521.492 131.826V134.892L523.494 132.834C523.494 132.125 523.55 131.635 523.662 131.364C523.784 131.093 524.008 130.958 524.334 130.958C524.558 130.958 524.731 131.009 524.852 131.112C524.974 131.215 525.034 131.345 525.034 131.504C525.034 131.635 525.006 131.751 524.95 131.854C524.904 131.947 524.829 132.045 524.726 132.148C524.624 132.251 524.498 132.367 524.348 132.498C524.208 132.629 524.05 132.787 523.872 132.974L522.724 134.192L525.58 137.048C525.916 137.384 526.038 137.641 525.944 137.818C525.86 137.995 525.627 138.084 525.244 138.084C525.16 138.084 525.086 138.084 525.02 138.084C524.955 138.084 524.89 138.075 524.824 138.056C524.759 138.037 524.689 138.005 524.614 137.958C524.549 137.911 524.47 137.837 524.376 137.734L521.828 135.088L521.492 135.452V137.3ZM529.687 134.92V137.3C529.687 137.552 529.645 137.753 529.561 137.902C529.486 138.051 529.365 138.126 529.197 138.126C529.057 138.126 528.917 138.121 528.777 138.112C528.646 138.103 528.529 138.07 528.427 138.014C528.324 137.967 528.24 137.888 528.175 137.776C528.109 137.664 528.077 137.501 528.077 137.286V131.812C528.077 131.551 528.114 131.345 528.189 131.196C528.263 131.047 528.389 130.972 528.567 130.972C528.707 130.972 528.842 130.977 528.973 130.986C529.113 130.995 529.234 131.028 529.337 131.084C529.439 131.131 529.523 131.215 529.589 131.336C529.654 131.448 529.687 131.611 529.687 131.826V134.43H532.319V131.812C532.319 131.551 532.356 131.345 532.431 131.196C532.505 131.047 532.636 130.972 532.823 130.972C532.963 130.972 533.098 130.977 533.229 130.986C533.359 130.995 533.476 131.028 533.579 131.084C533.681 131.131 533.765 131.215 533.831 131.336C533.896 131.448 533.929 131.611 533.929 131.826V137.3C533.929 137.552 533.891 137.753 533.817 137.902C533.742 138.051 533.616 138.126 533.439 138.126C533.299 138.126 533.163 138.121 533.033 138.112C532.902 138.103 532.781 138.07 532.669 138.014C532.566 137.967 532.482 137.888 532.417 137.776C532.351 137.664 532.319 137.501 532.319 137.286V134.92H529.687ZM542.875 134.528C542.875 135.032 542.782 135.503 542.595 135.942C542.418 136.381 542.17 136.763 541.853 137.09C541.536 137.417 541.162 137.673 540.733 137.86C540.313 138.047 539.86 138.14 539.375 138.14C538.89 138.14 538.432 138.047 538.003 137.86C537.583 137.673 537.214 137.417 536.897 137.09C536.589 136.763 536.342 136.381 536.155 135.942C535.978 135.503 535.889 135.032 535.889 134.528C535.889 134.024 535.978 133.553 536.155 133.114C536.342 132.675 536.589 132.293 536.897 131.966C537.214 131.63 537.583 131.369 538.003 131.182C538.432 130.995 538.89 130.902 539.375 130.902C539.86 130.902 540.313 130.995 540.733 131.182C541.162 131.369 541.536 131.63 541.853 131.966C542.17 132.293 542.418 132.675 542.595 133.114C542.782 133.553 542.875 134.024 542.875 134.528ZM541.125 134.528C541.125 134.099 541.092 133.693 541.027 133.31C540.971 132.918 540.873 132.582 540.733 132.302C540.602 132.013 540.425 131.784 540.201 131.616C539.977 131.448 539.702 131.364 539.375 131.364C539.048 131.364 538.773 131.448 538.549 131.616C538.325 131.784 538.143 132.013 538.003 132.302C537.872 132.582 537.774 132.918 537.709 133.31C537.653 133.693 537.625 134.099 537.625 134.528C537.625 134.957 537.653 135.363 537.709 135.746C537.774 136.129 537.872 136.465 538.003 136.754C538.143 137.043 538.325 137.272 538.549 137.44C538.773 137.608 539.048 137.692 539.375 137.692C539.739 137.692 540.033 137.608 540.257 137.44C540.481 137.272 540.658 137.043 540.789 136.754C540.92 136.465 541.008 136.129 541.055 135.746C541.102 135.363 541.125 134.957 541.125 134.528ZM549.067 131.812C549.067 131.551 549.104 131.345 549.179 131.196C549.253 131.037 549.384 130.958 549.571 130.958C549.711 130.958 549.846 130.963 549.977 130.972C550.107 130.981 550.224 131.014 550.327 131.07C550.429 131.117 550.513 131.201 550.579 131.322C550.644 131.434 550.677 131.597 550.677 131.812V137.3C550.677 137.561 550.639 137.767 550.565 137.916C550.49 138.065 550.364 138.14 550.187 138.14C550.047 138.14 549.916 138.14 549.795 138.14C549.673 138.149 549.557 138.131 549.445 138.084C549.333 138.047 549.225 137.972 549.123 137.86C549.02 137.748 548.913 137.58 548.801 137.356L546.435 132.372V137.3C546.435 137.561 546.393 137.767 546.309 137.916C546.234 138.065 546.113 138.14 545.945 138.14C545.805 138.14 545.665 138.135 545.525 138.126C545.394 138.117 545.277 138.084 545.175 138.028C545.072 137.981 544.988 137.902 544.923 137.79C544.857 137.669 544.825 137.501 544.825 137.286V131.798C544.825 131.537 544.862 131.331 544.937 131.182C545.011 131.033 545.137 130.958 545.315 130.958C545.455 130.958 545.585 130.953 545.707 130.944C545.828 130.935 545.945 130.949 546.057 130.986C546.169 131.023 546.276 131.093 546.379 131.196C546.491 131.299 546.598 131.462 546.701 131.686L549.067 136.684V131.812ZM561.818 130.888C561.818 130.44 561.767 130.085 561.664 129.824C561.571 129.563 561.445 129.371 561.286 129.25C561.128 129.129 560.955 129.063 560.768 129.054C560.582 129.035 560.4 129.054 560.222 129.11C560.054 129.166 559.9 129.245 559.76 129.348C559.62 129.441 559.522 129.53 559.466 129.614V132.848C559.83 132.848 560.157 132.825 560.446 132.778C560.736 132.731 560.978 132.638 561.174 132.498C561.38 132.358 561.538 132.162 561.65 131.91C561.762 131.649 561.818 131.308 561.818 130.888ZM559.466 137.076C559.429 137.328 559.368 137.529 559.284 137.678C559.2 137.818 559.098 137.925 558.976 138C558.855 138.065 558.715 138.103 558.556 138.112C558.407 138.131 558.244 138.14 558.066 138.14C557.852 138.14 557.693 138.037 557.59 137.832C557.497 137.627 557.45 137.342 557.45 136.978V129.404C557.45 129.115 557.488 128.891 557.562 128.732C557.646 128.564 557.754 128.447 557.884 128.382C558.015 128.307 558.164 128.265 558.332 128.256C558.5 128.237 558.673 128.228 558.85 128.228C559.065 128.228 559.21 128.312 559.284 128.48C559.368 128.648 559.42 128.835 559.438 129.04C559.578 128.844 559.807 128.671 560.124 128.522C560.451 128.373 560.824 128.298 561.244 128.298C561.571 128.298 561.888 128.335 562.196 128.41C562.514 128.475 562.794 128.592 563.036 128.76C563.279 128.928 563.47 129.157 563.61 129.446C563.76 129.735 563.834 130.104 563.834 130.552C563.834 130.785 563.783 131.033 563.68 131.294C563.587 131.546 563.447 131.789 563.26 132.022C563.083 132.255 562.854 132.475 562.574 132.68C562.304 132.876 561.996 133.035 561.65 133.156L564.044 136.684C564.399 137.216 564.534 137.589 564.45 137.804C564.366 138.009 564.086 138.112 563.61 138.112C563.508 138.112 563.414 138.112 563.33 138.112C563.246 138.112 563.162 138.098 563.078 138.07C563.004 138.042 562.92 137.995 562.826 137.93C562.742 137.865 562.644 137.767 562.532 137.636L560.096 133.38C559.994 133.371 559.891 133.361 559.788 133.352C559.686 133.343 559.578 133.329 559.466 133.31V137.076ZM570.377 136.166C570.33 136.101 570.288 136.035 570.251 135.97C570.214 135.914 570.167 135.849 570.111 135.774C570.064 135.699 570.018 135.625 569.971 135.55C569.85 135.373 569.714 135.163 569.565 134.92C569.285 135.461 568.977 135.905 568.641 136.25C568.314 136.595 567.894 136.847 567.381 137.006C567.586 137.109 567.815 137.174 568.067 137.202C568.319 137.221 568.576 137.197 568.837 137.132C569.098 137.067 569.36 136.959 569.621 136.81C569.882 136.651 570.134 136.437 570.377 136.166ZM567.675 132.092C567.451 131.747 567.367 131.485 567.423 131.308C567.488 131.121 567.684 131.028 568.011 131.028C568.226 131.028 568.398 131.042 568.529 131.07C568.669 131.089 568.8 131.187 568.921 131.364L572.645 136.964C572.878 137.319 572.981 137.589 572.953 137.776C572.925 137.963 572.696 138.056 572.267 138.056C572.052 138.056 571.875 138.037 571.735 138C571.604 137.953 571.483 137.841 571.371 137.664L570.531 136.404C570.111 136.889 569.621 137.281 569.061 137.58C568.51 137.869 567.969 138.014 567.437 138.014C567.045 138.014 566.742 137.972 566.527 137.888C566.322 137.795 566.219 137.669 566.219 137.51C566.219 137.295 566.28 137.146 566.401 137.062C566.532 136.978 566.676 136.894 566.835 136.81C567.134 136.651 567.386 136.469 567.591 136.264C567.806 136.059 567.983 135.83 568.123 135.578C568.272 135.317 568.394 135.037 568.487 134.738C568.58 134.43 568.664 134.094 568.739 133.73L567.675 132.092ZM578.425 137.02C578.425 137.216 578.383 137.393 578.299 137.552C578.215 137.701 578.112 137.832 577.991 137.944C577.869 138.056 577.734 138.14 577.585 138.196C577.445 138.252 577.319 138.28 577.207 138.28C577.039 138.28 576.931 138.201 576.885 138.042C576.838 137.883 576.815 137.683 576.815 137.44V131.532H575.485C575.429 131.803 575.335 132.022 575.205 132.19C575.074 132.358 574.878 132.442 574.617 132.442C574.337 132.442 574.145 132.377 574.043 132.246C573.949 132.106 573.903 131.957 573.903 131.798C573.903 131.583 573.959 131.406 574.071 131.266C574.183 131.117 574.388 131.042 574.687 131.042H580.567C580.856 131.042 581.057 131.117 581.169 131.266C581.29 131.406 581.351 131.583 581.351 131.798C581.351 131.957 581.299 132.106 581.197 132.246C581.094 132.377 580.903 132.442 580.623 132.442C580.361 132.442 580.165 132.358 580.035 132.19C579.904 132.022 579.811 131.803 579.755 131.532H578.425V137.02ZM586.12 137.664C586.418 137.664 586.642 137.622 586.792 137.538C586.941 137.454 587.053 137.351 587.128 137.23C587.202 137.099 587.254 136.964 587.282 136.824C587.319 136.675 587.361 136.539 587.408 136.418C587.464 136.287 587.538 136.18 587.632 136.096C587.734 136.012 587.898 135.97 588.122 135.97C588.262 135.97 588.388 136.012 588.5 136.096C588.612 136.171 588.668 136.357 588.668 136.656C588.668 136.852 588.607 137.039 588.486 137.216C588.364 137.393 588.192 137.552 587.968 137.692C587.744 137.832 587.473 137.939 587.156 138.014C586.838 138.098 586.488 138.14 586.106 138.14C585.62 138.14 585.163 138.047 584.734 137.86C584.314 137.664 583.945 137.403 583.628 137.076C583.32 136.749 583.072 136.371 582.886 135.942C582.708 135.503 582.62 135.032 582.62 134.528C582.62 134.024 582.708 133.553 582.886 133.114C583.072 132.675 583.32 132.293 583.628 131.966C583.945 131.63 584.314 131.369 584.734 131.182C585.163 130.995 585.62 130.902 586.106 130.902C586.498 130.902 586.848 130.944 587.156 131.028C587.473 131.112 587.744 131.224 587.968 131.364C588.192 131.495 588.364 131.649 588.486 131.826C588.607 132.003 588.668 132.19 588.668 132.386C588.668 132.685 588.607 132.876 588.486 132.96C588.374 133.035 588.248 133.072 588.108 133.072C587.884 133.072 587.72 133.03 587.618 132.946C587.524 132.862 587.45 132.759 587.394 132.638C587.347 132.507 587.305 132.372 587.268 132.232C587.24 132.083 587.188 131.947 587.114 131.826C587.039 131.695 586.922 131.588 586.764 131.504C586.614 131.42 586.395 131.378 586.106 131.378C585.779 131.378 585.504 131.462 585.28 131.63C585.056 131.789 584.874 132.013 584.734 132.302C584.603 132.591 584.505 132.927 584.44 133.31C584.384 133.693 584.356 134.099 584.356 134.528C584.356 134.957 584.384 135.363 584.44 135.746C584.505 136.129 584.608 136.465 584.748 136.754C584.888 137.034 585.07 137.258 585.294 137.426C585.518 137.585 585.793 137.664 586.12 137.664ZM592.236 134.92V137.3C592.236 137.552 592.194 137.753 592.11 137.902C592.035 138.051 591.914 138.126 591.746 138.126C591.606 138.126 591.466 138.121 591.326 138.112C591.195 138.103 591.078 138.07 590.976 138.014C590.873 137.967 590.789 137.888 590.724 137.776C590.658 137.664 590.626 137.501 590.626 137.286V131.812C590.626 131.551 590.663 131.345 590.738 131.196C590.812 131.047 590.938 130.972 591.116 130.972C591.256 130.972 591.391 130.977 591.522 130.986C591.662 130.995 591.783 131.028 591.886 131.084C591.988 131.131 592.072 131.215 592.138 131.336C592.203 131.448 592.236 131.611 592.236 131.826V134.43H594.868V131.812C594.868 131.551 594.905 131.345 594.98 131.196C595.054 131.047 595.185 130.972 595.372 130.972C595.512 130.972 595.647 130.977 595.778 130.986C595.908 130.995 596.025 131.028 596.128 131.084C596.23 131.131 596.314 131.215 596.38 131.336C596.445 131.448 596.478 131.611 596.478 131.826V137.3C596.478 137.552 596.44 137.753 596.366 137.902C596.291 138.051 596.165 138.126 595.988 138.126C595.848 138.126 595.712 138.121 595.582 138.112C595.451 138.103 595.33 138.07 595.218 138.014C595.115 137.967 595.031 137.888 594.966 137.776C594.9 137.664 594.868 137.501 594.868 137.286V134.92H592.236ZM602.26 136.166C602.213 136.101 602.171 136.035 602.134 135.97C602.097 135.914 602.05 135.849 601.994 135.774C601.947 135.699 601.901 135.625 601.854 135.55C601.733 135.373 601.597 135.163 601.448 134.92C601.168 135.461 600.86 135.905 600.524 136.25C600.197 136.595 599.777 136.847 599.264 137.006C599.469 137.109 599.698 137.174 599.95 137.202C600.202 137.221 600.459 137.197 600.72 137.132C600.981 137.067 601.243 136.959 601.504 136.81C601.765 136.651 602.017 136.437 602.26 136.166ZM599.558 132.092C599.334 131.747 599.25 131.485 599.306 131.308C599.371 131.121 599.567 131.028 599.894 131.028C600.109 131.028 600.281 131.042 600.412 131.07C600.552 131.089 600.683 131.187 600.804 131.364L604.528 136.964C604.761 137.319 604.864 137.589 604.836 137.776C604.808 137.963 604.579 138.056 604.15 138.056C603.935 138.056 603.758 138.037 603.618 138C603.487 137.953 603.366 137.841 603.254 137.664L602.414 136.404C601.994 136.889 601.504 137.281 600.944 137.58C600.393 137.869 599.852 138.014 599.32 138.014C598.928 138.014 598.625 137.972 598.41 137.888C598.205 137.795 598.102 137.669 598.102 137.51C598.102 137.295 598.163 137.146 598.284 137.062C598.415 136.978 598.559 136.894 598.718 136.81C599.017 136.651 599.269 136.469 599.474 136.264C599.689 136.059 599.866 135.83 600.006 135.578C600.155 135.317 600.277 135.037 600.37 134.738C600.463 134.43 600.547 134.094 600.622 133.73L599.558 132.092ZM607.858 134.528C607.858 134.808 607.853 135.083 607.844 135.354C607.844 135.615 607.9 135.853 608.012 136.068C608.105 136.245 608.268 136.381 608.502 136.474C608.735 136.558 608.996 136.633 609.286 136.698C609.575 136.763 609.874 136.833 610.182 136.908C610.49 136.973 610.77 137.081 611.022 137.23C611.283 137.37 611.498 137.566 611.666 137.818C611.834 138.07 611.918 138.401 611.918 138.812C611.918 139.111 611.866 139.381 611.764 139.624C611.67 139.876 611.535 140.091 611.358 140.268C611.19 140.445 610.984 140.581 610.742 140.674C610.508 140.777 610.252 140.828 609.972 140.828C609.841 140.828 609.738 140.786 609.664 140.702C609.598 140.618 609.566 140.511 609.566 140.38C609.566 140.221 609.603 140.114 609.678 140.058C609.752 140.011 609.846 139.979 609.958 139.96C610.079 139.941 610.205 139.927 610.336 139.918C610.466 139.918 610.588 139.885 610.7 139.82C610.821 139.764 610.919 139.666 610.994 139.526C611.068 139.395 611.106 139.19 611.106 138.91C611.106 138.723 611.064 138.579 610.98 138.476C610.905 138.383 610.802 138.313 610.672 138.266C610.541 138.219 610.392 138.187 610.224 138.168C610.056 138.159 609.878 138.149 609.692 138.14H609.608C609.122 138.14 608.665 138.047 608.236 137.86C607.816 137.673 607.447 137.417 607.13 137.09C606.822 136.763 606.574 136.381 606.388 135.942C606.21 135.503 606.122 135.032 606.122 134.528C606.122 134.024 606.21 133.553 606.388 133.114C606.574 132.675 606.822 132.293 607.13 131.966C607.447 131.63 607.816 131.369 608.236 131.182C608.665 130.995 609.122 130.902 609.608 130.902C610 130.902 610.35 130.944 610.658 131.028C610.975 131.112 611.246 131.224 611.47 131.364C611.694 131.495 611.866 131.649 611.988 131.826C612.109 132.003 612.17 132.19 612.17 132.386C612.17 132.685 612.109 132.876 611.988 132.96C611.876 133.035 611.75 133.072 611.61 133.072C611.386 133.072 611.222 133.03 611.12 132.946C611.026 132.862 610.952 132.759 610.896 132.638C610.849 132.507 610.807 132.372 610.77 132.232C610.742 132.083 610.69 131.947 610.616 131.826C610.541 131.695 610.424 131.588 610.266 131.504C610.116 131.42 609.897 131.378 609.608 131.378C609.281 131.378 609.006 131.462 608.782 131.63C608.558 131.789 608.376 132.013 608.236 132.302C608.105 132.591 608.007 132.927 607.942 133.31C607.886 133.693 607.858 134.099 607.858 134.528ZM614.127 131.812C614.127 131.551 614.165 131.345 614.239 131.196C614.314 131.047 614.44 130.972 614.617 130.972C614.757 130.972 614.893 130.977 615.023 130.986C615.163 130.995 615.285 131.028 615.387 131.084C615.49 131.131 615.574 131.215 615.639 131.336C615.705 131.448 615.737 131.611 615.737 131.826V137.3C615.737 137.552 615.695 137.753 615.611 137.902C615.537 138.051 615.415 138.126 615.247 138.126C615.107 138.126 614.967 138.121 614.827 138.112C614.697 138.103 614.58 138.07 614.477 138.014C614.375 137.967 614.291 137.888 614.225 137.776C614.16 137.664 614.127 137.501 614.127 137.286V131.812ZM625.08 137.3C625.08 137.561 625.043 137.767 624.968 137.916C624.893 138.065 624.767 138.14 624.59 138.14C624.45 138.14 624.315 138.135 624.184 138.126C624.053 138.117 623.932 138.084 623.82 138.028C623.717 137.981 623.633 137.902 623.568 137.79C623.503 137.669 623.47 137.501 623.47 137.286V132.582L621.566 135.466L619.634 133.058V137.3C619.634 137.561 619.592 137.767 619.508 137.916C619.433 138.065 619.312 138.14 619.144 138.14C619.004 138.14 618.864 138.135 618.724 138.126C618.593 138.117 618.477 138.084 618.374 138.028C618.271 137.981 618.187 137.902 618.122 137.79C618.057 137.669 618.024 137.501 618.024 137.286V131.798C618.024 131.537 618.075 131.331 618.178 131.182C618.281 131.033 618.421 130.958 618.598 130.958C618.766 130.958 618.911 130.963 619.032 130.972C619.163 130.972 619.284 130.995 619.396 131.042C619.508 131.089 619.62 131.168 619.732 131.28C619.853 131.383 619.993 131.532 620.152 131.728L621.902 133.884L623.414 131.658C623.405 131.425 623.456 131.252 623.568 131.14C623.68 131.019 623.829 130.958 624.016 130.958C624.156 130.958 624.287 130.963 624.408 130.972C624.539 130.981 624.651 131.014 624.744 131.07C624.847 131.117 624.926 131.201 624.982 131.322C625.047 131.434 625.08 131.597 625.08 131.812V137.3ZM630.862 136.166C630.815 136.101 630.773 136.035 630.736 135.97C630.698 135.914 630.652 135.849 630.596 135.774C630.549 135.699 630.502 135.625 630.456 135.55C630.334 135.373 630.199 135.163 630.05 134.92C629.77 135.461 629.462 135.905 629.126 136.25C628.799 136.595 628.379 136.847 627.866 137.006C628.071 137.109 628.3 137.174 628.552 137.202C628.804 137.221 629.06 137.197 629.322 137.132C629.583 137.067 629.844 136.959 630.106 136.81C630.367 136.651 630.619 136.437 630.862 136.166ZM628.16 132.092C627.936 131.747 627.852 131.485 627.908 131.308C627.973 131.121 628.169 131.028 628.496 131.028C628.71 131.028 628.883 131.042 629.014 131.07C629.154 131.089 629.284 131.187 629.406 131.364L633.13 136.964C633.363 137.319 633.466 137.589 633.438 137.776C633.41 137.963 633.181 138.056 632.752 138.056C632.537 138.056 632.36 138.037 632.22 138C632.089 137.953 631.968 137.841 631.856 137.664L631.016 136.404C630.596 136.889 630.106 137.281 629.546 137.58C628.995 137.869 628.454 138.014 627.922 138.014C627.53 138.014 627.226 137.972 627.012 137.888C626.806 137.795 626.704 137.669 626.704 137.51C626.704 137.295 626.764 137.146 626.886 137.062C627.016 136.978 627.161 136.894 627.32 136.81C627.618 136.651 627.87 136.469 628.076 136.264C628.29 136.059 628.468 135.83 628.608 135.578C628.757 135.317 628.878 135.037 628.972 134.738C629.065 134.43 629.149 134.094 629.224 133.73L628.16 132.092Z" fill="black"/>
<g clip-path="url(#clip3_576_51)" filter="url(#filter5_i_576_51)">
<path fill-rule="evenodd" clip-rule="evenodd" d="M639.875 128.971C639.875 123.553 644.179 119.171 649.5 119.171C654.821 119.171 659.125 123.553 659.125 128.971C659.125 134.809 653.047 142.859 650.559 145.925C650.009 146.597 649.005 146.597 648.455 145.925C645.952 142.859 639.875 134.809 639.875 128.971ZM646.062 128.971C646.062 130.903 647.602 132.471 649.5 132.471C651.398 132.471 652.938 130.903 652.938 128.971C652.938 127.039 651.398 125.471 649.5 125.471C647.602 125.471 646.062 127.039 646.062 128.971Z" fill="#767A5C"/>
</g>
<defs>
<filter id="filter0_i_576_51" x="72" y="242" width="21" height="30" filterUnits="userSpaceOnUse" color-interpolation-filters="sRGB">
<feFlood flood-opacity="0" result="BackgroundImageFix"/>
<feBlend mode="normal" in="SourceGraphic" in2="BackgroundImageFix" result="shape"/>
<feColorMatrix in="SourceAlpha" type="matrix" values="0 0 0 0 0 0 0 0 0 0 0 0 0 0 0 0 0 0 127 0" result="hardAlpha"/>
<feOffset dy="2"/>
<feGaussianBlur stdDeviation="1"/>
<feComposite in2="hardAlpha" operator="arithmetic" k2="-1" k3="1"/>
<feColorMatrix type="matrix" values="0 0 0 0 0 0 0 0 0 0 0 0 0 0 0 0 0 0 0.5 0"/>
<feBlend mode="normal" in2="shape" result="effect1_innerShadow_576_51"/>
</filter>
<filter id="filter1_i_576_51" x="292.5" y="382" width="21" height="30" filterUnits="userSpaceOnUse" color-interpolation-filters="sRGB">
<feFlood flood-opacity="0" result="BackgroundImageFix"/>
<feBlend mode="normal" in="SourceGraphic" in2="BackgroundImageFix" result="shape"/>
<feColorMatrix in="SourceAlpha" type="matrix" values="0 0 0 0 0 0 0 0 0 0 0 0 0 0 0 0 0 0 127 0" result="hardAlpha"/>
<feOffset dy="2"/>
<feGaussianBlur stdDeviation="1"/>
<feComposite in2="hardAlpha" operator="arithmetic" k2="-1" k3="1"/>
<feColorMatrix type="matrix" values="0 0 0 0 0 0 0 0 0 0 0 0 0 0 0 0 0 0 0.5 0"/>
<feBlend mode="normal" in2="shape" result="effect1_innerShadow_576_51"/>
</filter>
<filter id="filter2_i_576_51" x="480" y="421" width="21" height="30" filterUnits="userSpaceOnUse" color-interpolation-filters="sRGB">
<feFlood flood-opacity="0" result="BackgroundImageFix"/>
<feBlend mode="normal" in="SourceGraphic" in2="BackgroundImageFix" result="shape"/>
<feColorMatrix in="SourceAlpha" type="matrix" values="0 0 0 0 0 0 0 0 0 0 0 0 0 0 0 0 0 0 127 0" result="hardAlpha"/>
<feOffset dy="2"/>
<feGaussianBlur stdDeviation="1"/>
<feComposite in2="hardAlpha" operator="arithmetic" k2="-1" k3="1"/>
<feColorMatrix type="matrix" values="0 0 0 0 0 0 0 0 0 0 0 0 0 0 0 0 0 0 0.5 0"/>
<feBlend mode="normal" in2="shape" result="effect1_innerShadow_576_51"/>
</filter>
<filter id="filter3_i_576_51" x="650.5" y="368" width="21" height="30" filterUnits="userSpaceOnUse" color-interpolation-filters="sRGB">
<feFlood flood-opacity="0" result="BackgroundImageFix"/>
<feBlend mode="normal" in="SourceGraphic" in2="BackgroundImageFix" result="shape"/>
<feColorMatrix in="SourceAlpha" type="matrix" values="0 0 0 0 0 0 0 0 0 0 0 0 0 0 0 0 0 0 127 0" result="hardAlpha"/>
<feOffset dy="2"/>
<feGaussianBlur stdDeviation="1"/>
<feComposite in2="hardAlpha" operator="arithmetic" k2="-1" k3="1"/>
<feColorMatrix type="matrix" values="0 0 0 0 0 0 0 0 0 0 0 0 0 0 0 0 0 0 0.5 0"/>
<feBlend mode="normal" in2="shape" result="effect1_innerShadow_576_51"/>
</filter>
<filter id="filter4_i_576_51" x="316" y="0" width="21" height="30" filterUnits="userSpaceOnUse" color-interpolation-filters="sRGB">
<feFlood flood-opacity="0" result="BackgroundImageFix"/>
<feBlend mode="normal" in="SourceGraphic" in2="BackgroundImageFix" result="shape"/>
<feColorMatrix in="SourceAlpha" type="matrix" values="0 0 0 0 0 0 0 0 0 0 0 0 0 0 0 0 0 0 127 0" result="hardAlpha"/>
<feOffset dy="2"/>
<feGaussianBlur stdDeviation="1"/>
<feComposite in2="hardAlpha" operator="arithmetic" k2="-1" k3="1"/>
<feColorMatrix type="matrix" values="0 0 0 0 0 0 0 0 0 0 0 0 0 0 0 0 0 0 0.5 0"/>
<feBlend mode="normal" in2="shape" result="effect1_innerShadow_576_51"/>
</filter>
<filter id="filter5_i_576_51" x="639" y="119" width="21" height="30" filterUnits="userSpaceOnUse" color-interpolation-filters="sRGB">
<feFlood flood-opacity="0" result="BackgroundImageFix"/>
<feBlend mode="normal" in="SourceGraphic" in2="BackgroundImageFix" result="shape"/>
<feColorMatrix in="SourceAlpha" type="matrix" values="0 0 0 0 0 0 0 0 0 0 0 0 0 0 0 0 0 0 127 0" result="hardAlpha"/>
<feOffset dy="2"/>
<feGaussianBlur stdDeviation="1"/>
<feComposite in2="hardAlpha" operator="arithmetic" k2="-1" k3="1"/>
<feColorMatrix type="matrix" values="0 0 0 0 0 0 0 0 0 0 0 0 0 0 0 0 0 0 0.5 0"/>
<feBlend mode="normal" in2="shape" result="effect1_innerShadow_576_51"/>
</filter>
<clipPath id="clip0_576_51">
<rect width="21" height="28" fill="white" transform="translate(72 242)"/>
</clipPath>
<clipPath id="clip1_576_51">
<rect width="21" height="28" fill="white" transform="translate(480 421)"/>
</clipPath>
<clipPath id="clip2_576_51">
<rect width="21" height="28" fill="white" transform="translate(316)"/>
</clipPath>
<clipPath id="clip3_576_51">
<rect width="21" height="28" fill="white" transform="translate(639 119)"/>
</clipPath>
</defs>
</svg>
